{"glyphs":{"0":{"ha":744,"x_min":36,"x_max":707,"o":"m 372 -14 q 189 36 264 -14 q 75 172 114 86 q 36 368 36 258 q 75 564 36 478 q 189 700 114 650 q 372 750 264 750 q 554 700 479 750 q 668 564 629 650 q 707 368 707 478 q 668 172 707 258 q 554 36 629 86 q 372 -14 479 -14 m 372 97 q 568 171 494 97 q 642 368 642 244 q 568 565 642 492 q 372 639 494 639 q 176 565 250 639 q 103 368 103 492 q 176 171 103 244 q 372 97 250 97 z "},"1":{"ha":744,"x_min":122,"x_max":624,"o":"m 122 0 l 122 22 l 289 78 l 289 658 l 122 714 l 122 736 l 624 736 l 624 714 l 457 658 l 457 78 l 624 22 l 624 0 l 122 0 z "},"2":{"ha":744,"x_min":69,"x_max":665,"o":"m 79 0 l 79 43 q 252 203 182 139 q 365 315 322 268 q 426 403 407 361 q 444 496 444 446 q 409 597 444 553 q 299 642 374 642 q 190 607 232 642 q 119 510 147 572 l 69 532 q 198 694 117 639 q 372 750 279 750 q 563 686 497 750 q 628 525 628 622 q 599 415 628 464 q 517 321 569 365 q 395 228 465 276 q 243 122 325 181 l 572 122 l 642 257 l 665 257 l 650 0 l 79 0 z "},"3":{"ha":744,"x_min":56,"x_max":690,"o":"m 342 -193 q 67 -85 144 -193 q 56 -57 56 -67 q 81 -19 56 -39 l 143 28 l 160 28 l 174 -1 q 245 -98 206 -65 q 353 -131 285 -131 q 479 -79 435 -131 q 524 47 524 -28 q 449 213 524 153 q 228 274 375 274 l 208 333 l 211 333 q 335 355 281 333 q 422 415 390 376 q 453 504 453 453 q 417 605 453 568 q 310 642 381 642 q 200 607 243 642 q 129 510 157 572 l 81 532 q 211 694 128 639 q 389 750 294 750 q 569 697 501 750 q 636 558 636 644 q 583 432 636 485 q 444 356 529 379 q 632 257 574 328 q 690 92 690 186 q 644 -53 690 11 q 518 -156 597 -118 q 342 -193 439 -193 z "},"4":{"ha":744,"x_min":11,"x_max":726,"o":"m 393 -181 l 393 89 l 11 89 l 11 132 l 489 736 l 561 736 l 561 192 l 726 192 l 726 89 l 561 89 l 561 -181 l 393 -181 m 140 192 l 393 192 l 393 515 l 140 192 z "},"5":{"ha":744,"x_min":79,"x_max":667,"o":"m 299 -194 q 170 -176 224 -194 q 90 -121 117 -157 q 79 -93 79 -108 q 104 -56 79 -75 l 167 -7 l 183 -7 l 199 -36 q 254 -104 221 -79 q 343 -129 288 -129 q 467 -74 418 -129 q 517 71 517 -19 q 492 176 517 131 q 409 249 467 222 q 256 276 351 276 q 192 273 224 276 q 122 264 160 269 l 122 736 l 596 736 l 596 610 l 193 610 l 193 418 q 239 421 215 419 q 290 422 263 422 q 508 383 425 422 q 628 281 590 344 q 667 142 667 217 q 619 -34 667 42 q 489 -152 572 -110 q 299 -194 406 -194 z "},"6":{"ha":744,"x_min":50,"x_max":701,"o":"m 376 -14 q 205 30 278 -14 q 91 152 132 74 q 50 333 50 231 q 119 603 50 483 q 315 806 188 722 q 618 931 442 890 l 618 885 q 357 717 453 833 q 238 439 261 600 q 330 517 275 489 q 456 544 385 544 q 587 510 532 544 q 672 415 642 475 q 701 279 701 354 q 665 137 701 204 q 557 28 629 69 q 376 -14 485 -14 m 231 338 q 273 123 231 194 q 382 51 315 51 q 463 81 431 51 q 510 155 494 110 q 525 244 525 200 q 488 392 525 339 q 376 444 451 444 q 293 423 331 444 q 231 365 256 401 q 231 338 231 351 z "},"7":{"ha":744,"x_min":76,"x_max":675,"o":"m 136 -181 q 208 -21 171 -99 q 293 143 246 57 q 403 337 340 229 q 550 588 465 444 l 76 588 l 76 736 l 675 736 l 675 693 q 572 489 625 597 q 467 267 518 381 q 377 41 417 154 q 315 -181 338 -72 l 136 -181 z "},"8":{"ha":744,"x_min":57,"x_max":688,"o":"m 369 -14 q 213 13 283 -14 q 99 88 142 39 q 57 204 57 138 q 72 285 57 244 q 128 365 88 325 q 242 444 168 404 q 118 554 153 500 q 83 685 83 608 q 125 808 83 751 q 235 897 167 864 q 381 931 303 931 q 519 901 456 931 q 620 821 582 872 q 658 704 658 769 q 610 599 658 647 q 482 510 561 551 q 639 390 590 449 q 688 247 688 331 q 642 108 688 167 q 525 18 597 50 q 369 -14 453 -14 m 244 743 q 257 676 244 707 q 308 614 269 646 q 422 542 346 582 q 490 610 465 571 q 515 700 515 649 q 476 826 515 785 q 372 867 436 867 q 281 833 317 867 q 244 743 244 800 m 206 229 q 251 96 206 144 q 371 47 297 47 q 485 86 444 47 q 526 189 526 125 q 503 272 526 239 q 428 338 479 306 q 294 414 376 369 q 223 332 240 374 q 206 229 206 290 z "},"9":{"ha":744,"x_min":43,"x_max":696,"o":"m 126 -194 l 126 -149 q 388 19 292 -97 q 507 296 483 136 q 415 219 469 247 q 289 192 360 192 q 158 226 214 192 q 73 322 103 261 q 43 457 43 382 q 79 599 43 532 q 188 708 115 667 q 368 750 260 750 q 540 706 467 750 q 655 584 614 663 q 696 403 696 506 q 626 133 696 253 q 430 -70 557 14 q 126 -194 303 -154 m 221 492 q 257 344 221 397 q 368 292 293 292 q 451 313 414 292 q 514 371 489 335 q 514 399 514 385 q 472 613 514 542 q 364 685 431 685 q 282 656 314 685 q 235 581 250 626 q 221 492 221 536 z "},"\u0000":{"ha":0,"x_min":0,"x_max":0,"o":""}," ":{"ha":347,"x_min":0,"x_max":0,"o":""}," ":{"ha":694,"x_min":0,"x_max":0,"o":""}," ":{"ha":347,"x_min":0,"x_max":0,"o":""}," ":{"ha":174,"x_min":0,"x_max":0,"o":""}," ":{"ha":35,"x_min":0,"x_max":0,"o":""},"​":{"ha":0,"x_min":0,"x_max":0,"o":""},"A":{"ha":1061,"x_min":35,"x_max":1028,"o":"m 35 0 l 35 22 l 121 69 l 481 924 l 578 924 l 933 72 l 1028 22 l 1028 0 l 628 0 l 628 22 l 749 71 l 650 313 l 317 313 l 219 71 l 335 22 l 335 0 l 35 0 m 349 389 l 618 389 l 483 721 l 349 389 z "},"B":{"ha":953,"x_min":72,"x_max":897,"o":"m 72 0 l 72 22 l 189 79 l 189 838 l 72 894 l 72 917 l 479 917 q 651 894 575 917 q 772 826 728 871 q 815 711 815 781 q 765 581 815 640 q 619 497 714 522 q 823 419 749 479 q 897 267 897 360 q 847 130 897 190 q 710 35 797 69 q 511 0 622 0 l 72 0 m 425 840 l 363 840 l 363 508 l 433 508 q 581 551 528 508 q 635 671 635 594 q 425 840 635 840 m 476 438 l 363 438 l 363 76 l 486 76 q 651 127 590 76 q 711 258 711 178 q 650 394 711 350 q 476 438 589 438 z "},"C":{"ha":996,"x_min":81,"x_max":886,"o":"m 554 -14 q 303 44 410 -14 q 139 205 197 103 q 81 436 81 307 q 121 627 81 538 q 231 785 161 717 q 389 892 300 853 q 576 931 478 931 q 697 922 647 931 q 784 898 746 913 q 861 864 822 883 l 874 611 l 849 611 l 738 806 q 660 848 694 835 q 579 861 625 861 q 417 811 489 861 q 303 671 344 761 q 261 463 261 581 q 301 246 261 336 q 410 107 342 156 q 564 58 479 58 q 672 75 626 58 q 756 115 717 92 l 863 286 l 886 286 l 868 57 q 735 6 810 25 q 554 -14 661 -14 z "},"D":{"ha":1099,"x_min":72,"x_max":1021,"o":"m 72 0 l 72 22 l 189 79 l 189 838 l 72 894 l 72 917 l 519 917 q 791 863 679 917 q 962 714 903 808 q 1021 500 1021 619 q 983 300 1021 392 q 876 142 944 208 q 713 38 807 75 q 510 0 619 0 l 72 0 m 472 840 l 363 840 l 363 76 l 493 76 q 680 123 603 76 q 798 255 757 169 q 839 457 839 340 q 745 736 839 632 q 472 840 651 840 z "},"E":{"ha":929,"x_min":72,"x_max":838,"o":"m 72 0 l 72 22 l 189 79 l 189 838 l 72 894 l 72 917 l 799 917 l 799 676 l 776 676 l 681 840 l 363 840 l 363 511 l 586 511 l 661 629 l 683 629 l 683 319 l 661 319 l 586 435 l 363 435 l 363 76 l 715 76 l 815 271 l 838 271 l 838 0 l 72 0 z "},"F":{"ha":867,"x_min":72,"x_max":785,"o":"m 72 0 l 72 22 l 189 79 l 189 838 l 72 894 l 72 917 l 785 917 l 785 676 l 763 676 l 671 840 l 363 840 l 363 508 l 572 508 l 647 626 l 669 626 l 669 322 l 647 322 l 572 438 l 363 438 l 363 79 l 499 22 l 499 0 l 72 0 z "},"G":{"ha":1057,"x_min":81,"x_max":1004,"o":"m 553 -14 q 367 19 453 -14 q 217 114 281 53 q 117 257 153 175 q 81 436 81 339 q 122 633 81 543 q 233 790 163 724 q 397 894 304 857 q 592 931 489 931 q 717 922 665 931 q 810 899 769 914 q 892 864 851 883 l 903 626 l 879 626 l 765 807 q 681 850 718 838 q 594 863 643 863 q 424 814 500 863 q 303 679 347 765 q 258 481 258 593 q 303 257 258 350 q 424 114 349 164 q 593 64 500 64 q 660 67 625 64 q 729 81 694 71 l 729 328 l 606 389 l 606 411 l 1004 411 l 1004 389 l 903 325 l 903 103 q 801 41 861 67 q 677 1 742 15 q 553 -14 613 -14 z "},"H":{"ha":1146,"x_min":72,"x_max":1072,"o":"m 72 0 l 72 22 l 189 79 l 189 838 l 72 894 l 72 917 l 472 917 l 472 894 l 363 838 l 363 511 l 783 511 l 783 838 l 674 894 l 674 917 l 1072 917 l 1072 894 l 958 838 l 958 79 l 1072 22 l 1072 0 l 674 0 l 674 22 l 783 79 l 783 435 l 363 435 l 363 79 l 472 22 l 472 0 l 72 0 z "},"I":{"ha":561,"x_min":78,"x_max":483,"o":"m 78 0 l 78 22 l 193 79 l 193 838 l 78 894 l 78 917 l 483 917 l 483 894 l 368 838 l 368 79 l 483 22 l 483 0 l 78 0 z "},"J":{"ha":576,"x_min":29,"x_max":499,"o":"m 74 -240 q 42 -231 56 -240 q 29 -201 29 -222 q 33 -173 29 -192 q 46 -108 36 -154 l 56 -108 q 90 -117 78 -114 q 119 -121 103 -121 q 167 -108 147 -121 q 198 -55 188 -96 q 208 69 208 -14 l 208 838 l 93 894 l 93 917 l 499 917 l 499 894 l 383 838 l 383 338 q 364 142 383 232 q 313 -18 344 51 q 243 -129 281 -87 q 153 -215 189 -189 q 74 -240 117 -240 z "},"K":{"ha":1044,"x_min":72,"x_max":1028,"o":"m 72 0 l 72 22 l 189 79 l 189 838 l 72 894 l 72 917 l 479 917 l 479 894 l 363 838 l 363 79 l 479 22 l 479 0 l 72 0 m 364 465 l 747 846 l 644 894 l 644 917 l 958 917 l 958 894 l 867 857 l 528 528 l 935 61 l 1028 22 l 1028 0 l 764 0 l 364 465 z "},"L":{"ha":892,"x_min":72,"x_max":810,"o":"m 72 0 l 72 22 l 189 79 l 189 838 l 72 894 l 72 917 l 493 917 l 493 894 l 363 838 l 363 76 l 682 76 l 788 326 l 810 326 l 810 0 l 72 0 z "},"M":{"ha":1361,"x_min":68,"x_max":1293,"o":"m 68 0 l 68 22 l 183 79 l 213 838 l 92 894 l 92 917 l 400 917 l 696 231 l 990 917 l 1286 917 l 1286 894 l 1168 847 l 1192 79 l 1293 22 l 1293 0 l 914 0 l 914 22 l 1022 78 l 1008 747 l 686 -7 l 614 -7 l 292 740 l 274 78 l 392 22 l 392 0 l 68 0 z "},"N":{"ha":1124,"x_min":68,"x_max":1056,"o":"m 68 0 l 68 22 l 183 79 l 183 836 l 69 894 l 69 917 l 308 917 l 844 283 l 844 840 l 694 894 l 694 917 l 1056 917 l 1056 894 l 942 839 l 942 -7 l 869 -7 l 281 685 l 281 78 l 432 22 l 432 0 l 68 0 z "},"O":{"ha":1106,"x_min":81,"x_max":1026,"o":"m 553 -14 q 365 22 451 -14 q 215 120 279 57 q 116 269 151 183 q 81 458 81 356 q 116 647 81 561 q 215 797 151 733 q 365 895 279 860 q 553 931 451 931 q 742 895 656 931 q 892 797 828 860 q 991 647 956 733 q 1026 458 1026 561 q 991 269 1026 356 q 892 120 956 183 q 742 22 828 57 q 553 -14 656 -14 m 578 57 q 715 101 656 57 q 807 226 774 146 q 840 417 840 307 q 799 651 840 551 q 688 806 758 751 q 532 861 618 861 q 395 817 456 861 q 300 693 335 774 q 265 503 265 613 q 307 268 265 368 q 420 113 349 168 q 578 57 492 57 z "},"P":{"ha":924,"x_min":72,"x_max":867,"o":"m 72 0 l 72 22 l 189 79 l 189 838 l 72 894 l 72 917 l 504 917 q 767 858 668 917 q 867 669 867 799 q 815 533 867 592 q 673 440 763 474 q 471 407 583 407 l 363 407 l 363 79 l 499 22 l 499 0 l 72 0 m 363 840 l 363 478 l 451 478 q 624 528 561 478 q 686 657 686 579 q 623 797 686 754 q 442 840 560 840 l 363 840 z "},"Q":{"ha":1106,"x_min":81,"x_max":1125,"o":"m 950 -212 q 825 -197 890 -212 q 681 -137 760 -181 q 497 -11 601 -93 q 281 65 375 1 q 134 231 188 129 q 81 458 81 332 q 116 647 81 561 q 215 797 151 733 q 365 895 279 860 q 553 931 451 931 q 742 895 656 931 q 892 797 828 860 q 991 647 956 733 q 1026 458 1026 561 q 985 258 1026 349 q 872 102 944 167 q 703 8 799 38 q 838 -92 779 -56 q 944 -144 897 -129 q 1035 -160 992 -160 q 1088 -156 1065 -160 q 1125 -146 1110 -151 l 1125 -175 q 1050 -201 1094 -190 q 950 -212 1006 -212 m 578 57 q 715 101 656 57 q 807 226 774 146 q 840 417 840 307 q 799 651 840 551 q 688 806 758 751 q 532 861 618 861 q 395 817 456 861 q 300 693 335 774 q 265 503 265 613 q 307 268 265 368 q 420 113 349 168 q 578 57 492 57 z "},"R":{"ha":972,"x_min":72,"x_max":982,"o":"m 72 0 l 72 22 l 189 79 l 189 838 l 72 894 l 72 917 l 500 917 q 730 856 646 917 q 814 690 814 796 q 762 555 814 613 q 625 465 710 497 l 885 75 l 982 22 l 982 0 l 722 0 l 460 424 l 363 424 l 363 81 l 467 22 l 467 0 l 72 0 m 433 840 l 363 840 l 363 494 l 442 494 q 581 543 528 494 q 635 669 635 592 q 582 795 635 750 q 433 840 529 840 z "},"S":{"ha":771,"x_min":72,"x_max":700,"o":"m 372 -14 q 217 3 283 -14 q 86 54 151 21 l 72 286 l 97 286 l 182 126 q 363 56 268 56 q 488 94 440 56 q 535 203 535 132 q 510 288 535 256 q 436 348 486 321 q 306 411 386 375 q 156 513 208 458 q 103 661 103 568 q 129 763 103 714 q 199 849 156 811 q 298 908 243 886 q 411 931 353 931 q 541 915 481 931 q 657 869 601 899 l 671 647 l 647 647 l 563 800 q 488 846 522 831 q 408 861 453 861 q 312 822 350 861 q 274 724 274 783 q 315 623 274 661 q 454 539 357 585 q 593 463 539 500 q 674 378 647 425 q 700 261 700 331 q 672 144 700 194 q 595 58 643 93 q 489 4 547 22 q 372 -14 431 -14 z "},"T":{"ha":958,"x_min":56,"x_max":903,"o":"m 247 0 l 247 22 l 392 79 l 392 840 l 182 840 l 78 622 l 56 622 l 56 917 l 903 917 l 903 622 l 881 622 l 776 840 l 567 840 l 567 79 l 710 22 l 710 0 l 247 0 z "},"U":{"ha":1147,"x_min":72,"x_max":1074,"o":"m 578 -14 q 376 25 464 -14 q 239 150 289 64 q 189 378 189 236 l 189 838 l 72 894 l 72 917 l 479 917 l 479 894 l 364 838 l 364 386 q 400 205 364 272 q 497 109 436 138 q 632 81 557 81 q 745 106 693 81 q 829 188 797 132 q 861 338 861 244 l 861 840 l 728 894 l 728 917 l 1074 917 l 1074 894 l 958 839 l 958 378 q 910 150 958 236 q 775 25 861 64 q 578 -14 689 -14 z "},"V":{"ha":1047,"x_min":36,"x_max":1011,"o":"m 494 -7 l 133 843 l 36 894 l 36 917 l 433 917 l 433 894 l 317 840 l 571 242 l 578 242 l 831 843 l 715 894 l 715 917 l 1011 917 l 1011 894 l 932 851 l 563 -7 l 494 -7 z "},"W":{"ha":1413,"x_min":18,"x_max":1394,"o":"m 386 -7 l 124 842 l 18 894 l 18 917 l 421 917 l 421 894 l 304 842 l 469 281 l 475 281 l 717 924 l 786 924 l 1029 281 l 1036 281 l 1201 842 l 1083 894 l 1083 917 l 1394 917 l 1394 894 l 1301 846 l 1035 -7 l 967 -7 l 717 636 l 708 636 l 453 -7 l 386 -7 z "},"X":{"ha":1061,"x_min":42,"x_max":1019,"o":"m 42 0 l 42 22 l 149 76 l 439 442 l 150 844 l 60 894 l 60 917 l 472 917 l 472 894 l 363 842 l 363 835 l 564 561 l 782 835 l 782 840 l 675 894 l 675 917 l 986 917 l 986 894 l 897 846 l 614 494 l 921 78 l 1019 22 l 1019 0 l 600 0 l 600 22 l 700 74 l 700 79 l 486 375 l 256 81 l 254 75 l 367 22 l 367 0 l 42 0 z "},"Y":{"ha":1026,"x_min":36,"x_max":990,"o":"m 307 0 l 307 22 l 432 79 l 432 428 l 126 844 l 36 894 l 36 917 l 428 917 l 428 894 l 324 844 l 324 839 l 568 507 l 789 836 l 789 842 l 683 894 l 683 917 l 990 917 l 990 894 l 901 849 l 607 429 l 607 79 l 731 22 l 731 0 l 307 0 z "},"Z":{"ha":942,"x_min":119,"x_max":822,"o":"m 119 0 l 119 40 l 593 840 l 256 840 l 158 646 l 136 646 l 136 917 l 807 917 l 807 876 l 332 76 l 700 76 l 800 285 l 822 285 l 822 0 l 119 0 z "},"À":{"ha":1061,"x_min":35,"x_max":1028,"o":"m 35 0 l 35 22 l 121 69 l 481 924 l 578 924 l 933 72 l 1028 22 l 1028 0 l 628 0 l 628 22 l 749 71 l 650 313 l 317 313 l 219 71 l 335 22 l 335 0 l 35 0 m 349 389 l 618 389 l 483 721 l 349 389 m 518 986 l 339 1104 q 297 1150 307 1126 q 288 1197 288 1174 l 425 1197 l 542 986 l 518 986 z "},"Á":{"ha":1061,"x_min":35,"x_max":1028,"o":"m 35 0 l 35 22 l 121 69 l 481 924 l 578 924 l 933 72 l 1028 22 l 1028 0 l 628 0 l 628 22 l 749 71 l 650 313 l 317 313 l 219 71 l 335 22 l 335 0 l 35 0 m 349 389 l 618 389 l 483 721 l 349 389 m 518 986 l 636 1197 l 772 1197 q 763 1150 772 1174 q 721 1104 753 1126 l 543 986 l 518 986 z "},"Â":{"ha":1061,"x_min":35,"x_max":1028,"o":"m 35 0 l 35 22 l 121 69 l 481 924 l 578 924 l 933 72 l 1028 22 l 1028 0 l 628 0 l 628 22 l 749 71 l 650 313 l 317 313 l 219 71 l 335 22 l 335 0 l 35 0 m 349 389 l 618 389 l 483 721 l 349 389 m 317 986 l 503 1197 l 558 1197 l 744 986 l 721 986 l 531 1081 l 340 986 l 317 986 z "},"Ã":{"ha":1061,"x_min":35,"x_max":1028,"o":"m 35 0 l 35 22 l 121 69 l 481 924 l 578 924 l 933 72 l 1028 22 l 1028 0 l 628 0 l 628 22 l 749 71 l 650 313 l 317 313 l 219 71 l 335 22 l 335 0 l 35 0 m 349 389 l 618 389 l 483 721 l 349 389 m 308 1006 q 352 1111 331 1075 q 397 1160 374 1147 q 449 1174 419 1174 q 520 1155 488 1174 q 583 1118 553 1136 q 644 1100 614 1100 q 689 1114 669 1100 q 726 1174 708 1128 l 753 1174 q 709 1067 731 1103 q 665 1018 688 1031 q 613 1006 642 1006 q 541 1024 574 1006 q 478 1060 508 1042 q 417 1078 447 1078 q 372 1065 392 1078 q 335 1006 353 1051 l 308 1006 z "},"Ä":{"ha":1061,"x_min":35,"x_max":1028,"o":"m 35 0 l 35 22 l 121 69 l 481 924 l 578 924 l 933 72 l 1028 22 l 1028 0 l 628 0 l 628 22 l 749 71 l 650 313 l 317 313 l 219 71 l 335 22 l 335 0 l 35 0 m 349 389 l 618 389 l 483 721 l 349 389 m 397 1015 q 342 1038 364 1015 q 321 1092 321 1060 q 342 1144 321 1122 q 397 1167 364 1167 q 451 1144 429 1167 q 472 1092 472 1122 q 451 1038 472 1060 q 397 1015 429 1015 m 664 1015 q 610 1038 631 1015 q 589 1092 589 1060 q 610 1144 589 1122 q 664 1167 631 1167 q 718 1144 697 1167 q 739 1092 739 1122 q 718 1038 739 1060 q 664 1015 697 1015 z "},"Ā":{"ha":1061,"x_min":35,"x_max":1028,"o":"m 35 0 l 35 22 l 121 69 l 481 924 l 578 924 l 933 72 l 1028 22 l 1028 0 l 628 0 l 628 22 l 749 71 l 650 313 l 317 313 l 219 71 l 335 22 l 335 0 l 35 0 m 349 389 l 618 389 l 483 721 l 349 389 m 336 1056 l 336 1132 l 725 1132 l 725 1056 l 336 1056 z "},"Ă":{"ha":1061,"x_min":35,"x_max":1028,"o":"m 35 0 l 35 22 l 121 69 l 481 924 l 578 924 l 933 72 l 1028 22 l 1028 0 l 628 0 l 628 22 l 749 71 l 650 313 l 317 313 l 219 71 l 335 22 l 335 0 l 35 0 m 349 389 l 618 389 l 483 721 l 349 389 m 531 986 q 388 1041 435 986 q 317 1197 340 1096 l 340 1197 q 418 1108 375 1128 q 531 1088 461 1088 q 642 1108 600 1088 q 721 1197 685 1128 l 744 1197 q 670 1041 719 1096 q 531 986 621 986 z "},"Å":{"ha":1061,"x_min":35,"x_max":1028,"o":"m 35 0 l 35 22 l 121 69 l 481 924 l 578 924 l 933 72 l 1028 22 l 1028 0 l 628 0 l 628 22 l 749 71 l 650 313 l 317 313 l 219 71 l 335 22 l 335 0 l 35 0 m 349 389 l 618 389 l 483 721 l 349 389 m 531 986 q 442 1019 476 986 q 408 1103 408 1051 q 442 1186 408 1153 q 531 1219 476 1219 q 619 1186 585 1219 q 653 1103 653 1153 q 619 1019 653 1053 q 531 986 586 986 m 538 1019 q 581 1093 581 1019 q 525 1186 581 1186 q 482 1113 482 1186 q 538 1019 482 1019 z "},"Ǻ":{"ha":1061,"x_min":35,"x_max":1028,"o":"m 35 0 l 35 22 l 121 69 l 481 924 l 578 924 l 933 72 l 1028 22 l 1028 0 l 628 0 l 628 22 l 749 71 l 650 313 l 317 313 l 219 71 l 335 22 l 335 0 l 35 0 m 349 389 l 618 389 l 483 721 l 349 389 m 531 986 q 442 1019 476 986 q 408 1103 408 1051 q 442 1186 408 1153 q 531 1219 476 1219 q 619 1186 585 1219 q 653 1103 653 1153 q 619 1019 653 1053 q 531 986 586 986 m 538 1019 q 581 1093 581 1019 q 525 1186 581 1186 q 482 1113 482 1186 q 538 1019 482 1019 m 518 1257 l 636 1468 l 772 1468 q 763 1421 772 1444 q 721 1375 753 1397 l 543 1257 l 518 1257 z "},"Ạ":{"ha":1061,"x_min":35,"x_max":1028,"o":"m 35 0 l 35 22 l 121 69 l 481 924 l 578 924 l 933 72 l 1028 22 l 1028 0 l 628 0 l 628 22 l 749 71 l 650 313 l 317 313 l 219 71 l 335 22 l 335 0 l 35 0 m 349 389 l 618 389 l 483 721 l 349 389 z "},"Ą":{"ha":1061,"x_min":35,"x_max":1028,"o":"m 817 -178 q 900 -265 817 -265 q 935 -260 917 -265 q 968 -246 953 -256 l 972 -246 l 972 -267 q 924 -315 954 -297 q 851 -333 893 -333 q 751 -300 789 -333 q 713 -210 713 -267 q 745 -109 713 -160 q 832 0 778 -58 l 628 0 l 628 22 l 749 71 l 650 313 l 317 313 l 219 71 l 335 22 l 335 0 l 35 0 l 35 22 l 121 69 l 481 924 l 578 924 l 933 74 l 1028 22 l 1028 0 l 876 0 q 817 -178 817 -97 m 349 389 l 618 389 l 483 721 l 349 389 z "},"Ȁ":{"ha":1061,"x_min":35,"x_max":1028,"o":"m 35 0 l 35 22 l 121 69 l 481 924 l 578 924 l 933 72 l 1028 22 l 1028 0 l 628 0 l 628 22 l 749 71 l 650 313 l 317 313 l 219 71 l 335 22 l 335 0 l 35 0 m 349 389 l 618 389 l 483 721 l 349 389 m 428 986 l 278 1110 q 253 1153 253 1129 q 261 1197 254 1176 l 364 1197 l 451 986 l 428 986 m 606 986 l 474 1110 q 450 1154 450 1132 q 457 1197 450 1176 l 560 1197 l 631 986 l 606 986 z "},"Ȃ":{"ha":1061,"x_min":35,"x_max":1028,"o":"m 35 0 l 35 22 l 121 69 l 481 924 l 578 924 l 933 72 l 1028 22 l 1028 0 l 628 0 l 628 22 l 749 71 l 650 313 l 317 313 l 219 71 l 335 22 l 335 0 l 35 0 m 349 389 l 618 389 l 483 721 l 349 389 m 317 986 q 391 1142 342 1088 q 531 1197 440 1197 q 674 1142 626 1197 q 744 986 721 1088 l 721 986 q 643 1076 686 1056 q 531 1096 600 1096 q 419 1076 461 1096 q 340 986 376 1056 l 317 986 z "},"Ắ":{"ha":1061,"x_min":35,"x_max":1028,"o":"m 35 0 l 35 22 l 121 69 l 481 924 l 578 924 l 933 72 l 1028 22 l 1028 0 l 628 0 l 628 22 l 749 71 l 650 313 l 317 313 l 219 71 l 335 22 l 335 0 l 35 0 m 349 389 l 618 389 l 483 721 l 349 389 z "},"Ặ":{"ha":1061,"x_min":35,"x_max":1028,"o":"m 35 0 l 35 22 l 121 69 l 481 924 l 578 924 l 933 72 l 1028 22 l 1028 0 l 628 0 l 628 22 l 749 71 l 650 313 l 317 313 l 219 71 l 335 22 l 335 0 l 35 0 m 349 389 l 618 389 l 483 721 l 349 389 m 531 986 q 388 1041 435 986 q 317 1197 340 1096 l 340 1197 q 418 1108 375 1128 q 531 1088 461 1088 q 642 1108 600 1088 q 721 1197 685 1128 l 744 1197 q 670 1041 719 1096 q 531 986 621 986 z "},"Ằ":{"ha":1061,"x_min":35,"x_max":1028,"o":"m 35 0 l 35 22 l 121 69 l 481 924 l 578 924 l 933 72 l 1028 22 l 1028 0 l 628 0 l 628 22 l 749 71 l 650 313 l 317 313 l 219 71 l 335 22 l 335 0 l 35 0 m 349 389 l 618 389 l 483 721 l 349 389 z "},"Ẳ":{"ha":1061,"x_min":35,"x_max":1028,"o":"m 35 0 l 35 22 l 121 69 l 481 924 l 578 924 l 933 72 l 1028 22 l 1028 0 l 628 0 l 628 22 l 749 71 l 650 313 l 317 313 l 219 71 l 335 22 l 335 0 l 35 0 m 349 389 l 618 389 l 483 721 l 349 389 z "},"Ẵ":{"ha":1061,"x_min":35,"x_max":1028,"o":"m 35 0 l 35 22 l 121 69 l 481 924 l 578 924 l 933 72 l 1028 22 l 1028 0 l 628 0 l 628 22 l 749 71 l 650 313 l 317 313 l 219 71 l 335 22 l 335 0 l 35 0 m 349 389 l 618 389 l 483 721 l 349 389 z "},"Ấ":{"ha":1061,"x_min":35,"x_max":1028,"o":"m 35 0 l 35 22 l 121 69 l 481 924 l 578 924 l 933 72 l 1028 22 l 1028 0 l 628 0 l 628 22 l 749 71 l 650 313 l 317 313 l 219 71 l 335 22 l 335 0 l 35 0 m 349 389 l 618 389 l 483 721 l 349 389 m 686 1118 l 743 1317 l 869 1317 q 828 1239 869 1279 l 707 1118 l 686 1118 m 317 986 l 503 1197 l 558 1197 l 744 986 l 721 986 l 531 1081 l 340 986 l 317 986 z "},"Ậ":{"ha":1061,"x_min":35,"x_max":1028,"o":"m 35 0 l 35 22 l 121 69 l 481 924 l 578 924 l 933 72 l 1028 22 l 1028 0 l 628 0 l 628 22 l 749 71 l 650 313 l 317 313 l 219 71 l 335 22 l 335 0 l 35 0 m 349 389 l 618 389 l 483 721 l 349 389 m 317 986 l 503 1197 l 558 1197 l 744 986 l 721 986 l 531 1081 l 340 986 l 317 986 z "},"Ầ":{"ha":1061,"x_min":35,"x_max":1028,"o":"m 35 0 l 35 22 l 121 69 l 481 924 l 578 924 l 933 72 l 1028 22 l 1028 0 l 628 0 l 628 22 l 749 71 l 650 313 l 317 313 l 219 71 l 335 22 l 335 0 l 35 0 m 349 389 l 618 389 l 483 721 l 349 389 m 354 1118 l 233 1239 q 201 1278 211 1260 q 192 1317 192 1296 l 318 1317 l 375 1118 l 354 1118 m 317 986 l 503 1197 l 558 1197 l 744 986 l 721 986 l 531 1081 l 340 986 l 317 986 z "},"Ẩ":{"ha":1061,"x_min":35,"x_max":1028,"o":"m 35 0 l 35 22 l 121 69 l 481 924 l 578 924 l 933 72 l 1028 22 l 1028 0 l 628 0 l 628 22 l 749 71 l 650 313 l 317 313 l 219 71 l 335 22 l 335 0 l 35 0 m 349 389 l 618 389 l 483 721 l 349 389 z "},"Ẫ":{"ha":1061,"x_min":35,"x_max":1028,"o":"m 35 0 l 35 22 l 121 69 l 481 924 l 578 924 l 933 72 l 1028 22 l 1028 0 l 628 0 l 628 22 l 749 71 l 650 313 l 317 313 l 219 71 l 335 22 l 335 0 l 35 0 m 349 389 l 618 389 l 483 721 l 349 389 z "},"Ả":{"ha":1061,"x_min":35,"x_max":1028,"o":"m 35 0 l 35 22 l 121 69 l 481 924 l 578 924 l 933 72 l 1028 22 l 1028 0 l 628 0 l 628 22 l 749 71 l 650 313 l 317 313 l 219 71 l 335 22 l 335 0 l 35 0 m 349 389 l 618 389 l 483 721 l 349 389 m 464 986 l 464 988 q 531 1019 508 1004 q 554 1064 554 1035 q 531 1101 554 1086 q 450 1126 508 1117 l 468 1215 q 600 1173 563 1207 q 638 1103 638 1139 q 597 1017 638 1047 q 475 975 556 986 l 464 986 z "},"Æ":{"ha":1403,"x_min":31,"x_max":1310,"o":"m 644 917 l 1271 917 l 1271 676 l 1249 676 l 1153 840 l 836 840 l 836 511 l 1058 511 l 1133 629 l 1156 629 l 1156 319 l 1133 319 l 1058 435 l 836 435 l 836 76 l 1188 76 l 1288 271 l 1310 271 l 1310 0 l 546 0 l 546 22 l 661 79 l 661 322 l 372 322 l 219 71 l 329 22 l 329 0 l 31 0 l 31 22 l 119 69 l 644 917 m 419 399 l 661 399 l 661 794 l 419 399 z "},"Ǽ":{"ha":1403,"x_min":31,"x_max":1310,"o":"m 644 917 l 1271 917 l 1271 676 l 1249 676 l 1153 840 l 836 840 l 836 511 l 1058 511 l 1133 629 l 1156 629 l 1156 319 l 1133 319 l 1058 435 l 836 435 l 836 76 l 1188 76 l 1288 271 l 1310 271 l 1310 0 l 546 0 l 546 22 l 661 79 l 661 322 l 372 322 l 219 71 l 329 22 l 329 0 l 31 0 l 31 22 l 119 69 l 644 917 m 419 399 l 661 399 l 661 794 l 419 399 m 753 986 l 871 1197 l 1007 1197 q 997 1150 1007 1174 q 956 1104 988 1126 l 778 986 l 753 986 z "},"Ć":{"ha":996,"x_min":81,"x_max":886,"o":"m 554 -14 q 303 44 410 -14 q 139 205 197 103 q 81 436 81 307 q 121 627 81 538 q 231 785 161 717 q 389 892 300 853 q 576 931 478 931 q 697 922 647 931 q 784 898 746 913 q 861 864 822 883 l 874 611 l 849 611 l 738 806 q 660 848 694 835 q 579 861 625 861 q 417 811 489 861 q 303 671 344 761 q 261 463 261 581 q 301 246 261 336 q 410 107 342 156 q 564 58 479 58 q 672 75 626 58 q 756 115 717 92 l 863 286 l 886 286 l 868 57 q 735 6 810 25 q 554 -14 661 -14 m 531 986 l 649 1197 l 785 1197 q 775 1150 785 1174 q 733 1104 765 1126 l 556 986 l 531 986 z "},"Ĉ":{"ha":996,"x_min":81,"x_max":886,"o":"m 554 -14 q 303 44 410 -14 q 139 205 197 103 q 81 436 81 307 q 121 627 81 538 q 231 785 161 717 q 389 892 300 853 q 576 931 478 931 q 697 922 647 931 q 784 898 746 913 q 861 864 822 883 l 874 611 l 849 611 l 738 806 q 660 848 694 835 q 579 861 625 861 q 417 811 489 861 q 303 671 344 761 q 261 463 261 581 q 301 246 261 336 q 410 107 342 156 q 564 58 479 58 q 672 75 626 58 q 756 115 717 92 l 863 286 l 886 286 l 868 57 q 735 6 810 25 q 554 -14 661 -14 m 328 986 l 514 1197 l 569 1197 l 756 986 l 732 986 l 542 1081 l 351 986 l 328 986 z "},"Č":{"ha":996,"x_min":81,"x_max":886,"o":"m 554 -14 q 303 44 410 -14 q 139 205 197 103 q 81 436 81 307 q 121 627 81 538 q 231 785 161 717 q 389 892 300 853 q 576 931 478 931 q 697 922 647 931 q 784 898 746 913 q 861 864 822 883 l 874 611 l 849 611 l 738 806 q 660 848 694 835 q 579 861 625 861 q 417 811 489 861 q 303 671 344 761 q 261 463 261 581 q 301 246 261 336 q 410 107 342 156 q 564 58 479 58 q 672 75 626 58 q 756 115 717 92 l 863 286 l 886 286 l 868 57 q 735 6 810 25 q 554 -14 661 -14 m 514 986 l 328 1197 l 351 1197 l 542 1103 l 732 1197 l 756 1197 l 569 986 l 514 986 z "},"Ċ":{"ha":996,"x_min":81,"x_max":886,"o":"m 554 -14 q 303 44 410 -14 q 139 205 197 103 q 81 436 81 307 q 121 627 81 538 q 231 785 161 717 q 389 892 300 853 q 576 931 478 931 q 697 922 647 931 q 784 898 746 913 q 861 864 822 883 l 874 611 l 849 611 l 738 806 q 660 848 694 835 q 579 861 625 861 q 417 811 489 861 q 303 671 344 761 q 261 463 261 581 q 301 246 261 336 q 410 107 342 156 q 564 58 479 58 q 672 75 626 58 q 756 115 717 92 l 863 286 l 886 286 l 868 57 q 735 6 810 25 q 554 -14 661 -14 m 542 1004 q 475 1031 503 1004 q 447 1099 447 1058 q 475 1165 447 1139 q 542 1192 503 1192 q 608 1165 581 1192 q 636 1099 636 1139 q 608 1031 636 1058 q 542 1004 581 1004 z "},"Ç":{"ha":996,"x_min":81,"x_max":886,"o":"m 525 -290 q 583 -276 564 -290 q 601 -237 601 -261 q 573 -187 601 -207 q 464 -143 544 -167 l 524 -12 q 288 53 388 -7 q 135 213 189 114 q 81 436 81 311 q 121 627 81 538 q 231 785 161 717 q 389 892 300 853 q 576 931 478 931 q 697 922 647 931 q 784 898 746 913 q 861 864 822 883 l 874 611 l 849 611 l 738 806 q 660 848 694 835 q 579 861 625 861 q 417 811 489 861 q 303 671 344 761 q 261 463 261 581 q 301 246 261 336 q 410 107 342 156 q 564 58 479 58 q 672 75 626 58 q 756 115 717 92 l 863 286 l 886 286 l 868 57 q 742 7 813 26 q 574 -14 672 -12 l 550 -65 q 661 -122 629 -90 q 693 -210 693 -154 q 656 -298 693 -262 q 553 -333 618 -333 q 439 -297 476 -333 l 439 -275 l 443 -275 q 525 -290 475 -290 z "},"Ḉ":{"ha":996,"x_min":81,"x_max":886,"o":"m 531 986 l 647 1197 l 785 1197 q 775 1150 785 1174 q 733 1104 765 1126 l 554 986 l 531 986 m 553 -333 q 439 -297 476 -333 l 439 -275 l 443 -275 q 525 -290 475 -290 q 583 -276 564 -290 q 601 -237 601 -261 q 573 -187 601 -207 q 464 -143 544 -167 l 524 -12 q 288 53 388 -7 q 135 213 189 114 q 81 436 81 311 q 121 627 81 538 q 231 785 161 717 q 389 892 300 853 q 576 931 478 931 q 697 922 647 931 q 784 898 746 913 q 861 864 822 883 l 874 611 l 849 611 l 738 806 q 660 848 694 835 q 579 861 625 861 q 417 811 489 861 q 303 671 344 761 q 261 463 261 581 q 301 246 261 336 q 410 107 342 156 q 564 58 479 58 q 672 75 626 58 q 756 115 717 92 l 863 286 l 886 286 l 868 57 q 742 7 813 26 q 574 -14 672 -12 l 550 -65 q 661 -122 629 -90 q 693 -210 693 -154 q 656 -298 693 -262 q 553 -333 618 -333 z "},"Ď":{"ha":1099,"x_min":72,"x_max":1021,"o":"m 72 0 l 72 22 l 189 79 l 189 838 l 72 894 l 72 917 l 519 917 q 791 863 679 917 q 962 714 903 808 q 1021 500 1021 619 q 983 300 1021 392 q 876 142 944 208 q 713 38 807 75 q 510 0 619 0 l 72 0 m 472 840 l 363 840 l 363 76 l 493 76 q 680 123 603 76 q 798 255 757 169 q 839 457 839 340 q 745 736 839 632 q 472 840 651 840 m 514 986 l 328 1197 l 351 1197 l 542 1103 l 732 1197 l 756 1197 l 569 986 l 514 986 z "},"Đ":{"ha":1099,"x_min":72,"x_max":1021,"o":"m 72 0 l 72 22 l 189 79 l 189 439 l 72 439 l 72 511 l 189 511 l 189 838 l 72 894 l 72 917 l 519 917 q 791 863 679 917 q 962 714 903 808 q 1021 500 1021 619 q 983 300 1021 392 q 876 142 944 208 q 713 38 807 75 q 510 0 619 0 l 72 0 m 586 439 l 363 439 l 363 76 l 493 76 q 680 123 603 76 q 798 255 757 169 q 839 457 839 340 q 745 736 839 632 q 472 840 651 840 l 363 840 l 363 511 l 586 511 l 586 439 z "},"Ḍ":{"ha":1099,"x_min":72,"x_max":1021,"o":"m 72 0 l 72 22 l 189 79 l 189 838 l 72 894 l 72 917 l 519 917 q 791 863 679 917 q 962 714 903 808 q 1021 500 1021 619 q 983 300 1021 392 q 876 142 944 208 q 713 38 807 75 q 510 0 619 0 l 72 0 m 472 840 l 363 840 l 363 76 l 493 76 q 680 123 603 76 q 798 255 757 169 q 839 457 839 340 q 745 736 839 632 q 472 840 651 840 z "},"Ḏ":{"ha":1099,"x_min":72,"x_max":1021,"o":"m 72 0 l 72 22 l 189 79 l 189 838 l 72 894 l 72 917 l 519 917 q 791 863 679 917 q 962 714 903 808 q 1021 500 1021 619 q 983 300 1021 392 q 876 142 944 208 q 713 38 807 75 q 510 0 619 0 l 72 0 m 472 840 l 363 840 l 363 76 l 493 76 q 680 123 603 76 q 798 255 757 169 q 839 457 839 340 q 745 736 839 632 q 472 840 651 840 z "},"È":{"ha":929,"x_min":72,"x_max":838,"o":"m 72 0 l 72 22 l 189 79 l 189 838 l 72 894 l 72 917 l 799 917 l 799 676 l 776 676 l 681 840 l 363 840 l 363 511 l 586 511 l 661 629 l 683 629 l 683 319 l 661 319 l 586 435 l 363 435 l 363 76 l 715 76 l 815 271 l 838 271 l 838 0 l 72 0 m 468 986 l 289 1104 q 247 1150 257 1126 q 238 1197 238 1174 l 375 1197 l 492 986 l 468 986 z "},"É":{"ha":929,"x_min":72,"x_max":838,"o":"m 72 0 l 72 22 l 189 79 l 189 838 l 72 894 l 72 917 l 799 917 l 799 676 l 776 676 l 681 840 l 363 840 l 363 511 l 586 511 l 661 629 l 683 629 l 683 319 l 661 319 l 586 435 l 363 435 l 363 76 l 715 76 l 815 271 l 838 271 l 838 0 l 72 0 m 468 986 l 586 1197 l 722 1197 q 713 1150 722 1174 q 671 1104 703 1126 l 493 986 l 468 986 z "},"Ê":{"ha":929,"x_min":72,"x_max":838,"o":"m 72 0 l 72 22 l 189 79 l 189 838 l 72 894 l 72 917 l 799 917 l 799 676 l 776 676 l 681 840 l 363 840 l 363 511 l 586 511 l 661 629 l 683 629 l 683 319 l 661 319 l 586 435 l 363 435 l 363 76 l 715 76 l 815 271 l 838 271 l 838 0 l 72 0 m 267 986 l 453 1197 l 508 1197 l 694 986 l 671 986 l 481 1081 l 290 986 l 267 986 z "},"Ě":{"ha":929,"x_min":72,"x_max":838,"o":"m 72 0 l 72 22 l 189 79 l 189 838 l 72 894 l 72 917 l 799 917 l 799 676 l 776 676 l 681 840 l 363 840 l 363 511 l 586 511 l 661 629 l 683 629 l 683 319 l 661 319 l 586 435 l 363 435 l 363 76 l 715 76 l 815 271 l 838 271 l 838 0 l 72 0 m 453 986 l 267 1197 l 290 1197 l 481 1103 l 671 1197 l 694 1197 l 508 986 l 453 986 z "},"Ẽ":{"ha":929,"x_min":72,"x_max":838,"o":"m 72 0 l 72 22 l 189 79 l 189 838 l 72 894 l 72 917 l 799 917 l 799 676 l 776 676 l 681 840 l 363 840 l 363 511 l 586 511 l 661 629 l 683 629 l 683 319 l 661 319 l 586 435 l 363 435 l 363 76 l 715 76 l 815 271 l 838 271 l 838 0 l 72 0 m 258 1006 q 302 1111 281 1075 q 347 1160 324 1147 q 399 1174 369 1174 q 470 1155 438 1174 q 533 1118 503 1136 q 594 1100 564 1100 q 639 1114 619 1100 q 676 1174 658 1128 l 703 1174 q 659 1067 681 1103 q 615 1018 638 1031 q 563 1006 592 1006 q 491 1024 524 1006 q 428 1060 458 1042 q 367 1078 397 1078 q 322 1065 342 1078 q 285 1006 303 1051 l 258 1006 z "},"Ë":{"ha":929,"x_min":72,"x_max":838,"o":"m 72 0 l 72 22 l 189 79 l 189 838 l 72 894 l 72 917 l 799 917 l 799 676 l 776 676 l 681 840 l 363 840 l 363 511 l 586 511 l 661 629 l 683 629 l 683 319 l 661 319 l 586 435 l 363 435 l 363 76 l 715 76 l 815 271 l 838 271 l 838 0 l 72 0 m 347 1015 q 292 1038 314 1015 q 271 1092 271 1060 q 292 1144 271 1122 q 347 1167 314 1167 q 401 1144 379 1167 q 422 1092 422 1122 q 401 1038 422 1060 q 347 1015 379 1015 m 614 1015 q 560 1038 581 1015 q 539 1092 539 1060 q 560 1144 539 1122 q 614 1167 581 1167 q 668 1144 647 1167 q 689 1092 689 1122 q 668 1038 689 1060 q 614 1015 647 1015 z "},"Ē":{"ha":929,"x_min":72,"x_max":838,"o":"m 72 0 l 72 22 l 189 79 l 189 838 l 72 894 l 72 917 l 799 917 l 799 676 l 776 676 l 681 840 l 363 840 l 363 511 l 586 511 l 661 629 l 683 629 l 683 319 l 661 319 l 586 435 l 363 435 l 363 76 l 715 76 l 815 271 l 838 271 l 838 0 l 72 0 m 286 1056 l 286 1132 l 675 1132 l 675 1056 l 286 1056 z "},"Ĕ":{"ha":929,"x_min":72,"x_max":838,"o":"m 72 0 l 72 22 l 189 79 l 189 838 l 72 894 l 72 917 l 799 917 l 799 676 l 776 676 l 681 840 l 363 840 l 363 511 l 586 511 l 661 629 l 683 629 l 683 319 l 661 319 l 586 435 l 363 435 l 363 76 l 715 76 l 815 271 l 838 271 l 838 0 l 72 0 m 481 986 q 338 1041 385 986 q 267 1197 290 1096 l 290 1197 q 368 1108 325 1128 q 481 1088 411 1088 q 592 1108 550 1088 q 671 1197 635 1128 l 694 1197 q 620 1041 669 1096 q 481 986 571 986 z "},"Ė":{"ha":929,"x_min":72,"x_max":838,"o":"m 72 0 l 72 22 l 189 79 l 189 838 l 72 894 l 72 917 l 799 917 l 799 676 l 776 676 l 681 840 l 363 840 l 363 511 l 586 511 l 661 629 l 683 629 l 683 319 l 661 319 l 586 435 l 363 435 l 363 76 l 715 76 l 815 271 l 838 271 l 838 0 l 72 0 m 481 1004 q 414 1031 442 1004 q 386 1099 386 1058 q 414 1165 386 1139 q 481 1192 442 1192 q 547 1165 519 1192 q 575 1099 575 1139 q 547 1031 575 1058 q 481 1004 519 1004 z "},"Ę":{"ha":929,"x_min":72,"x_max":838,"o":"m 72 0 l 72 22 l 189 79 l 189 838 l 72 894 l 72 917 l 799 917 l 799 676 l 776 676 l 681 840 l 363 840 l 363 511 l 586 511 l 661 629 l 683 629 l 683 319 l 661 319 l 586 435 l 363 435 l 363 76 l 715 76 l 815 271 l 838 271 l 838 0 l 739 0 q 679 -178 679 -97 q 764 -265 679 -265 q 797 -260 779 -265 q 831 -246 815 -256 l 835 -246 l 835 -267 q 786 -315 817 -297 q 714 -333 756 -333 q 613 -300 651 -333 q 575 -210 575 -267 q 608 -109 575 -160 q 694 0 642 -58 l 72 0 z "},"Ẹ":{"ha":929,"x_min":72,"x_max":838,"o":"m 72 0 l 72 22 l 189 79 l 189 838 l 72 894 l 72 917 l 799 917 l 799 676 l 776 676 l 681 840 l 363 840 l 363 511 l 586 511 l 661 629 l 683 629 l 683 319 l 661 319 l 586 435 l 363 435 l 363 76 l 715 76 l 815 271 l 838 271 l 838 0 l 72 0 z "},"Ȅ":{"ha":929,"x_min":72,"x_max":838,"o":"m 72 0 l 72 22 l 189 79 l 189 838 l 72 894 l 72 917 l 799 917 l 799 676 l 776 676 l 681 840 l 363 840 l 363 511 l 586 511 l 661 629 l 683 629 l 683 319 l 661 319 l 586 435 l 363 435 l 363 76 l 715 76 l 815 271 l 838 271 l 838 0 l 72 0 m 379 986 l 229 1110 q 205 1153 204 1129 q 213 1197 206 1176 l 315 1197 l 403 986 l 379 986 m 557 986 l 425 1110 q 401 1154 401 1132 q 408 1197 401 1176 l 511 1197 l 582 986 l 557 986 z "},"Ȇ":{"ha":929,"x_min":72,"x_max":838,"o":"m 72 0 l 72 22 l 189 79 l 189 838 l 72 894 l 72 917 l 799 917 l 799 676 l 776 676 l 681 840 l 363 840 l 363 511 l 586 511 l 661 629 l 683 629 l 683 319 l 661 319 l 586 435 l 363 435 l 363 76 l 715 76 l 815 271 l 838 271 l 838 0 l 72 0 m 267 986 q 341 1142 292 1088 q 481 1197 390 1197 q 624 1142 576 1197 q 694 986 671 1088 l 671 986 q 593 1076 636 1056 q 481 1096 550 1096 q 369 1076 411 1096 q 290 986 326 1056 l 267 986 z "},"Ế":{"ha":929,"x_min":72,"x_max":838,"o":"m 72 0 l 72 22 l 189 79 l 189 838 l 72 894 l 72 917 l 799 917 l 799 676 l 776 676 l 681 840 l 363 840 l 363 511 l 586 511 l 661 629 l 683 629 l 683 319 l 661 319 l 586 435 l 363 435 l 363 76 l 715 76 l 815 271 l 838 271 l 838 0 l 72 0 m 636 1118 l 693 1317 l 819 1317 q 778 1239 819 1279 l 657 1118 l 636 1118 m 267 986 l 453 1197 l 508 1197 l 694 986 l 671 986 l 481 1081 l 290 986 l 267 986 z "},"Ệ":{"ha":929,"x_min":72,"x_max":838,"o":"m 72 0 l 72 22 l 189 79 l 189 838 l 72 894 l 72 917 l 799 917 l 799 676 l 776 676 l 681 840 l 363 840 l 363 511 l 586 511 l 661 629 l 683 629 l 683 319 l 661 319 l 586 435 l 363 435 l 363 76 l 715 76 l 815 271 l 838 271 l 838 0 l 72 0 m 267 986 l 453 1197 l 508 1197 l 694 986 l 671 986 l 481 1081 l 290 986 l 267 986 z "},"Ề":{"ha":929,"x_min":72,"x_max":838,"o":"m 72 0 l 72 22 l 189 79 l 189 838 l 72 894 l 72 917 l 799 917 l 799 676 l 776 676 l 681 840 l 363 840 l 363 511 l 586 511 l 661 629 l 683 629 l 683 319 l 661 319 l 586 435 l 363 435 l 363 76 l 715 76 l 815 271 l 838 271 l 838 0 l 72 0 m 304 1118 l 183 1239 q 151 1278 161 1260 q 142 1317 142 1296 l 268 1317 l 325 1118 l 304 1118 m 267 986 l 453 1197 l 508 1197 l 694 986 l 671 986 l 481 1081 l 290 986 l 267 986 z "},"Ể":{"ha":929,"x_min":72,"x_max":838,"o":"m 72 0 l 72 22 l 189 79 l 189 838 l 72 894 l 72 917 l 799 917 l 799 676 l 776 676 l 681 840 l 363 840 l 363 511 l 586 511 l 661 629 l 683 629 l 683 319 l 661 319 l 586 435 l 363 435 l 363 76 l 715 76 l 815 271 l 838 271 l 838 0 l 72 0 z "},"Ễ":{"ha":929,"x_min":72,"x_max":838,"o":"m 72 0 l 72 22 l 189 79 l 189 838 l 72 894 l 72 917 l 799 917 l 799 676 l 776 676 l 681 840 l 363 840 l 363 511 l 586 511 l 661 629 l 683 629 l 683 319 l 661 319 l 586 435 l 363 435 l 363 76 l 715 76 l 815 271 l 838 271 l 838 0 l 72 0 z "},"Ẻ":{"ha":929,"x_min":72,"x_max":838,"o":"m 72 0 l 72 22 l 189 79 l 189 838 l 72 894 l 72 917 l 799 917 l 799 676 l 776 676 l 681 840 l 363 840 l 363 511 l 586 511 l 661 629 l 683 629 l 683 319 l 661 319 l 586 435 l 363 435 l 363 76 l 715 76 l 815 271 l 838 271 l 838 0 l 72 0 m 414 986 l 414 988 q 481 1019 458 1004 q 504 1064 504 1035 q 481 1101 504 1086 q 400 1126 458 1117 l 418 1215 q 550 1173 513 1207 q 588 1103 588 1139 q 547 1017 588 1047 q 425 975 506 986 l 414 986 z "},"Ḕ":{"ha":929,"x_min":72,"x_max":838,"o":"m 72 0 l 72 22 l 189 79 l 189 838 l 72 894 l 72 917 l 799 917 l 799 676 l 776 676 l 681 840 l 363 840 l 363 511 l 586 511 l 661 629 l 683 629 l 683 319 l 661 319 l 586 435 l 363 435 l 363 76 l 715 76 l 815 271 l 838 271 l 838 0 l 72 0 z "},"Ḗ":{"ha":929,"x_min":72,"x_max":838,"o":"m 72 0 l 72 22 l 189 79 l 189 838 l 72 894 l 72 917 l 799 917 l 799 676 l 776 676 l 681 840 l 363 840 l 363 511 l 586 511 l 661 629 l 683 629 l 683 319 l 661 319 l 586 435 l 363 435 l 363 76 l 715 76 l 815 271 l 838 271 l 838 0 l 72 0 z "},"Ḝ":{"ha":929,"x_min":72,"x_max":838,"o":"m 481 986 q 338 1041 385 986 q 267 1197 290 1096 l 290 1197 q 368 1108 325 1128 q 481 1088 411 1088 q 592 1108 550 1088 q 671 1197 635 1128 l 694 1197 q 620 1041 669 1096 q 481 986 571 986 m 72 0 l 72 22 l 189 79 l 189 838 l 72 894 l 72 917 l 799 917 l 799 676 l 776 676 l 681 840 l 363 840 l 363 511 l 586 511 l 661 629 l 683 629 l 683 319 l 661 319 l 586 435 l 363 435 l 363 76 l 715 76 l 815 271 l 838 271 l 838 0 l 521 0 l 490 -65 q 601 -122 569 -90 q 633 -210 633 -154 q 596 -298 633 -262 q 493 -333 558 -333 q 379 -297 417 -333 l 379 -275 l 383 -275 q 467 -290 415 -290 q 524 -276 506 -290 q 542 -237 542 -261 q 514 -187 542 -207 q 404 -143 486 -167 l 469 0 l 72 0 z "},"Ĝ":{"ha":1057,"x_min":81,"x_max":1004,"o":"m 553 -14 q 367 19 453 -14 q 217 114 281 53 q 117 257 153 175 q 81 436 81 339 q 122 633 81 543 q 233 790 163 724 q 397 894 304 857 q 592 931 489 931 q 717 922 665 931 q 810 899 769 914 q 892 864 851 883 l 903 626 l 879 626 l 765 807 q 681 850 718 838 q 594 863 643 863 q 424 814 500 863 q 303 679 347 765 q 258 481 258 593 q 303 257 258 350 q 424 114 349 164 q 593 64 500 64 q 660 67 625 64 q 729 81 694 71 l 729 328 l 606 389 l 606 411 l 1004 411 l 1004 389 l 903 325 l 903 103 q 801 41 861 67 q 677 1 742 15 q 553 -14 613 -14 m 344 986 l 531 1197 l 586 1197 l 772 986 l 749 986 l 558 1081 l 368 986 l 344 986 z "},"Ğ":{"ha":1057,"x_min":81,"x_max":1004,"o":"m 553 -14 q 367 19 453 -14 q 217 114 281 53 q 117 257 153 175 q 81 436 81 339 q 122 633 81 543 q 233 790 163 724 q 397 894 304 857 q 592 931 489 931 q 717 922 665 931 q 810 899 769 914 q 892 864 851 883 l 903 626 l 879 626 l 765 807 q 681 850 718 838 q 594 863 643 863 q 424 814 500 863 q 303 679 347 765 q 258 481 258 593 q 303 257 258 350 q 424 114 349 164 q 593 64 500 64 q 660 67 625 64 q 729 81 694 71 l 729 328 l 606 389 l 606 411 l 1004 411 l 1004 389 l 903 325 l 903 103 q 801 41 861 67 q 677 1 742 15 q 553 -14 613 -14 m 558 986 q 415 1041 463 986 q 344 1197 368 1096 l 368 1197 q 446 1108 403 1128 q 558 1088 489 1088 q 670 1108 628 1088 q 749 1197 713 1128 l 772 1197 q 698 1041 747 1096 q 558 986 649 986 z "},"Ġ":{"ha":1057,"x_min":81,"x_max":1004,"o":"m 553 -14 q 367 19 453 -14 q 217 114 281 53 q 117 257 153 175 q 81 436 81 339 q 122 633 81 543 q 233 790 163 724 q 397 894 304 857 q 592 931 489 931 q 717 922 665 931 q 810 899 769 914 q 892 864 851 883 l 903 626 l 879 626 l 765 807 q 681 850 718 838 q 594 863 643 863 q 424 814 500 863 q 303 679 347 765 q 258 481 258 593 q 303 257 258 350 q 424 114 349 164 q 593 64 500 64 q 660 67 625 64 q 729 81 694 71 l 729 328 l 606 389 l 606 411 l 1004 411 l 1004 389 l 903 325 l 903 103 q 801 41 861 67 q 677 1 742 15 q 553 -14 613 -14 m 558 1004 q 492 1031 519 1004 q 464 1099 464 1058 q 492 1165 464 1139 q 558 1192 519 1192 q 625 1165 597 1192 q 653 1099 653 1139 q 625 1031 653 1058 q 558 1004 597 1004 z "},"Ģ":{"ha":1057,"x_min":81,"x_max":1004,"o":"m 553 -14 q 367 19 453 -14 q 217 114 281 53 q 117 257 153 175 q 81 436 81 339 q 122 633 81 543 q 233 790 163 724 q 397 894 304 857 q 592 931 489 931 q 717 922 665 931 q 810 899 769 914 q 892 864 851 883 l 903 626 l 879 626 l 765 807 q 681 850 718 838 q 594 863 643 863 q 424 814 500 863 q 303 679 347 765 q 258 481 258 593 q 303 257 258 350 q 424 114 349 164 q 593 64 500 64 q 660 67 625 64 q 729 81 694 71 l 729 328 l 606 389 l 606 411 l 1004 411 l 1004 389 l 903 325 l 903 103 q 801 41 861 67 q 677 1 742 15 q 553 -14 613 -14 m 592 986 q 483 1015 519 986 q 446 1096 446 1044 q 489 1182 446 1153 q 600 1211 532 1211 q 624 1210 611 1211 q 647 1207 636 1208 l 647 1183 q 627 1187 638 1186 q 610 1188 617 1188 q 556 1175 575 1188 q 536 1138 536 1163 q 563 1094 536 1106 q 647 1083 590 1083 l 647 1015 q 635 994 647 1003 q 592 986 624 986 z "},"Ǧ":{"ha":1057,"x_min":81,"x_max":1004,"o":"m 553 -14 q 367 19 453 -14 q 217 114 281 53 q 117 257 153 175 q 81 436 81 339 q 122 633 81 543 q 233 790 163 724 q 397 894 304 857 q 592 931 489 931 q 717 922 665 931 q 810 899 769 914 q 892 864 851 883 l 903 626 l 879 626 l 765 807 q 681 850 718 838 q 594 863 643 863 q 424 814 500 863 q 303 679 347 765 q 258 481 258 593 q 303 257 258 350 q 424 114 349 164 q 593 64 500 64 q 660 67 625 64 q 729 81 694 71 l 729 328 l 606 389 l 606 411 l 1004 411 l 1004 389 l 903 325 l 903 103 q 801 41 861 67 q 677 1 742 15 q 553 -14 613 -14 m 531 986 l 344 1197 l 368 1197 l 558 1103 l 749 1197 l 772 1197 l 586 986 l 531 986 z "},"Ḡ":{"ha":1057,"x_min":81,"x_max":1004,"o":"m 553 -14 q 367 19 453 -14 q 217 114 281 53 q 117 257 153 175 q 81 436 81 339 q 122 633 81 543 q 233 790 163 724 q 397 894 304 857 q 592 931 489 931 q 717 922 665 931 q 810 899 769 914 q 892 864 851 883 l 903 626 l 879 626 l 765 807 q 681 850 718 838 q 594 863 643 863 q 424 814 500 863 q 303 679 347 765 q 258 481 258 593 q 303 257 258 350 q 424 114 349 164 q 593 64 500 64 q 660 67 625 64 q 729 81 694 71 l 729 328 l 606 389 l 606 411 l 1004 411 l 1004 389 l 903 325 l 903 103 q 801 41 861 67 q 677 1 742 15 q 553 -14 613 -14 m 364 1056 l 364 1132 l 753 1132 l 753 1056 l 364 1056 z "},"Ĥ":{"ha":1146,"x_min":72,"x_max":1072,"o":"m 72 0 l 72 22 l 189 79 l 189 838 l 72 894 l 72 917 l 472 917 l 472 894 l 363 838 l 363 511 l 783 511 l 783 838 l 674 894 l 674 917 l 1072 917 l 1072 894 l 958 838 l 958 79 l 1072 22 l 1072 0 l 674 0 l 674 22 l 783 79 l 783 435 l 363 435 l 363 79 l 472 22 l 472 0 l 72 0 m 358 986 l 544 1197 l 600 1197 l 786 986 l 763 986 l 572 1081 l 382 986 l 358 986 z "},"Ħ":{"ha":1146,"x_min":72,"x_max":1072,"o":"m 72 0 l 72 22 l 189 79 l 189 653 l 72 653 l 72 724 l 189 724 l 189 838 l 72 894 l 72 917 l 472 917 l 472 894 l 363 838 l 363 724 l 783 724 l 783 838 l 674 894 l 674 917 l 1072 917 l 1072 894 l 958 838 l 958 724 l 1072 724 l 1072 653 l 958 653 l 958 79 l 1072 22 l 1072 0 l 674 0 l 674 22 l 783 79 l 783 435 l 363 435 l 363 79 l 472 22 l 472 0 l 72 0 m 363 511 l 783 511 l 783 653 l 363 653 l 363 511 z "},"Ḥ":{"ha":1146,"x_min":72,"x_max":1072,"o":"m 72 0 l 72 22 l 189 79 l 189 838 l 72 894 l 72 917 l 472 917 l 472 894 l 363 838 l 363 511 l 783 511 l 783 838 l 674 894 l 674 917 l 1072 917 l 1072 894 l 958 838 l 958 79 l 1072 22 l 1072 0 l 674 0 l 674 22 l 783 79 l 783 435 l 363 435 l 363 79 l 472 22 l 472 0 l 72 0 z "},"Ḫ":{"ha":1146,"x_min":72,"x_max":1072,"o":"m 72 0 l 72 22 l 189 79 l 189 838 l 72 894 l 72 917 l 472 917 l 472 894 l 363 838 l 363 511 l 783 511 l 783 838 l 674 894 l 674 917 l 1072 917 l 1072 894 l 958 838 l 958 79 l 1072 22 l 1072 0 l 674 0 l 674 22 l 783 79 l 783 435 l 363 435 l 363 79 l 472 22 l 472 0 l 72 0 z "},"Ì":{"ha":561,"x_min":38,"x_max":483,"o":"m 78 0 l 78 22 l 193 79 l 193 838 l 78 894 l 78 917 l 483 917 l 483 894 l 368 838 l 368 79 l 483 22 l 483 0 l 78 0 m 268 986 l 89 1104 q 47 1150 57 1126 q 38 1197 38 1174 l 175 1197 l 292 986 l 268 986 z "},"Í":{"ha":561,"x_min":78,"x_max":522,"o":"m 78 0 l 78 22 l 193 79 l 193 838 l 78 894 l 78 917 l 483 917 l 483 894 l 368 838 l 368 79 l 483 22 l 483 0 l 78 0 m 268 986 l 386 1197 l 522 1197 q 513 1150 522 1174 q 471 1104 503 1126 l 293 986 l 268 986 z "},"Î":{"ha":561,"x_min":67,"x_max":494,"o":"m 78 0 l 78 22 l 193 79 l 193 838 l 78 894 l 78 917 l 483 917 l 483 894 l 368 838 l 368 79 l 483 22 l 483 0 l 78 0 m 67 986 l 253 1197 l 308 1197 l 494 986 l 471 986 l 281 1081 l 90 986 l 67 986 z "},"Ĩ":{"ha":561,"x_min":58,"x_max":503,"o":"m 78 0 l 78 22 l 193 79 l 193 838 l 78 894 l 78 917 l 483 917 l 483 894 l 368 838 l 368 79 l 483 22 l 483 0 l 78 0 m 58 1006 q 102 1111 81 1075 q 147 1160 124 1147 q 199 1174 169 1174 q 270 1155 238 1174 q 333 1118 303 1136 q 394 1100 364 1100 q 439 1114 419 1100 q 476 1174 458 1128 l 503 1174 q 459 1067 481 1103 q 415 1018 438 1031 q 363 1006 392 1006 q 291 1024 324 1006 q 228 1060 258 1042 q 167 1078 197 1078 q 122 1065 142 1078 q 85 1006 103 1051 l 58 1006 z "},"Ï":{"ha":561,"x_min":71,"x_max":489,"o":"m 78 0 l 78 22 l 193 79 l 193 838 l 78 894 l 78 917 l 483 917 l 483 894 l 368 838 l 368 79 l 483 22 l 483 0 l 78 0 m 147 1015 q 92 1038 114 1015 q 71 1092 71 1060 q 92 1144 71 1122 q 147 1167 114 1167 q 201 1144 179 1167 q 222 1092 222 1122 q 201 1038 222 1060 q 147 1015 179 1015 m 414 1015 q 360 1038 381 1015 q 339 1092 339 1060 q 360 1144 339 1122 q 414 1167 381 1167 q 468 1144 447 1167 q 489 1092 489 1122 q 468 1038 489 1060 q 414 1015 447 1015 z "},"Ī":{"ha":561,"x_min":78,"x_max":483,"o":"m 78 0 l 78 22 l 193 79 l 193 838 l 78 894 l 78 917 l 483 917 l 483 894 l 368 838 l 368 79 l 483 22 l 483 0 l 78 0 m 86 1056 l 86 1132 l 475 1132 l 475 1056 l 86 1056 z "},"Ĭ":{"ha":561,"x_min":67,"x_max":494,"o":"m 78 0 l 78 22 l 193 79 l 193 838 l 78 894 l 78 917 l 483 917 l 483 894 l 368 838 l 368 79 l 483 22 l 483 0 l 78 0 m 281 986 q 138 1041 185 986 q 67 1197 90 1096 l 90 1197 q 168 1108 125 1128 q 281 1088 211 1088 q 392 1108 350 1088 q 471 1197 435 1128 l 494 1197 q 420 1041 469 1096 q 281 986 371 986 z "},"İ":{"ha":561,"x_min":78,"x_max":483,"o":"m 78 0 l 78 22 l 193 79 l 193 838 l 78 894 l 78 917 l 483 917 l 483 894 l 368 838 l 368 79 l 483 22 l 483 0 l 78 0 m 281 1004 q 214 1031 242 1004 q 186 1099 186 1058 q 214 1165 186 1139 q 281 1192 242 1192 q 347 1165 319 1192 q 375 1099 375 1139 q 347 1031 375 1058 q 281 1004 319 1004 z "},"Į":{"ha":561,"x_min":78,"x_max":483,"o":"m 78 0 l 78 22 l 193 79 l 193 838 l 78 894 l 78 917 l 483 917 l 483 894 l 368 838 l 368 79 l 483 22 l 483 0 l 314 0 q 254 -178 254 -97 q 339 -265 254 -265 q 372 -260 354 -265 q 407 -246 390 -256 l 411 -246 l 411 -267 q 289 -333 374 -333 q 189 -300 228 -333 q 150 -210 150 -267 q 183 -109 150 -160 q 271 0 217 -58 l 78 0 z "},"Ị":{"ha":561,"x_min":78,"x_max":483,"o":"m 78 0 l 78 22 l 193 79 l 193 838 l 78 894 l 78 917 l 483 917 l 483 894 l 368 838 l 368 79 l 483 22 l 483 0 l 78 0 z "},"Ȉ":{"ha":561,"x_min":3,"x_max":483,"o":"m 78 0 l 78 22 l 193 79 l 193 838 l 78 894 l 78 917 l 483 917 l 483 894 l 368 838 l 368 79 l 483 22 l 483 0 l 78 0 m 178 986 l 28 1110 q 3 1153 3 1129 q 11 1197 4 1176 l 114 1197 l 201 986 l 178 986 m 356 986 l 224 1110 q 200 1154 200 1132 q 207 1197 200 1176 l 310 1197 l 381 986 l 356 986 z "},"Ȋ":{"ha":561,"x_min":67,"x_max":494,"o":"m 78 0 l 78 22 l 193 79 l 193 838 l 78 894 l 78 917 l 483 917 l 483 894 l 368 838 l 368 79 l 483 22 l 483 0 l 78 0 m 67 986 q 141 1142 92 1088 q 281 1197 190 1197 q 424 1142 376 1197 q 494 986 471 1088 l 471 986 q 393 1076 436 1056 q 281 1096 350 1096 q 169 1076 211 1096 q 90 986 126 1056 l 67 986 z "},"Ỉ":{"ha":561,"x_min":78,"x_max":483,"o":"m 78 0 l 78 22 l 193 79 l 193 838 l 78 894 l 78 917 l 483 917 l 483 894 l 368 838 l 368 79 l 483 22 l 483 0 l 78 0 m 214 986 l 214 988 q 281 1019 258 1004 q 304 1064 304 1035 q 281 1101 304 1086 q 200 1126 258 1117 l 218 1215 q 350 1173 313 1207 q 388 1103 388 1139 q 347 1017 388 1047 q 225 975 306 986 l 214 986 z "},"Ḯ":{"ha":561,"x_min":71,"x_max":521,"o":"m 78 0 l 78 22 l 193 79 l 193 838 l 78 894 l 78 917 l 483 917 l 483 894 l 368 838 l 368 79 l 483 22 l 483 0 l 78 0 z "},"Ĳ":{"ha":1136,"x_min":78,"x_max":1060,"o":"m 78 0 l 78 22 l 193 79 l 193 838 l 78 894 l 78 917 l 483 917 l 483 894 l 368 838 l 368 79 l 483 22 l 483 0 l 78 0 m 635 -240 q 603 -231 617 -240 q 590 -201 590 -222 q 594 -173 590 -192 q 607 -108 597 -154 l 617 -108 q 651 -117 639 -114 q 681 -121 664 -121 q 728 -108 708 -121 q 759 -55 749 -96 q 769 69 769 -14 l 769 838 l 654 894 l 654 917 l 1060 917 l 1060 894 l 944 838 l 944 338 q 925 142 944 232 q 874 -18 906 51 q 804 -129 842 -87 q 714 -215 750 -189 q 635 -240 678 -240 z "},"Ĵ":{"ha":576,"x_min":29,"x_max":510,"o":"m 74 -240 q 42 -231 56 -240 q 29 -201 29 -222 q 33 -173 29 -192 q 46 -108 36 -154 l 56 -108 q 90 -117 78 -114 q 119 -121 103 -121 q 167 -108 147 -121 q 198 -55 188 -96 q 208 69 208 -14 l 208 838 l 93 894 l 93 917 l 499 917 l 499 894 l 383 838 l 383 338 q 364 142 383 232 q 313 -18 344 51 q 243 -129 281 -87 q 153 -215 189 -189 q 74 -240 117 -240 m 82 986 l 268 1197 l 324 1197 l 510 986 l 486 986 l 296 1081 l 106 986 l 82 986 z "},"Ķ":{"ha":1044,"x_min":72,"x_max":1028,"o":"m 72 0 l 72 22 l 189 79 l 189 838 l 72 894 l 72 917 l 479 917 l 479 894 l 363 838 l 363 79 l 479 22 l 479 0 l 72 0 m 364 465 l 747 846 l 644 894 l 644 917 l 958 917 l 958 894 l 867 857 l 528 528 l 935 61 l 1028 22 l 1028 0 l 764 0 l 364 465 m 517 -332 q 492 -331 506 -332 q 469 -328 479 -331 l 469 -303 q 490 -307 479 -306 q 507 -308 500 -308 q 561 -296 542 -308 q 581 -258 581 -283 q 553 -215 581 -226 q 468 -204 526 -204 l 468 -136 q 480 -115 468 -124 q 525 -107 492 -107 q 634 -135 597 -107 q 671 -217 671 -164 q 628 -302 671 -272 q 517 -332 585 -332 z "},"Ĺ":{"ha":892,"x_min":72,"x_max":810,"o":"m 72 0 l 72 22 l 189 79 l 189 838 l 72 894 l 72 917 l 493 917 l 493 894 l 363 838 l 363 76 l 682 76 l 788 326 l 810 326 l 810 0 l 72 0 m 264 986 l 382 1197 l 518 1197 q 508 1150 518 1174 q 467 1104 499 1126 l 289 986 l 264 986 z "},"Ľ":{"ha":892,"x_min":72,"x_max":810,"o":"m 72 0 l 72 22 l 189 79 l 189 838 l 72 894 l 72 917 l 493 917 l 493 894 l 363 838 l 363 76 l 682 76 l 788 326 l 810 326 l 810 0 l 72 0 m 596 657 l 621 917 l 744 917 q 748 876 749 897 q 729 826 747 854 l 619 657 l 596 657 z "},"Ļ":{"ha":892,"x_min":72,"x_max":810,"o":"m 72 0 l 72 22 l 189 79 l 189 838 l 72 894 l 72 917 l 493 917 l 493 894 l 363 838 l 363 76 l 682 76 l 788 326 l 810 326 l 810 0 l 72 0 m 444 -332 q 420 -331 433 -332 q 397 -328 407 -331 l 397 -303 q 417 -307 407 -306 q 435 -308 428 -308 q 489 -296 469 -308 q 508 -258 508 -283 q 481 -215 508 -226 q 396 -204 454 -204 l 396 -136 q 408 -115 396 -124 q 453 -107 419 -107 q 562 -135 525 -107 q 599 -217 599 -164 q 556 -302 599 -272 q 444 -332 513 -332 z "},"Ł":{"ha":892,"x_min":72,"x_max":810,"o":"m 72 0 l 72 22 l 189 79 l 189 322 l 74 242 l 74 328 l 189 410 l 189 838 l 72 894 l 72 917 l 493 917 l 493 894 l 363 838 l 363 507 l 564 644 l 564 557 l 363 419 l 363 76 l 682 76 l 788 326 l 810 326 l 810 0 l 72 0 z "},"Ŀ":{"ha":892,"x_min":72,"x_max":810,"o":"m 72 0 l 72 22 l 189 79 l 189 838 l 72 894 l 72 917 l 493 917 l 493 894 l 363 838 l 363 76 l 682 76 l 788 326 l 810 326 l 810 0 l 72 0 m 706 392 q 639 419 667 392 q 611 486 611 446 q 639 553 611 526 q 706 579 667 579 q 772 553 744 579 q 800 486 800 526 q 772 419 800 446 q 706 392 744 392 z "},"Ḷ":{"ha":892,"x_min":72,"x_max":810,"o":"m 72 0 l 72 22 l 189 79 l 189 838 l 72 894 l 72 917 l 493 917 l 493 894 l 363 838 l 363 76 l 682 76 l 788 326 l 810 326 l 810 0 l 72 0 z "},"Ḻ":{"ha":892,"x_min":72,"x_max":810,"o":"m 72 0 l 72 22 l 189 79 l 189 838 l 72 894 l 72 917 l 493 917 l 493 894 l 363 838 l 363 76 l 682 76 l 788 326 l 810 326 l 810 0 l 72 0 z "},"Ṃ":{"ha":1361,"x_min":68,"x_max":1293,"o":"m 68 0 l 68 22 l 183 79 l 213 838 l 92 894 l 92 917 l 400 917 l 696 231 l 990 917 l 1286 917 l 1286 894 l 1168 847 l 1192 79 l 1293 22 l 1293 0 l 914 0 l 914 22 l 1022 78 l 1008 747 l 686 -7 l 614 -7 l 292 740 l 274 78 l 392 22 l 392 0 l 68 0 z "},"Ń":{"ha":1124,"x_min":68,"x_max":1056,"o":"m 68 0 l 68 22 l 183 79 l 183 836 l 69 894 l 69 917 l 308 917 l 844 283 l 844 840 l 694 894 l 694 917 l 1056 917 l 1056 894 l 942 839 l 942 -7 l 869 -7 l 281 685 l 281 78 l 432 22 l 432 0 l 68 0 m 560 986 l 678 1197 l 814 1197 q 804 1150 814 1174 q 763 1104 794 1126 l 585 986 l 560 986 z "},"Ň":{"ha":1124,"x_min":68,"x_max":1056,"o":"m 68 0 l 68 22 l 183 79 l 183 836 l 69 894 l 69 917 l 308 917 l 844 283 l 844 840 l 694 894 l 694 917 l 1056 917 l 1056 894 l 942 839 l 942 -7 l 869 -7 l 281 685 l 281 78 l 432 22 l 432 0 l 68 0 m 544 986 l 358 1197 l 382 1197 l 572 1103 l 763 1197 l 786 1197 l 600 986 l 544 986 z "},"Ñ":{"ha":1124,"x_min":68,"x_max":1056,"o":"m 68 0 l 68 22 l 183 79 l 183 836 l 69 894 l 69 917 l 308 917 l 844 283 l 844 840 l 694 894 l 694 917 l 1056 917 l 1056 894 l 942 839 l 942 -7 l 869 -7 l 281 685 l 281 78 l 432 22 l 432 0 l 68 0 m 350 1006 q 394 1111 372 1075 q 438 1160 415 1147 q 490 1174 461 1174 q 562 1155 529 1174 q 625 1118 594 1136 q 686 1100 656 1100 q 731 1114 711 1100 q 768 1174 750 1128 l 794 1174 q 751 1067 772 1103 q 706 1018 729 1031 q 654 1006 683 1006 q 583 1024 615 1006 q 519 1060 550 1042 q 458 1078 489 1078 q 414 1065 433 1078 q 376 1006 394 1051 l 350 1006 z "},"Ņ":{"ha":1124,"x_min":68,"x_max":1056,"o":"m 68 0 l 68 22 l 183 79 l 183 836 l 69 894 l 69 917 l 308 917 l 844 283 l 844 840 l 694 894 l 694 917 l 1056 917 l 1056 894 l 942 839 l 942 -7 l 869 -7 l 281 685 l 281 78 l 432 22 l 432 0 l 68 0 m 529 -332 q 505 -331 518 -332 q 482 -328 492 -331 l 482 -303 q 502 -307 492 -306 q 519 -308 513 -308 q 574 -296 554 -308 q 593 -258 593 -283 q 566 -215 593 -226 q 481 -204 539 -204 l 481 -136 q 492 -115 481 -124 q 538 -107 504 -107 q 647 -135 610 -107 q 683 -217 683 -164 q 640 -302 683 -272 q 529 -332 597 -332 z "},"Ṅ":{"ha":1124,"x_min":68,"x_max":1056,"o":"m 68 0 l 68 22 l 183 79 l 183 836 l 69 894 l 69 917 l 308 917 l 844 283 l 844 840 l 694 894 l 694 917 l 1056 917 l 1056 894 l 942 839 l 942 -7 l 869 -7 l 281 685 l 281 78 l 432 22 l 432 0 l 68 0 m 572 1004 q 506 1031 533 1004 q 478 1099 478 1058 q 506 1165 478 1139 q 572 1192 533 1192 q 639 1165 611 1192 q 667 1099 667 1139 q 639 1031 667 1058 q 572 1004 611 1004 z "},"Ṇ":{"ha":1124,"x_min":68,"x_max":1056,"o":"m 68 0 l 68 22 l 183 79 l 183 836 l 69 894 l 69 917 l 308 917 l 844 283 l 844 840 l 694 894 l 694 917 l 1056 917 l 1056 894 l 942 839 l 942 -7 l 869 -7 l 281 685 l 281 78 l 432 22 l 432 0 l 68 0 z "},"Ṉ":{"ha":1124,"x_min":68,"x_max":1056,"o":"m 68 0 l 68 22 l 183 79 l 183 836 l 69 894 l 69 917 l 308 917 l 844 283 l 844 840 l 694 894 l 694 917 l 1056 917 l 1056 894 l 942 839 l 942 -7 l 869 -7 l 281 685 l 281 78 l 432 22 l 432 0 l 68 0 z "},"Ò":{"ha":1106,"x_min":81,"x_max":1026,"o":"m 553 -14 q 365 22 451 -14 q 215 120 279 57 q 116 269 151 183 q 81 458 81 356 q 116 647 81 561 q 215 797 151 733 q 365 895 279 860 q 553 931 451 931 q 742 895 656 931 q 892 797 828 860 q 991 647 956 733 q 1026 458 1026 561 q 991 269 1026 356 q 892 120 956 183 q 742 22 828 57 q 553 -14 656 -14 m 578 57 q 715 101 656 57 q 807 226 774 146 q 840 417 840 307 q 799 651 840 551 q 688 806 758 751 q 532 861 618 861 q 395 817 456 861 q 300 693 335 774 q 265 503 265 613 q 307 268 265 368 q 420 113 349 168 q 578 57 492 57 m 529 986 l 350 1104 q 308 1150 318 1126 q 299 1197 299 1174 l 436 1197 l 553 986 l 529 986 z "},"Ó":{"ha":1106,"x_min":81,"x_max":1026,"o":"m 553 -14 q 365 22 451 -14 q 215 120 279 57 q 116 269 151 183 q 81 458 81 356 q 116 647 81 561 q 215 797 151 733 q 365 895 279 860 q 553 931 451 931 q 742 895 656 931 q 892 797 828 860 q 991 647 956 733 q 1026 458 1026 561 q 991 269 1026 356 q 892 120 956 183 q 742 22 828 57 q 553 -14 656 -14 m 578 57 q 715 101 656 57 q 807 226 774 146 q 840 417 840 307 q 799 651 840 551 q 688 806 758 751 q 532 861 618 861 q 395 817 456 861 q 300 693 335 774 q 265 503 265 613 q 307 268 265 368 q 420 113 349 168 q 578 57 492 57 m 531 986 l 649 1197 l 785 1197 q 775 1150 785 1174 q 733 1104 765 1126 l 556 986 l 531 986 z "},"Ô":{"ha":1106,"x_min":81,"x_max":1026,"o":"m 553 -14 q 365 22 451 -14 q 215 120 279 57 q 116 269 151 183 q 81 458 81 356 q 116 647 81 561 q 215 797 151 733 q 365 895 279 860 q 553 931 451 931 q 742 895 656 931 q 892 797 828 860 q 991 647 956 733 q 1026 458 1026 561 q 991 269 1026 356 q 892 120 956 183 q 742 22 828 57 q 553 -14 656 -14 m 578 57 q 715 101 656 57 q 807 226 774 146 q 840 417 840 307 q 799 651 840 551 q 688 806 758 751 q 532 861 618 861 q 395 817 456 861 q 300 693 335 774 q 265 503 265 613 q 307 268 265 368 q 420 113 349 168 q 578 57 492 57 m 328 986 l 514 1197 l 569 1197 l 756 986 l 732 986 l 542 1081 l 351 986 l 328 986 z "},"Õ":{"ha":1106,"x_min":81,"x_max":1026,"o":"m 553 -14 q 365 22 451 -14 q 215 120 279 57 q 116 269 151 183 q 81 458 81 356 q 116 647 81 561 q 215 797 151 733 q 365 895 279 860 q 553 931 451 931 q 742 895 656 931 q 892 797 828 860 q 991 647 956 733 q 1026 458 1026 561 q 991 269 1026 356 q 892 120 956 183 q 742 22 828 57 q 553 -14 656 -14 m 578 57 q 715 101 656 57 q 807 226 774 146 q 840 417 840 307 q 799 651 840 551 q 688 806 758 751 q 532 861 618 861 q 395 817 456 861 q 300 693 335 774 q 265 503 265 613 q 307 268 265 368 q 420 113 349 168 q 578 57 492 57 m 319 1006 q 363 1111 342 1075 q 408 1160 385 1147 q 460 1174 431 1174 q 531 1155 499 1174 q 594 1118 564 1136 q 656 1100 625 1100 q 700 1114 681 1100 q 738 1174 719 1128 l 764 1174 q 720 1067 742 1103 q 676 1018 699 1031 q 624 1006 653 1006 q 552 1024 585 1006 q 489 1060 519 1042 q 428 1078 458 1078 q 383 1065 403 1078 q 346 1006 364 1051 l 319 1006 z "},"Ö":{"ha":1106,"x_min":81,"x_max":1026,"o":"m 553 -14 q 365 22 451 -14 q 215 120 279 57 q 116 269 151 183 q 81 458 81 356 q 116 647 81 561 q 215 797 151 733 q 365 895 279 860 q 553 931 451 931 q 742 895 656 931 q 892 797 828 860 q 991 647 956 733 q 1026 458 1026 561 q 991 269 1026 356 q 892 120 956 183 q 742 22 828 57 q 553 -14 656 -14 m 578 57 q 715 101 656 57 q 807 226 774 146 q 840 417 840 307 q 799 651 840 551 q 688 806 758 751 q 532 861 618 861 q 395 817 456 861 q 300 693 335 774 q 265 503 265 613 q 307 268 265 368 q 420 113 349 168 q 578 57 492 57 m 410 1015 q 355 1038 376 1015 q 333 1092 333 1060 q 355 1144 333 1122 q 410 1167 376 1167 q 463 1144 442 1167 q 485 1092 485 1122 q 463 1038 485 1060 q 410 1015 442 1015 m 676 1015 q 622 1038 643 1015 q 601 1092 601 1060 q 622 1144 601 1122 q 676 1167 643 1167 q 731 1144 710 1167 q 751 1092 751 1122 q 731 1038 751 1060 q 676 1015 710 1015 z "},"Ō":{"ha":1106,"x_min":81,"x_max":1026,"o":"m 553 -14 q 365 22 451 -14 q 215 120 279 57 q 116 269 151 183 q 81 458 81 356 q 116 647 81 561 q 215 797 151 733 q 365 895 279 860 q 553 931 451 931 q 742 895 656 931 q 892 797 828 860 q 991 647 956 733 q 1026 458 1026 561 q 991 269 1026 356 q 892 120 956 183 q 742 22 828 57 q 553 -14 656 -14 m 578 57 q 715 101 656 57 q 807 226 774 146 q 840 417 840 307 q 799 651 840 551 q 688 806 758 751 q 532 861 618 861 q 395 817 456 861 q 300 693 335 774 q 265 503 265 613 q 307 268 265 368 q 420 113 349 168 q 578 57 492 57 m 347 1056 l 347 1132 l 736 1132 l 736 1056 l 347 1056 z "},"Ŏ":{"ha":1106,"x_min":81,"x_max":1026,"o":"m 553 -14 q 365 22 451 -14 q 215 120 279 57 q 116 269 151 183 q 81 458 81 356 q 116 647 81 561 q 215 797 151 733 q 365 895 279 860 q 553 931 451 931 q 742 895 656 931 q 892 797 828 860 q 991 647 956 733 q 1026 458 1026 561 q 991 269 1026 356 q 892 120 956 183 q 742 22 828 57 q 553 -14 656 -14 m 578 57 q 715 101 656 57 q 807 226 774 146 q 840 417 840 307 q 799 651 840 551 q 688 806 758 751 q 532 861 618 861 q 395 817 456 861 q 300 693 335 774 q 265 503 265 613 q 307 268 265 368 q 420 113 349 168 q 578 57 492 57 m 542 986 q 399 1041 446 986 q 328 1197 351 1096 l 351 1197 q 429 1108 386 1128 q 542 1088 472 1088 q 653 1108 611 1088 q 732 1197 696 1128 l 756 1197 q 681 1041 731 1096 q 542 986 632 986 z "},"Ő":{"ha":1106,"x_min":81,"x_max":1026,"o":"m 553 -14 q 365 22 451 -14 q 215 120 279 57 q 116 269 151 183 q 81 458 81 356 q 116 647 81 561 q 215 797 151 733 q 365 895 279 860 q 553 931 451 931 q 742 895 656 931 q 892 797 828 860 q 991 647 956 733 q 1026 458 1026 561 q 991 269 1026 356 q 892 120 956 183 q 742 22 828 57 q 553 -14 656 -14 m 578 57 q 715 101 656 57 q 807 226 774 146 q 840 417 840 307 q 799 651 840 551 q 688 806 758 751 q 532 861 618 861 q 395 817 456 861 q 300 693 335 774 q 265 503 265 613 q 307 268 265 368 q 420 113 349 168 q 578 57 492 57 m 440 986 l 503 1197 l 606 1197 q 612 1154 613 1176 q 589 1110 611 1132 l 464 986 l 440 986 m 617 986 l 699 1197 l 803 1197 q 809 1153 808 1176 q 786 1110 810 1131 l 642 986 l 617 986 z "},"Ọ":{"ha":1106,"x_min":81,"x_max":1026,"o":"m 553 -14 q 365 22 451 -14 q 215 120 279 57 q 116 269 151 183 q 81 458 81 356 q 116 647 81 561 q 215 797 151 733 q 365 895 279 860 q 553 931 451 931 q 742 895 656 931 q 892 797 828 860 q 991 647 956 733 q 1026 458 1026 561 q 991 269 1026 356 q 892 120 956 183 q 742 22 828 57 q 553 -14 656 -14 m 578 57 q 715 101 656 57 q 807 226 774 146 q 840 417 840 307 q 799 651 840 551 q 688 806 758 751 q 532 861 618 861 q 395 817 456 861 q 300 693 335 774 q 265 503 265 613 q 307 268 265 368 q 420 113 349 168 q 578 57 492 57 z "},"Ǫ":{"ha":1106,"x_min":81,"x_max":1026,"o":"m 575 -333 q 474 -300 513 -333 q 436 -210 436 -267 q 465 -115 436 -162 q 543 -14 494 -68 q 306 51 410 -11 q 141 218 201 113 q 81 458 81 324 q 116 647 81 561 q 215 797 151 733 q 365 895 279 860 q 553 931 451 931 q 742 895 656 931 q 892 797 828 860 q 991 647 956 733 q 1026 458 1026 561 q 970 226 1026 329 q 816 60 914 122 q 592 -12 718 -3 q 540 -178 540 -101 q 625 -265 540 -265 q 658 -260 640 -265 q 692 -246 676 -256 l 697 -246 l 697 -267 q 647 -315 678 -297 q 575 -333 617 -333 m 578 57 q 715 101 656 57 q 807 226 774 146 q 840 417 840 307 q 799 651 840 551 q 688 806 758 751 q 532 861 618 861 q 395 817 456 861 q 300 693 335 774 q 265 503 265 613 q 307 268 265 368 q 420 113 349 168 q 578 57 492 57 z "},"Ȍ":{"ha":1106,"x_min":81,"x_max":1026,"o":"m 553 -14 q 365 22 451 -14 q 215 120 279 57 q 116 269 151 183 q 81 458 81 356 q 116 647 81 561 q 215 797 151 733 q 365 895 279 860 q 553 931 451 931 q 742 895 656 931 q 892 797 828 860 q 991 647 956 733 q 1026 458 1026 561 q 991 269 1026 356 q 892 120 956 183 q 742 22 828 57 q 553 -14 656 -14 m 578 57 q 715 101 656 57 q 807 226 774 146 q 840 417 840 307 q 799 651 840 551 q 688 806 758 751 q 532 861 618 861 q 395 817 456 861 q 300 693 335 774 q 265 503 265 613 q 307 268 265 368 q 420 113 349 168 q 578 57 492 57 m 440 986 l 290 1110 q 266 1153 265 1129 q 274 1197 267 1176 l 376 1197 l 464 986 l 440 986 m 618 986 l 486 1110 q 463 1154 463 1132 q 469 1197 463 1176 l 572 1197 l 643 986 l 618 986 z "},"Ȏ":{"ha":1106,"x_min":81,"x_max":1026,"o":"m 553 -14 q 365 22 451 -14 q 215 120 279 57 q 116 269 151 183 q 81 458 81 356 q 116 647 81 561 q 215 797 151 733 q 365 895 279 860 q 553 931 451 931 q 742 895 656 931 q 892 797 828 860 q 991 647 956 733 q 1026 458 1026 561 q 991 269 1026 356 q 892 120 956 183 q 742 22 828 57 q 553 -14 656 -14 m 578 57 q 715 101 656 57 q 807 226 774 146 q 840 417 840 307 q 799 651 840 551 q 688 806 758 751 q 532 861 618 861 q 395 817 456 861 q 300 693 335 774 q 265 503 265 613 q 307 268 265 368 q 420 113 349 168 q 578 57 492 57 m 328 986 q 402 1142 353 1088 q 542 1197 451 1197 q 685 1142 638 1197 q 756 986 732 1088 l 732 986 q 654 1076 697 1056 q 542 1096 611 1096 q 430 1076 472 1096 q 351 986 388 1056 l 328 986 z "},"Ȫ":{"ha":1106,"x_min":81,"x_max":1026,"o":"m 553 -14 q 365 22 451 -14 q 215 120 279 57 q 116 269 151 183 q 81 458 81 356 q 116 647 81 561 q 215 797 151 733 q 365 895 279 860 q 553 931 451 931 q 742 895 656 931 q 892 797 828 860 q 991 647 956 733 q 1026 458 1026 561 q 991 269 1026 356 q 892 120 956 183 q 742 22 828 57 q 553 -14 656 -14 m 578 57 q 715 101 656 57 q 807 226 774 146 q 840 417 840 307 q 799 651 840 551 q 688 806 758 751 q 532 861 618 861 q 395 817 456 861 q 300 693 335 774 q 265 503 265 613 q 307 268 265 368 q 420 113 349 168 q 578 57 492 57 z "},"Ȭ":{"ha":1106,"x_min":81,"x_max":1026,"o":"m 553 -14 q 365 22 451 -14 q 215 120 279 57 q 116 269 151 183 q 81 458 81 356 q 116 647 81 561 q 215 797 151 733 q 365 895 279 860 q 553 931 451 931 q 742 895 656 931 q 892 797 828 860 q 991 647 956 733 q 1026 458 1026 561 q 991 269 1026 356 q 892 120 956 183 q 742 22 828 57 q 553 -14 656 -14 m 578 57 q 715 101 656 57 q 807 226 774 146 q 840 417 840 307 q 799 651 840 551 q 688 806 758 751 q 532 861 618 861 q 395 817 456 861 q 300 693 335 774 q 265 503 265 613 q 307 268 265 368 q 420 113 349 168 q 578 57 492 57 z "},"Ȱ":{"ha":1106,"x_min":81,"x_max":1026,"o":"m 553 -14 q 365 22 451 -14 q 215 120 279 57 q 116 269 151 183 q 81 458 81 356 q 116 647 81 561 q 215 797 151 733 q 365 895 279 860 q 553 931 451 931 q 742 895 656 931 q 892 797 828 860 q 991 647 956 733 q 1026 458 1026 561 q 991 269 1026 356 q 892 120 956 183 q 742 22 828 57 q 553 -14 656 -14 m 578 57 q 715 101 656 57 q 807 226 774 146 q 840 417 840 307 q 799 651 840 551 q 688 806 758 751 q 532 861 618 861 q 395 817 456 861 q 300 693 335 774 q 265 503 265 613 q 307 268 265 368 q 420 113 349 168 q 578 57 492 57 z "},"Ố":{"ha":1106,"x_min":81,"x_max":1026,"o":"m 553 -14 q 365 22 451 -14 q 215 120 279 57 q 116 269 151 183 q 81 458 81 356 q 116 647 81 561 q 215 797 151 733 q 365 895 279 860 q 553 931 451 931 q 742 895 656 931 q 892 797 828 860 q 991 647 956 733 q 1026 458 1026 561 q 991 269 1026 356 q 892 120 956 183 q 742 22 828 57 q 553 -14 656 -14 m 578 57 q 715 101 656 57 q 807 226 774 146 q 840 417 840 307 q 799 651 840 551 q 688 806 758 751 q 532 861 618 861 q 395 817 456 861 q 300 693 335 774 q 265 503 265 613 q 307 268 265 368 q 420 113 349 168 q 578 57 492 57 m 697 1118 l 754 1317 l 881 1317 q 839 1239 881 1279 l 718 1118 l 697 1118 m 328 986 l 514 1197 l 569 1197 l 756 986 l 732 986 l 542 1081 l 351 986 l 328 986 z "},"Ộ":{"ha":1106,"x_min":81,"x_max":1026,"o":"m 553 -14 q 365 22 451 -14 q 215 120 279 57 q 116 269 151 183 q 81 458 81 356 q 116 647 81 561 q 215 797 151 733 q 365 895 279 860 q 553 931 451 931 q 742 895 656 931 q 892 797 828 860 q 991 647 956 733 q 1026 458 1026 561 q 991 269 1026 356 q 892 120 956 183 q 742 22 828 57 q 553 -14 656 -14 m 578 57 q 715 101 656 57 q 807 226 774 146 q 840 417 840 307 q 799 651 840 551 q 688 806 758 751 q 532 861 618 861 q 395 817 456 861 q 300 693 335 774 q 265 503 265 613 q 307 268 265 368 q 420 113 349 168 q 578 57 492 57 m 328 986 l 514 1197 l 569 1197 l 756 986 l 732 986 l 542 1081 l 351 986 l 328 986 z "},"Ồ":{"ha":1106,"x_min":81,"x_max":1026,"o":"m 553 -14 q 365 22 451 -14 q 215 120 279 57 q 116 269 151 183 q 81 458 81 356 q 116 647 81 561 q 215 797 151 733 q 365 895 279 860 q 553 931 451 931 q 742 895 656 931 q 892 797 828 860 q 991 647 956 733 q 1026 458 1026 561 q 991 269 1026 356 q 892 120 956 183 q 742 22 828 57 q 553 -14 656 -14 m 578 57 q 715 101 656 57 q 807 226 774 146 q 840 417 840 307 q 799 651 840 551 q 688 806 758 751 q 532 861 618 861 q 395 817 456 861 q 300 693 335 774 q 265 503 265 613 q 307 268 265 368 q 420 113 349 168 q 578 57 492 57 m 365 1118 l 244 1239 q 213 1278 222 1260 q 203 1317 203 1296 l 329 1317 l 386 1118 l 365 1118 m 328 986 l 514 1197 l 569 1197 l 756 986 l 732 986 l 542 1081 l 351 986 l 328 986 z "},"Ổ":{"ha":1106,"x_min":81,"x_max":1026,"o":"m 553 -14 q 365 22 451 -14 q 215 120 279 57 q 116 269 151 183 q 81 458 81 356 q 116 647 81 561 q 215 797 151 733 q 365 895 279 860 q 553 931 451 931 q 742 895 656 931 q 892 797 828 860 q 991 647 956 733 q 1026 458 1026 561 q 991 269 1026 356 q 892 120 956 183 q 742 22 828 57 q 553 -14 656 -14 m 578 57 q 715 101 656 57 q 807 226 774 146 q 840 417 840 307 q 799 651 840 551 q 688 806 758 751 q 532 861 618 861 q 395 817 456 861 q 300 693 335 774 q 265 503 265 613 q 307 268 265 368 q 420 113 349 168 q 578 57 492 57 z "},"Ỗ":{"ha":1106,"x_min":81,"x_max":1026,"o":"m 553 -14 q 365 22 451 -14 q 215 120 279 57 q 116 269 151 183 q 81 458 81 356 q 116 647 81 561 q 215 797 151 733 q 365 895 279 860 q 553 931 451 931 q 742 895 656 931 q 892 797 828 860 q 991 647 956 733 q 1026 458 1026 561 q 991 269 1026 356 q 892 120 956 183 q 742 22 828 57 q 553 -14 656 -14 m 578 57 q 715 101 656 57 q 807 226 774 146 q 840 417 840 307 q 799 651 840 551 q 688 806 758 751 q 532 861 618 861 q 395 817 456 861 q 300 693 335 774 q 265 503 265 613 q 307 268 265 368 q 420 113 349 168 q 578 57 492 57 z "},"Ỏ":{"ha":1106,"x_min":81,"x_max":1026,"o":"m 553 -14 q 365 22 451 -14 q 215 120 279 57 q 116 269 151 183 q 81 458 81 356 q 116 647 81 561 q 215 797 151 733 q 365 895 279 860 q 553 931 451 931 q 742 895 656 931 q 892 797 828 860 q 991 647 956 733 q 1026 458 1026 561 q 991 269 1026 356 q 892 120 956 183 q 742 22 828 57 q 553 -14 656 -14 m 578 57 q 715 101 656 57 q 807 226 774 146 q 840 417 840 307 q 799 651 840 551 q 688 806 758 751 q 532 861 618 861 q 395 817 456 861 q 300 693 335 774 q 265 503 265 613 q 307 268 265 368 q 420 113 349 168 q 578 57 492 57 m 475 986 l 475 988 q 542 1019 519 1004 q 565 1064 565 1035 q 542 1101 565 1086 q 461 1126 519 1117 l 479 1215 q 611 1173 574 1207 q 649 1103 649 1139 q 608 1017 649 1047 q 486 975 567 986 l 475 986 z "},"Ṍ":{"ha":1106,"x_min":81,"x_max":1026,"o":"m 553 -14 q 365 22 451 -14 q 215 120 279 57 q 116 269 151 183 q 81 458 81 356 q 116 647 81 561 q 215 797 151 733 q 365 895 279 860 q 553 931 451 931 q 742 895 656 931 q 892 797 828 860 q 991 647 956 733 q 1026 458 1026 561 q 991 269 1026 356 q 892 120 956 183 q 742 22 828 57 q 553 -14 656 -14 m 578 57 q 715 101 656 57 q 807 226 774 146 q 840 417 840 307 q 799 651 840 551 q 688 806 758 751 q 532 861 618 861 q 395 817 456 861 q 300 693 335 774 q 265 503 265 613 q 307 268 265 368 q 420 113 349 168 q 578 57 492 57 z "},"Ṏ":{"ha":1106,"x_min":81,"x_max":1026,"o":"m 553 -14 q 365 22 451 -14 q 215 120 279 57 q 116 269 151 183 q 81 458 81 356 q 116 647 81 561 q 215 797 151 733 q 365 895 279 860 q 553 931 451 931 q 742 895 656 931 q 892 797 828 860 q 991 647 956 733 q 1026 458 1026 561 q 991 269 1026 356 q 892 120 956 183 q 742 22 828 57 q 553 -14 656 -14 m 578 57 q 715 101 656 57 q 807 226 774 146 q 840 417 840 307 q 799 651 840 551 q 688 806 758 751 q 532 861 618 861 q 395 817 456 861 q 300 693 335 774 q 265 503 265 613 q 307 268 265 368 q 420 113 349 168 q 578 57 492 57 z "},"Ṑ":{"ha":1106,"x_min":81,"x_max":1026,"o":"m 553 -14 q 365 22 451 -14 q 215 120 279 57 q 116 269 151 183 q 81 458 81 356 q 116 647 81 561 q 215 797 151 733 q 365 895 279 860 q 553 931 451 931 q 742 895 656 931 q 892 797 828 860 q 991 647 956 733 q 1026 458 1026 561 q 991 269 1026 356 q 892 120 956 183 q 742 22 828 57 q 553 -14 656 -14 m 578 57 q 715 101 656 57 q 807 226 774 146 q 840 417 840 307 q 799 651 840 551 q 688 806 758 751 q 532 861 618 861 q 395 817 456 861 q 300 693 335 774 q 265 503 265 613 q 307 268 265 368 q 420 113 349 168 q 578 57 492 57 z "},"Ṓ":{"ha":1106,"x_min":81,"x_max":1026,"o":"m 553 -14 q 365 22 451 -14 q 215 120 279 57 q 116 269 151 183 q 81 458 81 356 q 116 647 81 561 q 215 797 151 733 q 365 895 279 860 q 553 931 451 931 q 742 895 656 931 q 892 797 828 860 q 991 647 956 733 q 1026 458 1026 561 q 991 269 1026 356 q 892 120 956 183 q 742 22 828 57 q 553 -14 656 -14 m 578 57 q 715 101 656 57 q 807 226 774 146 q 840 417 840 307 q 799 651 840 551 q 688 806 758 751 q 532 861 618 861 q 395 817 456 861 q 300 693 335 774 q 265 503 265 613 q 307 268 265 368 q 420 113 349 168 q 578 57 492 57 z "},"Ø":{"ha":1106,"x_min":81,"x_max":1026,"o":"m 81 -14 l 207 128 q 114 275 147 190 q 81 458 81 360 q 116 647 81 561 q 215 797 151 733 q 365 895 279 860 q 553 931 451 931 q 710 906 636 931 q 843 839 783 882 l 925 931 l 1026 931 l 900 789 q 993 642 960 726 q 1026 458 1026 557 q 991 269 1026 356 q 892 120 956 183 q 742 22 828 57 q 553 -14 656 -14 q 396 10 469 -14 q 264 79 322 35 l 181 -14 l 81 -14 m 265 503 q 278 365 265 429 q 315 249 292 301 l 753 738 q 654 829 711 797 q 532 861 597 861 q 395 817 456 861 q 300 693 335 774 q 265 503 265 613 m 578 57 q 715 101 656 57 q 807 226 774 146 q 840 417 840 307 q 828 553 840 490 q 792 668 815 617 l 356 181 q 455 90 397 122 q 578 57 513 57 z "},"Ǿ":{"ha":1106,"x_min":81,"x_max":1026,"o":"m 81 -14 l 207 128 q 114 275 147 190 q 81 458 81 360 q 116 647 81 561 q 215 797 151 733 q 365 895 279 860 q 553 931 451 931 q 710 906 636 931 q 843 839 783 882 l 925 931 l 1026 931 l 900 789 q 993 642 960 726 q 1026 458 1026 557 q 991 269 1026 356 q 892 120 956 183 q 742 22 828 57 q 553 -14 656 -14 q 396 10 469 -14 q 264 79 322 35 l 181 -14 l 81 -14 m 265 503 q 278 365 265 429 q 315 249 292 301 l 753 738 q 654 829 711 797 q 532 861 597 861 q 395 817 456 861 q 300 693 335 774 q 265 503 265 613 m 578 57 q 715 101 656 57 q 807 226 774 146 q 840 417 840 307 q 828 553 840 490 q 792 668 815 617 l 356 181 q 455 90 397 122 q 578 57 513 57 m 531 986 l 649 1197 l 785 1197 q 775 1150 785 1174 q 733 1104 765 1126 l 556 986 l 531 986 z "},"Ơ":{"ha":1106,"x_min":81,"x_max":1026,"o":"m 553 -14 q 365 22 451 -14 q 215 120 279 57 q 116 269 151 183 q 81 458 81 356 q 116 647 81 561 q 215 797 151 733 q 365 895 279 860 q 553 931 451 931 q 674 917 615 931 l 674 917 l 674 917 q 740 896 708 908 q 781 892 761 892 q 847 913 828 892 q 867 969 867 933 l 867 1038 l 875 1046 l 943 1046 q 973 1038 965 1046 q 981 1003 981 1031 q 935 898 981 936 q 817 860 889 860 q 811 860 814 860 q 968 694 910 799 q 1026 458 1026 589 q 991 269 1026 356 q 892 120 956 183 q 742 22 828 57 q 553 -14 656 -14 m 578 57 q 715 101 656 57 q 807 226 774 146 q 840 417 840 307 q 799 651 840 551 q 688 806 758 751 q 532 861 618 861 q 395 817 456 861 q 300 693 335 774 q 265 503 265 613 q 307 268 265 368 q 420 113 349 168 q 578 57 492 57 z "},"Ớ":{"ha":1106,"x_min":81,"x_max":1026,"o":"m 553 -14 q 365 22 451 -14 q 215 120 279 57 q 116 269 151 183 q 81 458 81 356 q 116 647 81 561 q 215 797 151 733 q 365 895 279 860 q 553 931 451 931 q 674 917 615 931 l 674 917 l 674 917 q 740 896 708 908 q 781 892 761 892 q 847 913 828 892 q 867 969 867 933 l 867 1038 l 875 1046 l 943 1046 q 973 1038 965 1046 q 981 1003 981 1031 q 935 898 981 936 q 817 860 889 860 q 811 860 814 860 q 968 694 910 799 q 1026 458 1026 589 q 991 269 1026 356 q 892 120 956 183 q 742 22 828 57 q 553 -14 656 -14 m 578 57 q 715 101 656 57 q 807 226 774 146 q 840 417 840 307 q 799 651 840 551 q 688 806 758 751 q 532 861 618 861 q 395 817 456 861 q 300 693 335 774 q 265 503 265 613 q 307 268 265 368 q 420 113 349 168 q 578 57 492 57 m 531 986 l 649 1197 l 785 1197 q 775 1150 785 1174 q 733 1104 765 1126 l 556 986 l 531 986 z "},"Ợ":{"ha":1106,"x_min":81,"x_max":1026,"o":"m 553 -14 q 365 22 451 -14 q 215 120 279 57 q 116 269 151 183 q 81 458 81 356 q 116 647 81 561 q 215 797 151 733 q 365 895 279 860 q 553 931 451 931 q 674 917 615 931 l 674 917 l 674 917 q 740 896 708 908 q 781 892 761 892 q 847 913 828 892 q 867 969 867 933 l 867 1038 l 875 1046 l 943 1046 q 973 1038 965 1046 q 981 1003 981 1031 q 935 898 981 936 q 817 860 889 860 q 811 860 814 860 q 968 694 910 799 q 1026 458 1026 589 q 991 269 1026 356 q 892 120 956 183 q 742 22 828 57 q 553 -14 656 -14 m 578 57 q 715 101 656 57 q 807 226 774 146 q 840 417 840 307 q 799 651 840 551 q 688 806 758 751 q 532 861 618 861 q 395 817 456 861 q 300 693 335 774 q 265 503 265 613 q 307 268 265 368 q 420 113 349 168 q 578 57 492 57 z "},"Ờ":{"ha":1106,"x_min":81,"x_max":1026,"o":"m 553 -14 q 365 22 451 -14 q 215 120 279 57 q 116 269 151 183 q 81 458 81 356 q 116 647 81 561 q 215 797 151 733 q 365 895 279 860 q 553 931 451 931 q 674 917 615 931 l 674 917 l 674 917 q 740 896 708 908 q 781 892 761 892 q 847 913 828 892 q 867 969 867 933 l 867 1038 l 875 1046 l 943 1046 q 973 1038 965 1046 q 981 1003 981 1031 q 935 898 981 936 q 817 860 889 860 q 811 860 814 860 q 968 694 910 799 q 1026 458 1026 589 q 991 269 1026 356 q 892 120 956 183 q 742 22 828 57 q 553 -14 656 -14 m 578 57 q 715 101 656 57 q 807 226 774 146 q 840 417 840 307 q 799 651 840 551 q 688 806 758 751 q 532 861 618 861 q 395 817 456 861 q 300 693 335 774 q 265 503 265 613 q 307 268 265 368 q 420 113 349 168 q 578 57 492 57 m 529 986 l 350 1104 q 308 1150 318 1126 q 299 1197 299 1174 l 436 1197 l 553 986 l 529 986 z "},"Ở":{"ha":1106,"x_min":81,"x_max":1026,"o":"m 553 -14 q 365 22 451 -14 q 215 120 279 57 q 116 269 151 183 q 81 458 81 356 q 116 647 81 561 q 215 797 151 733 q 365 895 279 860 q 553 931 451 931 q 674 917 615 931 l 674 917 l 674 917 q 740 896 708 908 q 781 892 761 892 q 847 913 828 892 q 867 969 867 933 l 867 1038 l 875 1046 l 943 1046 q 973 1038 965 1046 q 981 1003 981 1031 q 935 898 981 936 q 817 860 889 860 q 811 860 814 860 q 968 694 910 799 q 1026 458 1026 589 q 991 269 1026 356 q 892 120 956 183 q 742 22 828 57 q 553 -14 656 -14 m 578 57 q 715 101 656 57 q 807 226 774 146 q 840 417 840 307 q 799 651 840 551 q 688 806 758 751 q 532 861 618 861 q 395 817 456 861 q 300 693 335 774 q 265 503 265 613 q 307 268 265 368 q 420 113 349 168 q 578 57 492 57 m 475 986 l 475 988 q 542 1019 519 1004 q 565 1064 565 1035 q 542 1101 565 1086 q 461 1126 519 1117 l 479 1215 q 611 1173 574 1207 q 649 1103 649 1139 q 608 1017 649 1047 q 486 975 567 986 l 475 986 z "},"Ỡ":{"ha":1106,"x_min":81,"x_max":1026,"o":"m 553 -14 q 365 22 451 -14 q 215 120 279 57 q 116 269 151 183 q 81 458 81 356 q 116 647 81 561 q 215 797 151 733 q 365 895 279 860 q 553 931 451 931 q 674 917 615 931 l 674 917 l 674 917 q 740 896 708 908 q 781 892 761 892 q 847 913 828 892 q 867 969 867 933 l 867 1038 l 875 1046 l 943 1046 q 973 1038 965 1046 q 981 1003 981 1031 q 935 898 981 936 q 817 860 889 860 q 811 860 814 860 q 968 694 910 799 q 1026 458 1026 589 q 991 269 1026 356 q 892 120 956 183 q 742 22 828 57 q 553 -14 656 -14 m 578 57 q 715 101 656 57 q 807 226 774 146 q 840 417 840 307 q 799 651 840 551 q 688 806 758 751 q 532 861 618 861 q 395 817 456 861 q 300 693 335 774 q 265 503 265 613 q 307 268 265 368 q 420 113 349 168 q 578 57 492 57 m 319 1006 q 363 1111 342 1075 q 408 1160 385 1147 q 460 1174 431 1174 q 531 1155 499 1174 q 594 1118 564 1136 q 656 1100 625 1100 q 700 1114 681 1100 q 738 1174 719 1128 l 764 1174 q 720 1067 742 1103 q 676 1018 699 1031 q 624 1006 653 1006 q 552 1024 585 1006 q 489 1060 519 1042 q 428 1078 458 1078 q 383 1065 403 1078 q 346 1006 364 1051 l 319 1006 z "},"Œ":{"ha":1429,"x_min":81,"x_max":1347,"o":"m 582 0 q 311 56 424 0 q 140 211 199 111 q 81 447 81 311 q 147 693 81 588 q 329 858 214 799 q 592 917 444 917 l 1308 917 l 1308 676 l 1286 676 l 1190 840 l 874 840 l 874 511 l 1097 511 l 1171 629 l 1193 629 l 1193 319 l 1171 319 l 1097 435 l 874 435 l 874 76 l 1225 76 l 1325 271 l 1347 271 l 1347 0 l 582 0 m 622 76 l 699 76 l 699 840 l 604 840 q 353 738 443 840 q 263 464 263 636 q 354 182 263 288 q 622 76 446 76 z "},"Ŕ":{"ha":972,"x_min":72,"x_max":982,"o":"m 72 0 l 72 22 l 189 79 l 189 838 l 72 894 l 72 917 l 500 917 q 730 856 646 917 q 814 690 814 796 q 762 555 814 613 q 625 465 710 497 l 885 75 l 982 22 l 982 0 l 722 0 l 460 424 l 363 424 l 363 81 l 467 22 l 467 0 l 72 0 m 433 840 l 363 840 l 363 494 l 442 494 q 581 543 528 494 q 635 669 635 592 q 582 795 635 750 q 433 840 529 840 m 447 986 l 565 1197 l 701 1197 q 692 1150 701 1174 q 650 1104 682 1126 l 472 986 l 447 986 z "},"Ř":{"ha":972,"x_min":72,"x_max":982,"o":"m 72 0 l 72 22 l 189 79 l 189 838 l 72 894 l 72 917 l 500 917 q 730 856 646 917 q 814 690 814 796 q 762 555 814 613 q 625 465 710 497 l 885 75 l 982 22 l 982 0 l 722 0 l 460 424 l 363 424 l 363 81 l 467 22 l 467 0 l 72 0 m 433 840 l 363 840 l 363 494 l 442 494 q 581 543 528 494 q 635 669 635 592 q 582 795 635 750 q 433 840 529 840 m 432 986 l 246 1197 l 269 1197 l 460 1103 l 650 1197 l 674 1197 l 488 986 l 432 986 z "},"Ŗ":{"ha":972,"x_min":72,"x_max":982,"o":"m 72 0 l 72 22 l 189 79 l 189 838 l 72 894 l 72 917 l 500 917 q 730 856 646 917 q 814 690 814 796 q 762 555 814 613 q 625 465 710 497 l 885 75 l 982 22 l 982 0 l 722 0 l 460 424 l 363 424 l 363 81 l 467 22 l 467 0 l 72 0 m 433 840 l 363 840 l 363 494 l 442 494 q 581 543 528 494 q 635 669 635 592 q 582 795 635 750 q 433 840 529 840 m 489 -332 q 465 -331 478 -332 q 442 -328 451 -331 l 442 -303 q 462 -307 451 -306 q 479 -308 472 -308 q 533 -296 514 -308 q 553 -258 553 -283 q 526 -215 553 -226 q 440 -204 499 -204 l 440 -136 q 452 -115 440 -124 q 497 -107 464 -107 q 606 -135 569 -107 q 643 -217 643 -164 q 600 -302 643 -272 q 489 -332 557 -332 z "},"Ȑ":{"ha":972,"x_min":72,"x_max":982,"o":"m 72 0 l 72 22 l 189 79 l 189 838 l 72 894 l 72 917 l 500 917 q 730 856 646 917 q 814 690 814 796 q 762 555 814 613 q 625 465 710 497 l 885 75 l 982 22 l 982 0 l 722 0 l 460 424 l 363 424 l 363 81 l 467 22 l 467 0 l 72 0 m 433 840 l 363 840 l 363 494 l 442 494 q 581 543 528 494 q 635 669 635 592 q 582 795 635 750 q 433 840 529 840 m 358 986 l 208 1110 q 184 1153 183 1129 q 192 1197 185 1176 l 294 1197 l 382 986 l 358 986 m 536 986 l 404 1110 q 381 1154 381 1132 q 388 1197 381 1176 l 490 1197 l 561 986 l 536 986 z "},"Ȓ":{"ha":972,"x_min":72,"x_max":982,"o":"m 72 0 l 72 22 l 189 79 l 189 838 l 72 894 l 72 917 l 500 917 q 730 856 646 917 q 814 690 814 796 q 762 555 814 613 q 625 465 710 497 l 885 75 l 982 22 l 982 0 l 722 0 l 460 424 l 363 424 l 363 81 l 467 22 l 467 0 l 72 0 m 433 840 l 363 840 l 363 494 l 442 494 q 581 543 528 494 q 635 669 635 592 q 582 795 635 750 q 433 840 529 840 m 246 986 q 320 1142 271 1088 q 460 1197 369 1197 q 603 1142 556 1197 q 674 986 650 1088 l 650 986 q 572 1076 615 1056 q 460 1096 529 1096 q 348 1076 390 1096 q 269 986 306 1056 l 246 986 z "},"Ṛ":{"ha":972,"x_min":72,"x_max":982,"o":"m 72 0 l 72 22 l 189 79 l 189 838 l 72 894 l 72 917 l 500 917 q 730 856 646 917 q 814 690 814 796 q 762 555 814 613 q 625 465 710 497 l 885 75 l 982 22 l 982 0 l 722 0 l 460 424 l 363 424 l 363 81 l 467 22 l 467 0 l 72 0 m 433 840 l 363 840 l 363 494 l 442 494 q 581 543 528 494 q 635 669 635 592 q 582 795 635 750 q 433 840 529 840 z "},"Ṟ":{"ha":972,"x_min":72,"x_max":982,"o":"m 72 0 l 72 22 l 189 79 l 189 838 l 72 894 l 72 917 l 500 917 q 730 856 646 917 q 814 690 814 796 q 762 555 814 613 q 625 465 710 497 l 885 75 l 982 22 l 982 0 l 722 0 l 460 424 l 363 424 l 363 81 l 467 22 l 467 0 l 72 0 m 433 840 l 363 840 l 363 494 l 442 494 q 581 543 528 494 q 635 669 635 592 q 582 795 635 750 q 433 840 529 840 z "},"ẞ":{"ha":1543,"x_min":72,"x_max":1471,"o":"m 372 -14 q 217 3 283 -14 q 86 54 151 21 l 72 286 l 97 286 l 182 126 q 363 56 268 56 q 488 94 440 56 q 535 203 535 132 q 510 288 535 256 q 436 348 486 321 q 306 411 386 375 q 156 513 208 458 q 103 661 103 568 q 129 763 103 714 q 199 849 156 811 q 298 908 243 886 q 411 931 353 931 q 541 915 481 931 q 657 869 601 899 l 671 647 l 647 647 l 563 800 q 488 846 522 831 q 408 861 453 861 q 312 822 350 861 q 274 724 274 783 q 315 623 274 661 q 454 539 357 585 q 593 463 539 500 q 674 378 647 425 q 700 261 700 331 q 672 144 700 194 q 595 58 643 93 q 489 4 547 22 q 372 -14 431 -14 m 1143 -14 q 988 3 1054 -14 q 857 54 922 21 l 843 286 l 868 286 l 953 126 q 1133 56 1039 56 q 1258 94 1211 56 q 1306 203 1306 132 q 1281 288 1306 256 q 1207 348 1257 321 q 1076 411 1157 375 q 926 513 979 458 q 874 661 874 568 q 900 763 874 714 q 970 849 926 811 q 1069 908 1014 886 q 1182 931 1124 931 q 1312 915 1251 931 q 1428 869 1372 899 l 1442 647 l 1418 647 l 1333 800 q 1258 846 1293 831 q 1179 861 1224 861 q 1083 822 1121 861 q 1044 724 1044 783 q 1086 623 1044 661 q 1225 539 1128 585 q 1364 463 1310 500 q 1444 378 1418 425 q 1471 261 1471 331 q 1442 144 1471 194 q 1366 58 1414 93 q 1260 4 1318 22 q 1143 -14 1201 -14 z "},"Ś":{"ha":771,"x_min":72,"x_max":700,"o":"m 372 -14 q 217 3 283 -14 q 86 54 151 21 l 72 286 l 97 286 l 182 126 q 363 56 268 56 q 488 94 440 56 q 535 203 535 132 q 510 288 535 256 q 436 348 486 321 q 306 411 386 375 q 156 513 208 458 q 103 661 103 568 q 129 763 103 714 q 199 849 156 811 q 298 908 243 886 q 411 931 353 931 q 541 915 481 931 q 657 869 601 899 l 671 647 l 647 647 l 563 800 q 488 846 522 831 q 408 861 453 861 q 312 822 350 861 q 274 724 274 783 q 315 623 274 661 q 454 539 357 585 q 593 463 539 500 q 674 378 647 425 q 700 261 700 331 q 672 144 700 194 q 595 58 643 93 q 489 4 547 22 q 372 -14 431 -14 m 389 986 l 507 1197 l 643 1197 q 633 1150 643 1174 q 592 1104 624 1126 l 414 986 l 389 986 z "},"Ŝ":{"ha":771,"x_min":72,"x_max":700,"o":"m 372 -14 q 217 3 283 -14 q 86 54 151 21 l 72 286 l 97 286 l 182 126 q 363 56 268 56 q 488 94 440 56 q 535 203 535 132 q 510 288 535 256 q 436 348 486 321 q 306 411 386 375 q 156 513 208 458 q 103 661 103 568 q 129 763 103 714 q 199 849 156 811 q 298 908 243 886 q 411 931 353 931 q 541 915 481 931 q 657 869 601 899 l 671 647 l 647 647 l 563 800 q 488 846 522 831 q 408 861 453 861 q 312 822 350 861 q 274 724 274 783 q 315 623 274 661 q 454 539 357 585 q 593 463 539 500 q 674 378 647 425 q 700 261 700 331 q 672 144 700 194 q 595 58 643 93 q 489 4 547 22 q 372 -14 431 -14 m 186 986 l 372 1197 l 428 1197 l 614 986 l 590 986 l 400 1081 l 210 986 l 186 986 z "},"Š":{"ha":771,"x_min":72,"x_max":700,"o":"m 372 -14 q 217 3 283 -14 q 86 54 151 21 l 72 286 l 97 286 l 182 126 q 363 56 268 56 q 488 94 440 56 q 535 203 535 132 q 510 288 535 256 q 436 348 486 321 q 306 411 386 375 q 156 513 208 458 q 103 661 103 568 q 129 763 103 714 q 199 849 156 811 q 298 908 243 886 q 411 931 353 931 q 541 915 481 931 q 657 869 601 899 l 671 647 l 647 647 l 563 800 q 488 846 522 831 q 408 861 453 861 q 312 822 350 861 q 274 724 274 783 q 315 623 274 661 q 454 539 357 585 q 593 463 539 500 q 674 378 647 425 q 700 261 700 331 q 672 144 700 194 q 595 58 643 93 q 489 4 547 22 q 372 -14 431 -14 m 372 986 l 186 1197 l 210 1197 l 400 1103 l 590 1197 l 614 1197 l 428 986 l 372 986 z "},"Ş":{"ha":771,"x_min":72,"x_max":700,"o":"m 389 -333 q 275 -297 313 -333 l 275 -275 l 279 -275 q 318 -287 297 -283 q 363 -290 339 -290 q 420 -276 403 -290 q 438 -237 438 -261 q 410 -187 438 -207 q 300 -143 382 -167 l 360 -14 q 213 5 276 -12 q 86 54 150 22 l 72 286 l 97 286 l 182 126 q 363 56 268 56 q 488 94 440 56 q 535 203 535 132 q 510 288 535 256 q 436 348 486 321 q 306 411 386 375 q 156 513 208 458 q 103 661 103 568 q 129 763 103 714 q 199 849 156 811 q 298 908 243 886 q 411 931 353 931 q 541 915 481 931 q 657 869 601 899 l 671 647 l 647 647 l 567 797 q 490 845 525 829 q 408 861 454 861 q 312 822 350 861 q 274 724 274 783 q 315 623 274 661 q 454 539 357 585 q 593 463 539 500 q 674 378 647 425 q 700 261 700 331 q 658 122 700 181 q 550 30 617 64 q 411 -12 483 -4 l 386 -67 q 499 -122 467 -90 q 531 -210 531 -154 q 493 -298 531 -262 q 389 -333 456 -333 z "},"Ș":{"ha":771,"x_min":72,"x_max":700,"o":"m 372 -14 q 217 3 283 -14 q 86 54 151 21 l 72 286 l 97 286 l 182 126 q 363 56 268 56 q 488 94 440 56 q 535 203 535 132 q 510 288 535 256 q 436 348 486 321 q 306 411 386 375 q 156 513 208 458 q 103 661 103 568 q 129 763 103 714 q 199 849 156 811 q 298 908 243 886 q 411 931 353 931 q 541 915 481 931 q 657 869 601 899 l 671 647 l 647 647 l 563 800 q 488 846 522 831 q 408 861 453 861 q 312 822 350 861 q 274 724 274 783 q 315 623 274 661 q 454 539 357 585 q 593 463 539 500 q 674 378 647 425 q 700 261 700 331 q 672 144 700 194 q 595 58 643 93 q 489 4 547 22 q 372 -14 431 -14 z "},"Ṡ":{"ha":771,"x_min":72,"x_max":700,"o":"m 372 -14 q 217 3 283 -14 q 86 54 151 21 l 72 286 l 97 286 l 182 126 q 363 56 268 56 q 488 94 440 56 q 535 203 535 132 q 510 288 535 256 q 436 348 486 321 q 306 411 386 375 q 156 513 208 458 q 103 661 103 568 q 129 763 103 714 q 199 849 156 811 q 298 908 243 886 q 411 931 353 931 q 541 915 481 931 q 657 869 601 899 l 671 647 l 647 647 l 563 800 q 488 846 522 831 q 408 861 453 861 q 312 822 350 861 q 274 724 274 783 q 315 623 274 661 q 454 539 357 585 q 593 463 539 500 q 674 378 647 425 q 700 261 700 331 q 672 144 700 194 q 595 58 643 93 q 489 4 547 22 q 372 -14 431 -14 m 400 1004 q 333 1031 361 1004 q 306 1099 306 1058 q 333 1165 306 1139 q 400 1192 361 1192 q 467 1165 439 1192 q 494 1099 494 1139 q 467 1031 494 1058 q 400 1004 439 1004 z "},"Ṣ":{"ha":771,"x_min":72,"x_max":700,"o":"m 372 -14 q 217 3 283 -14 q 86 54 151 21 l 72 286 l 97 286 l 182 126 q 363 56 268 56 q 488 94 440 56 q 535 203 535 132 q 510 288 535 256 q 436 348 486 321 q 306 411 386 375 q 156 513 208 458 q 103 661 103 568 q 129 763 103 714 q 199 849 156 811 q 298 908 243 886 q 411 931 353 931 q 541 915 481 931 q 657 869 601 899 l 671 647 l 647 647 l 563 800 q 488 846 522 831 q 408 861 453 861 q 312 822 350 861 q 274 724 274 783 q 315 623 274 661 q 454 539 357 585 q 593 463 539 500 q 674 378 647 425 q 700 261 700 331 q 672 144 700 194 q 595 58 643 93 q 489 4 547 22 q 372 -14 431 -14 z "},"Ṥ":{"ha":771,"x_min":72,"x_max":700,"o":"m 372 -14 q 217 3 283 -14 q 86 54 151 21 l 72 286 l 97 286 l 182 126 q 363 56 268 56 q 488 94 440 56 q 535 203 535 132 q 510 288 535 256 q 436 348 486 321 q 306 411 386 375 q 156 513 208 458 q 103 661 103 568 q 129 763 103 714 q 199 849 156 811 q 298 908 243 886 q 411 931 353 931 q 541 915 481 931 q 657 869 601 899 l 671 647 l 647 647 l 563 800 q 488 846 522 831 q 408 861 453 861 q 312 822 350 861 q 274 724 274 783 q 315 623 274 661 q 454 539 357 585 q 593 463 539 500 q 674 378 647 425 q 700 261 700 331 q 672 144 700 194 q 595 58 643 93 q 489 4 547 22 q 372 -14 431 -14 z "},"Ṧ":{"ha":771,"x_min":72,"x_max":700,"o":"m 372 -14 q 217 3 283 -14 q 86 54 151 21 l 72 286 l 97 286 l 182 126 q 363 56 268 56 q 488 94 440 56 q 535 203 535 132 q 510 288 535 256 q 436 348 486 321 q 306 411 386 375 q 156 513 208 458 q 103 661 103 568 q 129 763 103 714 q 199 849 156 811 q 298 908 243 886 q 411 931 353 931 q 541 915 481 931 q 657 869 601 899 l 671 647 l 647 647 l 563 800 q 488 846 522 831 q 408 861 453 861 q 312 822 350 861 q 274 724 274 783 q 315 623 274 661 q 454 539 357 585 q 593 463 539 500 q 674 378 647 425 q 700 261 700 331 q 672 144 700 194 q 595 58 643 93 q 489 4 547 22 q 372 -14 431 -14 z "},"Ṩ":{"ha":771,"x_min":72,"x_max":700,"o":"m 372 -14 q 217 3 283 -14 q 86 54 151 21 l 72 286 l 97 286 l 182 126 q 363 56 268 56 q 488 94 440 56 q 535 203 535 132 q 510 288 535 256 q 436 348 486 321 q 306 411 386 375 q 156 513 208 458 q 103 661 103 568 q 129 763 103 714 q 199 849 156 811 q 298 908 243 886 q 411 931 353 931 q 541 915 481 931 q 657 869 601 899 l 671 647 l 647 647 l 563 800 q 488 846 522 831 q 408 861 453 861 q 312 822 350 861 q 274 724 274 783 q 315 623 274 661 q 454 539 357 585 q 593 463 539 500 q 674 378 647 425 q 700 261 700 331 q 672 144 700 194 q 595 58 643 93 q 489 4 547 22 q 372 -14 431 -14 m 400 1004 q 333 1031 361 1004 q 306 1099 306 1058 q 333 1165 306 1139 q 400 1192 361 1192 q 467 1165 439 1192 q 494 1099 494 1139 q 467 1031 494 1058 q 400 1004 439 1004 z "},"Ť":{"ha":958,"x_min":56,"x_max":903,"o":"m 247 0 l 247 22 l 392 79 l 392 840 l 182 840 l 78 622 l 56 622 l 56 917 l 903 917 l 903 622 l 881 622 l 776 840 l 567 840 l 567 79 l 710 22 l 710 0 l 247 0 m 451 986 l 265 1197 l 289 1197 l 479 1103 l 669 1197 l 693 1197 l 507 986 l 451 986 z "},"Ț":{"ha":958,"x_min":56,"x_max":903,"o":"m 247 0 l 247 22 l 392 79 l 392 840 l 182 840 l 78 622 l 56 622 l 56 917 l 903 917 l 903 622 l 881 622 l 776 840 l 567 840 l 567 79 l 710 22 l 710 0 l 247 0 z "},"Ŧ":{"ha":958,"x_min":56,"x_max":903,"o":"m 247 0 l 247 22 l 392 79 l 392 439 l 218 439 l 218 511 l 392 511 l 392 840 l 182 840 l 78 622 l 56 622 l 56 917 l 903 917 l 903 622 l 881 622 l 776 840 l 567 840 l 567 511 l 739 511 l 739 439 l 567 439 l 567 79 l 710 22 l 710 0 l 247 0 z "},"Ţ":{"ha":958,"x_min":56,"x_max":903,"o":"m 247 0 l 247 22 l 392 79 l 392 840 l 182 840 l 78 622 l 56 622 l 56 917 l 903 917 l 903 622 l 881 622 l 776 840 l 567 840 l 567 79 l 710 22 l 710 0 l 506 0 l 475 -67 q 586 -122 554 -90 q 618 -210 618 -154 q 581 -298 618 -262 q 478 -333 544 -333 q 364 -297 401 -333 l 364 -275 l 368 -275 q 407 -287 386 -283 q 451 -290 428 -290 q 508 -276 490 -290 q 526 -237 526 -261 q 499 -187 526 -207 q 389 -143 471 -167 l 456 0 l 247 0 z "},"Ṭ":{"ha":958,"x_min":56,"x_max":903,"o":"m 247 0 l 247 22 l 392 79 l 392 840 l 182 840 l 78 622 l 56 622 l 56 917 l 903 917 l 903 622 l 881 622 l 776 840 l 567 840 l 567 79 l 710 22 l 710 0 l 247 0 z "},"Ṯ":{"ha":958,"x_min":56,"x_max":903,"o":"m 247 0 l 247 22 l 392 79 l 392 840 l 182 840 l 78 622 l 56 622 l 56 917 l 903 917 l 903 622 l 881 622 l 776 840 l 567 840 l 567 79 l 710 22 l 710 0 l 247 0 z "},"Ù":{"ha":1147,"x_min":72,"x_max":1074,"o":"m 578 -14 q 376 25 464 -14 q 239 150 289 64 q 189 378 189 236 l 189 838 l 72 894 l 72 917 l 479 917 l 479 894 l 364 838 l 364 386 q 400 205 364 272 q 497 109 436 138 q 632 81 557 81 q 745 106 693 81 q 829 188 797 132 q 861 338 861 244 l 861 840 l 728 894 l 728 917 l 1074 917 l 1074 894 l 958 839 l 958 378 q 910 150 958 236 q 775 25 861 64 q 578 -14 689 -14 m 597 986 l 418 1104 q 376 1150 386 1126 q 367 1197 367 1174 l 504 1197 l 621 986 l 597 986 z "},"Ú":{"ha":1147,"x_min":72,"x_max":1074,"o":"m 578 -14 q 376 25 464 -14 q 239 150 289 64 q 189 378 189 236 l 189 838 l 72 894 l 72 917 l 479 917 l 479 894 l 364 838 l 364 386 q 400 205 364 272 q 497 109 436 138 q 632 81 557 81 q 745 106 693 81 q 829 188 797 132 q 861 338 861 244 l 861 840 l 728 894 l 728 917 l 1074 917 l 1074 894 l 958 839 l 958 378 q 910 150 958 236 q 775 25 861 64 q 578 -14 689 -14 m 597 986 l 715 1197 l 851 1197 q 842 1150 851 1174 q 800 1104 832 1126 l 622 986 l 597 986 z "},"Û":{"ha":1147,"x_min":72,"x_max":1074,"o":"m 578 -14 q 376 25 464 -14 q 239 150 289 64 q 189 378 189 236 l 189 838 l 72 894 l 72 917 l 479 917 l 479 894 l 364 838 l 364 386 q 400 205 364 272 q 497 109 436 138 q 632 81 557 81 q 745 106 693 81 q 829 188 797 132 q 861 338 861 244 l 861 840 l 728 894 l 728 917 l 1074 917 l 1074 894 l 958 839 l 958 378 q 910 150 958 236 q 775 25 861 64 q 578 -14 689 -14 m 396 986 l 582 1197 l 638 1197 l 824 986 l 800 986 l 610 1081 l 419 986 l 396 986 z "},"Ũ":{"ha":1147,"x_min":72,"x_max":1074,"o":"m 578 -14 q 376 25 464 -14 q 239 150 289 64 q 189 378 189 236 l 189 838 l 72 894 l 72 917 l 479 917 l 479 894 l 364 838 l 364 386 q 400 205 364 272 q 497 109 436 138 q 632 81 557 81 q 745 106 693 81 q 829 188 797 132 q 861 338 861 244 l 861 840 l 728 894 l 728 917 l 1074 917 l 1074 894 l 958 839 l 958 378 q 910 150 958 236 q 775 25 861 64 q 578 -14 689 -14 m 388 1006 q 431 1111 410 1075 q 476 1160 453 1147 q 528 1174 499 1174 q 599 1155 567 1174 q 663 1118 632 1136 q 724 1100 693 1100 q 768 1114 749 1100 q 806 1174 788 1128 l 832 1174 q 788 1067 810 1103 q 744 1018 767 1031 q 692 1006 721 1006 q 620 1024 653 1006 q 557 1060 588 1042 q 496 1078 526 1078 q 451 1065 471 1078 q 414 1006 432 1051 l 388 1006 z "},"Ü":{"ha":1147,"x_min":72,"x_max":1074,"o":"m 578 -14 q 376 25 464 -14 q 239 150 289 64 q 189 378 189 236 l 189 838 l 72 894 l 72 917 l 479 917 l 479 894 l 364 838 l 364 386 q 400 205 364 272 q 497 109 436 138 q 632 81 557 81 q 745 106 693 81 q 829 188 797 132 q 861 338 861 244 l 861 840 l 728 894 l 728 917 l 1074 917 l 1074 894 l 958 839 l 958 378 q 910 150 958 236 q 775 25 861 64 q 578 -14 689 -14 m 478 1015 q 423 1038 444 1015 q 401 1092 401 1060 q 423 1144 401 1122 q 478 1167 444 1167 q 531 1144 510 1167 q 553 1092 553 1122 q 531 1038 553 1060 q 478 1015 510 1015 m 744 1015 q 690 1038 711 1015 q 669 1092 669 1060 q 690 1144 669 1122 q 744 1167 711 1167 q 799 1144 778 1167 q 819 1092 819 1122 q 799 1038 819 1060 q 744 1015 778 1015 z "},"Ū":{"ha":1147,"x_min":72,"x_max":1074,"o":"m 578 -14 q 376 25 464 -14 q 239 150 289 64 q 189 378 189 236 l 189 838 l 72 894 l 72 917 l 479 917 l 479 894 l 364 838 l 364 386 q 400 205 364 272 q 497 109 436 138 q 632 81 557 81 q 745 106 693 81 q 829 188 797 132 q 861 338 861 244 l 861 840 l 728 894 l 728 917 l 1074 917 l 1074 894 l 958 839 l 958 378 q 910 150 958 236 q 775 25 861 64 q 578 -14 689 -14 m 415 1056 l 415 1132 l 804 1132 l 804 1056 l 415 1056 z "},"Ŭ":{"ha":1147,"x_min":72,"x_max":1074,"o":"m 578 -14 q 376 25 464 -14 q 239 150 289 64 q 189 378 189 236 l 189 838 l 72 894 l 72 917 l 479 917 l 479 894 l 364 838 l 364 386 q 400 205 364 272 q 497 109 436 138 q 632 81 557 81 q 745 106 693 81 q 829 188 797 132 q 861 338 861 244 l 861 840 l 728 894 l 728 917 l 1074 917 l 1074 894 l 958 839 l 958 378 q 910 150 958 236 q 775 25 861 64 q 578 -14 689 -14 m 610 986 q 467 1041 514 986 q 396 1197 419 1096 l 419 1197 q 497 1108 454 1128 q 610 1088 540 1088 q 722 1108 679 1088 q 800 1197 764 1128 l 824 1197 q 749 1041 799 1096 q 610 986 700 986 z "},"Ů":{"ha":1147,"x_min":72,"x_max":1074,"o":"m 578 -14 q 376 25 464 -14 q 239 150 289 64 q 189 378 189 236 l 189 838 l 72 894 l 72 917 l 479 917 l 479 894 l 364 838 l 364 386 q 400 205 364 272 q 497 109 436 138 q 632 81 557 81 q 745 106 693 81 q 829 188 797 132 q 861 338 861 244 l 861 840 l 728 894 l 728 917 l 1074 917 l 1074 894 l 958 839 l 958 378 q 910 150 958 236 q 775 25 861 64 q 578 -14 689 -14 m 610 986 q 522 1019 556 986 q 488 1103 488 1051 q 522 1186 488 1153 q 610 1219 556 1219 q 698 1186 664 1219 q 732 1103 732 1153 q 699 1019 732 1053 q 610 986 665 986 m 617 1019 q 660 1093 660 1019 q 604 1186 660 1186 q 561 1113 561 1186 q 617 1019 561 1019 z "},"Ű":{"ha":1147,"x_min":72,"x_max":1074,"o":"m 578 -14 q 376 25 464 -14 q 239 150 289 64 q 189 378 189 236 l 189 838 l 72 894 l 72 917 l 479 917 l 479 894 l 364 838 l 364 386 q 400 205 364 272 q 497 109 436 138 q 632 81 557 81 q 745 106 693 81 q 829 188 797 132 q 861 338 861 244 l 861 840 l 728 894 l 728 917 l 1074 917 l 1074 894 l 958 839 l 958 378 q 910 150 958 236 q 775 25 861 64 q 578 -14 689 -14 m 510 986 l 572 1197 l 675 1197 q 681 1154 682 1176 q 658 1110 681 1132 l 533 986 l 510 986 m 686 986 l 768 1197 l 872 1197 q 878 1153 878 1176 q 856 1110 879 1131 l 711 986 l 686 986 z "},"Ų":{"ha":1147,"x_min":72,"x_max":1074,"o":"m 603 -333 q 502 -300 540 -333 q 464 -210 464 -267 q 493 -115 464 -162 q 571 -14 522 -68 q 372 27 458 -12 q 238 152 286 67 q 189 378 189 238 l 189 838 l 72 894 l 72 917 l 479 917 l 479 894 l 364 838 l 364 386 q 400 205 364 272 q 497 109 436 138 q 632 81 557 81 q 745 106 693 81 q 829 188 797 132 q 861 338 861 244 l 861 840 l 728 894 l 728 917 l 1074 917 l 1074 894 l 958 839 l 958 378 q 915 162 958 246 q 797 36 872 78 q 619 -12 721 -6 q 568 -178 568 -101 q 653 -265 568 -265 q 686 -260 668 -265 q 719 -246 704 -256 l 725 -246 l 725 -267 q 675 -315 706 -297 q 603 -333 644 -333 z "},"Ụ":{"ha":1147,"x_min":72,"x_max":1074,"o":"m 578 -14 q 376 25 464 -14 q 239 150 289 64 q 189 378 189 236 l 189 838 l 72 894 l 72 917 l 479 917 l 479 894 l 364 838 l 364 386 q 400 205 364 272 q 497 109 436 138 q 632 81 557 81 q 745 106 693 81 q 829 188 797 132 q 861 338 861 244 l 861 840 l 728 894 l 728 917 l 1074 917 l 1074 894 l 958 839 l 958 378 q 910 150 958 236 q 775 25 861 64 q 578 -14 689 -14 z "},"Ȕ":{"ha":1147,"x_min":72,"x_max":1074,"o":"m 578 -14 q 376 25 464 -14 q 239 150 289 64 q 189 378 189 236 l 189 838 l 72 894 l 72 917 l 479 917 l 479 894 l 364 838 l 364 386 q 400 205 364 272 q 497 109 436 138 q 632 81 557 81 q 745 106 693 81 q 829 188 797 132 q 861 338 861 244 l 861 840 l 728 894 l 728 917 l 1074 917 l 1074 894 l 958 839 l 958 378 q 910 150 958 236 q 775 25 861 64 q 578 -14 689 -14 m 508 986 l 358 1110 q 334 1153 333 1129 q 342 1197 335 1176 l 444 1197 l 532 986 l 508 986 m 686 986 l 554 1110 q 531 1154 531 1132 q 538 1197 531 1176 l 640 1197 l 711 986 l 686 986 z "},"Ȗ":{"ha":1147,"x_min":72,"x_max":1074,"o":"m 578 -14 q 376 25 464 -14 q 239 150 289 64 q 189 378 189 236 l 189 838 l 72 894 l 72 917 l 479 917 l 479 894 l 364 838 l 364 386 q 400 205 364 272 q 497 109 436 138 q 632 81 557 81 q 745 106 693 81 q 829 188 797 132 q 861 338 861 244 l 861 840 l 728 894 l 728 917 l 1074 917 l 1074 894 l 958 839 l 958 378 q 910 150 958 236 q 775 25 861 64 q 578 -14 689 -14 m 396 986 q 470 1142 421 1088 q 610 1197 519 1197 q 753 1142 706 1197 q 824 986 800 1088 l 800 986 q 722 1076 765 1056 q 610 1096 679 1096 q 498 1076 540 1096 q 419 986 456 1056 l 396 986 z "},"Ủ":{"ha":1147,"x_min":72,"x_max":1074,"o":"m 578 -14 q 376 25 464 -14 q 239 150 289 64 q 189 378 189 236 l 189 838 l 72 894 l 72 917 l 479 917 l 479 894 l 364 838 l 364 386 q 400 205 364 272 q 497 109 436 138 q 632 81 557 81 q 745 106 693 81 q 829 188 797 132 q 861 338 861 244 l 861 840 l 728 894 l 728 917 l 1074 917 l 1074 894 l 958 839 l 958 378 q 910 150 958 236 q 775 25 861 64 q 578 -14 689 -14 m 543 986 l 543 988 q 610 1019 588 1004 q 633 1064 633 1035 q 610 1101 633 1086 q 529 1126 588 1117 l 547 1215 q 679 1173 642 1207 q 717 1103 717 1139 q 676 1017 717 1047 q 554 975 635 986 l 543 986 z "},"Ṹ":{"ha":1147,"x_min":72,"x_max":1074,"o":"m 578 -14 q 376 25 464 -14 q 239 150 289 64 q 189 378 189 236 l 189 838 l 72 894 l 72 917 l 479 917 l 479 894 l 364 838 l 364 386 q 400 205 364 272 q 497 109 436 138 q 632 81 557 81 q 745 106 693 81 q 829 188 797 132 q 861 338 861 244 l 861 840 l 728 894 l 728 917 l 1074 917 l 1074 894 l 958 839 l 958 378 q 910 150 958 236 q 775 25 861 64 q 578 -14 689 -14 z "},"Ṻ":{"ha":1147,"x_min":72,"x_max":1074,"o":"m 578 -14 q 376 25 464 -14 q 239 150 289 64 q 189 378 189 236 l 189 838 l 72 894 l 72 917 l 479 917 l 479 894 l 364 838 l 364 386 q 400 205 364 272 q 497 109 436 138 q 632 81 557 81 q 745 106 693 81 q 829 188 797 132 q 861 338 861 244 l 861 840 l 728 894 l 728 917 l 1074 917 l 1074 894 l 958 839 l 958 378 q 910 150 958 236 q 775 25 861 64 q 578 -14 689 -14 z "},"Ư":{"ha":1147,"x_min":72,"x_max":1272,"o":"m 578 -14 q 376 25 464 -14 q 239 150 289 64 q 189 378 189 236 l 189 838 l 72 894 l 72 917 l 479 917 l 479 894 l 364 838 l 364 386 q 400 205 364 272 q 497 109 436 138 q 632 81 557 81 q 745 106 693 81 q 829 188 797 132 q 861 338 861 244 l 861 840 l 728 894 l 728 917 l 1074 917 q 1140 933 1121 917 q 1158 985 1158 950 l 1158 1038 l 1167 1046 l 1235 1046 q 1265 1038 1257 1046 q 1272 1003 1272 1031 q 1227 913 1272 940 q 1108 885 1182 885 l 1053 885 l 958 839 l 958 378 q 910 150 958 236 q 775 25 861 64 q 578 -14 689 -14 z "},"Ứ":{"ha":1147,"x_min":72,"x_max":1272,"o":"m 578 -14 q 376 25 464 -14 q 239 150 289 64 q 189 378 189 236 l 189 838 l 72 894 l 72 917 l 479 917 l 479 894 l 364 838 l 364 386 q 400 205 364 272 q 497 109 436 138 q 632 81 557 81 q 745 106 693 81 q 829 188 797 132 q 861 338 861 244 l 861 840 l 728 894 l 728 917 l 1074 917 q 1140 933 1121 917 q 1158 985 1158 950 l 1158 1038 l 1167 1046 l 1235 1046 q 1265 1038 1257 1046 q 1272 1003 1272 1031 q 1227 913 1272 940 q 1108 885 1182 885 l 1053 885 l 958 839 l 958 378 q 910 150 958 236 q 775 25 861 64 q 578 -14 689 -14 m 597 986 l 715 1197 l 851 1197 q 842 1150 851 1174 q 800 1104 832 1126 l 622 986 l 597 986 z "},"Ự":{"ha":1147,"x_min":72,"x_max":1272,"o":"m 578 -14 q 376 25 464 -14 q 239 150 289 64 q 189 378 189 236 l 189 838 l 72 894 l 72 917 l 479 917 l 479 894 l 364 838 l 364 386 q 400 205 364 272 q 497 109 436 138 q 632 81 557 81 q 745 106 693 81 q 829 188 797 132 q 861 338 861 244 l 861 840 l 728 894 l 728 917 l 1074 917 q 1140 933 1121 917 q 1158 985 1158 950 l 1158 1038 l 1167 1046 l 1235 1046 q 1265 1038 1257 1046 q 1272 1003 1272 1031 q 1227 913 1272 940 q 1108 885 1182 885 l 1053 885 l 958 839 l 958 378 q 910 150 958 236 q 775 25 861 64 q 578 -14 689 -14 z "},"Ừ":{"ha":1147,"x_min":72,"x_max":1272,"o":"m 578 -14 q 376 25 464 -14 q 239 150 289 64 q 189 378 189 236 l 189 838 l 72 894 l 72 917 l 479 917 l 479 894 l 364 838 l 364 386 q 400 205 364 272 q 497 109 436 138 q 632 81 557 81 q 745 106 693 81 q 829 188 797 132 q 861 338 861 244 l 861 840 l 728 894 l 728 917 l 1074 917 q 1140 933 1121 917 q 1158 985 1158 950 l 1158 1038 l 1167 1046 l 1235 1046 q 1265 1038 1257 1046 q 1272 1003 1272 1031 q 1227 913 1272 940 q 1108 885 1182 885 l 1053 885 l 958 839 l 958 378 q 910 150 958 236 q 775 25 861 64 q 578 -14 689 -14 m 597 986 l 418 1104 q 376 1150 386 1126 q 367 1197 367 1174 l 504 1197 l 621 986 l 597 986 z "},"Ử":{"ha":1147,"x_min":72,"x_max":1272,"o":"m 578 -14 q 376 25 464 -14 q 239 150 289 64 q 189 378 189 236 l 189 838 l 72 894 l 72 917 l 479 917 l 479 894 l 364 838 l 364 386 q 400 205 364 272 q 497 109 436 138 q 632 81 557 81 q 745 106 693 81 q 829 188 797 132 q 861 338 861 244 l 861 840 l 728 894 l 728 917 l 1074 917 q 1140 933 1121 917 q 1158 985 1158 950 l 1158 1038 l 1167 1046 l 1235 1046 q 1265 1038 1257 1046 q 1272 1003 1272 1031 q 1227 913 1272 940 q 1108 885 1182 885 l 1053 885 l 958 839 l 958 378 q 910 150 958 236 q 775 25 861 64 q 578 -14 689 -14 m 543 986 l 543 988 q 610 1019 588 1004 q 633 1064 633 1035 q 610 1101 633 1086 q 529 1126 588 1117 l 547 1215 q 679 1173 642 1207 q 717 1103 717 1139 q 676 1017 717 1047 q 554 975 635 986 l 543 986 z "},"Ữ":{"ha":1147,"x_min":72,"x_max":1272,"o":"m 578 -14 q 376 25 464 -14 q 239 150 289 64 q 189 378 189 236 l 189 838 l 72 894 l 72 917 l 479 917 l 479 894 l 364 838 l 364 386 q 400 205 364 272 q 497 109 436 138 q 632 81 557 81 q 745 106 693 81 q 829 188 797 132 q 861 338 861 244 l 861 840 l 728 894 l 728 917 l 1074 917 q 1140 933 1121 917 q 1158 985 1158 950 l 1158 1038 l 1167 1046 l 1235 1046 q 1265 1038 1257 1046 q 1272 1003 1272 1031 q 1227 913 1272 940 q 1108 885 1182 885 l 1053 885 l 958 839 l 958 378 q 910 150 958 236 q 775 25 861 64 q 578 -14 689 -14 m 388 1006 q 431 1111 410 1075 q 476 1160 453 1147 q 528 1174 499 1174 q 599 1155 567 1174 q 663 1118 632 1136 q 724 1100 693 1100 q 768 1114 749 1100 q 806 1174 788 1128 l 832 1174 q 788 1067 810 1103 q 744 1018 767 1031 q 692 1006 721 1006 q 620 1024 653 1006 q 557 1060 588 1042 q 496 1078 526 1078 q 451 1065 471 1078 q 414 1006 432 1051 l 388 1006 z "},"Ẁ":{"ha":1413,"x_min":18,"x_max":1394,"o":"m 386 -7 l 124 842 l 18 894 l 18 917 l 421 917 l 421 894 l 304 842 l 469 281 l 475 281 l 717 924 l 786 924 l 1029 281 l 1036 281 l 1201 842 l 1083 894 l 1083 917 l 1394 917 l 1394 894 l 1301 846 l 1035 -7 l 967 -7 l 717 636 l 708 636 l 453 -7 l 386 -7 m 740 986 l 561 1104 q 519 1150 529 1126 q 510 1197 510 1174 l 647 1197 l 764 986 l 740 986 z "},"Ẃ":{"ha":1413,"x_min":18,"x_max":1394,"o":"m 386 -7 l 124 842 l 18 894 l 18 917 l 421 917 l 421 894 l 304 842 l 469 281 l 475 281 l 717 924 l 786 924 l 1029 281 l 1036 281 l 1201 842 l 1083 894 l 1083 917 l 1394 917 l 1394 894 l 1301 846 l 1035 -7 l 967 -7 l 717 636 l 708 636 l 453 -7 l 386 -7 m 740 986 l 858 1197 l 994 1197 q 985 1150 994 1174 q 943 1104 975 1126 l 765 986 l 740 986 z "},"Ŵ":{"ha":1413,"x_min":18,"x_max":1394,"o":"m 386 -7 l 124 842 l 18 894 l 18 917 l 421 917 l 421 894 l 304 842 l 469 281 l 475 281 l 717 924 l 786 924 l 1029 281 l 1036 281 l 1201 842 l 1083 894 l 1083 917 l 1394 917 l 1394 894 l 1301 846 l 1035 -7 l 967 -7 l 717 636 l 708 636 l 453 -7 l 386 -7 m 539 986 l 725 1197 l 781 1197 l 967 986 l 943 986 l 753 1081 l 563 986 l 539 986 z "},"Ẅ":{"ha":1413,"x_min":18,"x_max":1394,"o":"m 386 -7 l 124 842 l 18 894 l 18 917 l 421 917 l 421 894 l 304 842 l 469 281 l 475 281 l 717 924 l 786 924 l 1029 281 l 1036 281 l 1201 842 l 1083 894 l 1083 917 l 1394 917 l 1394 894 l 1301 846 l 1035 -7 l 967 -7 l 717 636 l 708 636 l 453 -7 l 386 -7 m 619 1015 q 565 1038 586 1015 q 543 1092 543 1060 q 565 1144 543 1122 q 619 1167 586 1167 q 673 1144 651 1167 q 694 1092 694 1122 q 673 1038 694 1060 q 619 1015 651 1015 m 886 1015 q 832 1038 853 1015 q 811 1092 811 1060 q 832 1144 811 1122 q 886 1167 853 1167 q 940 1144 919 1167 q 961 1092 961 1122 q 940 1038 961 1060 q 886 1015 919 1015 z "},"Ỳ":{"ha":1026,"x_min":36,"x_max":990,"o":"m 307 0 l 307 22 l 432 79 l 432 428 l 126 844 l 36 894 l 36 917 l 428 917 l 428 894 l 324 844 l 324 839 l 568 507 l 789 836 l 789 842 l 683 894 l 683 917 l 990 917 l 990 894 l 901 849 l 607 429 l 607 79 l 731 22 l 731 0 l 307 0 m 540 986 l 361 1104 q 319 1150 329 1126 q 310 1197 310 1174 l 447 1197 l 564 986 l 540 986 z "},"Ý":{"ha":1026,"x_min":36,"x_max":990,"o":"m 307 0 l 307 22 l 432 79 l 432 428 l 126 844 l 36 894 l 36 917 l 428 917 l 428 894 l 324 844 l 324 839 l 568 507 l 789 836 l 789 842 l 683 894 l 683 917 l 990 917 l 990 894 l 901 849 l 607 429 l 607 79 l 731 22 l 731 0 l 307 0 m 542 986 l 660 1197 l 796 1197 q 786 1150 796 1174 q 744 1104 776 1126 l 567 986 l 542 986 z "},"Ŷ":{"ha":1026,"x_min":36,"x_max":990,"o":"m 307 0 l 307 22 l 432 79 l 432 428 l 126 844 l 36 894 l 36 917 l 428 917 l 428 894 l 324 844 l 324 839 l 568 507 l 789 836 l 789 842 l 683 894 l 683 917 l 990 917 l 990 894 l 901 849 l 607 429 l 607 79 l 731 22 l 731 0 l 307 0 m 339 986 l 525 1197 l 581 1197 l 767 986 l 743 986 l 553 1081 l 363 986 l 339 986 z "},"Ÿ":{"ha":1026,"x_min":36,"x_max":990,"o":"m 307 0 l 307 22 l 432 79 l 432 428 l 126 844 l 36 894 l 36 917 l 428 917 l 428 894 l 324 844 l 324 839 l 568 507 l 789 836 l 789 842 l 683 894 l 683 917 l 990 917 l 990 894 l 901 849 l 607 429 l 607 79 l 731 22 l 731 0 l 307 0 m 421 1015 q 366 1038 388 1015 q 344 1092 344 1060 q 366 1144 344 1122 q 421 1167 388 1167 q 474 1144 453 1167 q 496 1092 496 1122 q 474 1038 496 1060 q 421 1015 453 1015 m 688 1015 q 633 1038 654 1015 q 613 1092 613 1060 q 633 1144 613 1122 q 688 1167 654 1167 q 742 1144 721 1167 q 763 1092 763 1122 q 742 1038 763 1060 q 688 1015 721 1015 z "},"Ỹ":{"ha":1026,"x_min":36,"x_max":990,"o":"m 307 0 l 307 22 l 432 79 l 432 428 l 126 844 l 36 894 l 36 917 l 428 917 l 428 894 l 324 844 l 324 839 l 568 507 l 789 836 l 789 842 l 683 894 l 683 917 l 990 917 l 990 894 l 901 849 l 607 429 l 607 79 l 731 22 l 731 0 l 307 0 m 331 1006 q 374 1111 353 1075 q 419 1160 396 1147 q 471 1174 442 1174 q 542 1155 510 1174 q 606 1118 575 1136 q 667 1100 636 1100 q 711 1114 692 1100 q 749 1174 731 1128 l 775 1174 q 731 1067 753 1103 q 687 1018 710 1031 q 635 1006 664 1006 q 563 1024 596 1006 q 500 1060 531 1042 q 439 1078 469 1078 q 394 1065 414 1078 q 357 1006 375 1051 l 331 1006 z "},"Ȳ":{"ha":1026,"x_min":36,"x_max":990,"o":"m 307 0 l 307 22 l 432 79 l 432 428 l 126 844 l 36 894 l 36 917 l 428 917 l 428 894 l 324 844 l 324 839 l 568 507 l 789 836 l 789 842 l 683 894 l 683 917 l 990 917 l 990 894 l 901 849 l 607 429 l 607 79 l 731 22 l 731 0 l 307 0 m 358 1056 l 358 1132 l 747 1132 l 747 1056 l 358 1056 z "},"Ỵ":{"ha":1026,"x_min":36,"x_max":990,"o":"m 307 0 l 307 22 l 432 79 l 432 428 l 126 844 l 36 894 l 36 917 l 428 917 l 428 894 l 324 844 l 324 839 l 568 507 l 789 836 l 789 842 l 683 894 l 683 917 l 990 917 l 990 894 l 901 849 l 607 429 l 607 79 l 731 22 l 731 0 l 307 0 z "},"Ỷ":{"ha":1026,"x_min":36,"x_max":990,"o":"m 307 0 l 307 22 l 432 79 l 432 428 l 126 844 l 36 894 l 36 917 l 428 917 l 428 894 l 324 844 l 324 839 l 568 507 l 789 836 l 789 842 l 683 894 l 683 917 l 990 917 l 990 894 l 901 849 l 607 429 l 607 79 l 731 22 l 731 0 l 307 0 m 486 986 l 486 988 q 553 1019 531 1004 q 576 1064 576 1035 q 553 1101 576 1086 q 472 1126 531 1117 l 490 1215 q 622 1173 585 1207 q 660 1103 660 1139 q 619 1017 660 1047 q 497 975 578 986 l 486 986 z "},"Ẏ":{"ha":1026,"x_min":36,"x_max":990,"o":"m 307 0 l 307 22 l 432 79 l 432 428 l 126 844 l 36 894 l 36 917 l 428 917 l 428 894 l 324 844 l 324 839 l 568 507 l 789 836 l 789 842 l 683 894 l 683 917 l 990 917 l 990 894 l 901 849 l 607 429 l 607 79 l 731 22 l 731 0 l 307 0 m 553 1004 q 486 1031 514 1004 q 458 1099 458 1058 q 486 1165 458 1139 q 553 1192 514 1192 q 619 1165 592 1192 q 647 1099 647 1139 q 619 1031 647 1058 q 553 1004 592 1004 z "},"Ź":{"ha":942,"x_min":119,"x_max":822,"o":"m 119 0 l 119 40 l 593 840 l 256 840 l 158 646 l 136 646 l 136 917 l 807 917 l 807 876 l 332 76 l 700 76 l 800 285 l 822 285 l 822 0 l 119 0 m 468 986 l 586 1197 l 722 1197 q 713 1150 722 1174 q 671 1104 703 1126 l 493 986 l 468 986 z "},"Ž":{"ha":942,"x_min":119,"x_max":822,"o":"m 119 0 l 119 40 l 593 840 l 256 840 l 158 646 l 136 646 l 136 917 l 807 917 l 807 876 l 332 76 l 700 76 l 800 285 l 822 285 l 822 0 l 119 0 m 453 986 l 267 1197 l 290 1197 l 481 1103 l 671 1197 l 694 1197 l 508 986 l 453 986 z "},"Ż":{"ha":942,"x_min":119,"x_max":822,"o":"m 119 0 l 119 40 l 593 840 l 256 840 l 158 646 l 136 646 l 136 917 l 807 917 l 807 876 l 332 76 l 700 76 l 800 285 l 822 285 l 822 0 l 119 0 m 481 1004 q 414 1031 442 1004 q 386 1099 386 1058 q 414 1165 386 1139 q 481 1192 442 1192 q 547 1165 519 1192 q 575 1099 575 1139 q 547 1031 575 1058 q 481 1004 519 1004 z "},"Ẓ":{"ha":942,"x_min":119,"x_max":822,"o":"m 119 0 l 119 40 l 593 840 l 256 840 l 158 646 l 136 646 l 136 917 l 807 917 l 807 876 l 332 76 l 700 76 l 800 285 l 822 285 l 822 0 l 119 0 z "},"Ə":{"ha":957,"x_min":81,"x_max":878,"o":"m 433 -14 q 176 97 269 -14 q 81 406 82 207 l 90 415 l 699 415 q 699 429 699 421 q 624 688 699 594 q 385 782 550 782 q 231 756 304 782 q 86 683 157 731 l 81 683 l 81 721 q 226 871 128 811 q 454 931 324 931 q 681 877 586 931 q 826 726 775 824 q 878 499 878 629 q 820 233 878 349 q 662 51 763 117 q 433 -14 561 -14 m 461 67 q 624 138 565 67 q 694 344 682 208 l 247 344 q 315 140 260 213 q 461 67 369 67 z "},"Ŋ":{"ha":1124,"x_min":68,"x_max":1056,"o":"m 68 0 l 68 22 l 183 79 l 183 836 l 69 894 l 69 917 l 308 917 l 844 283 l 844 840 l 694 894 l 694 917 l 1056 917 l 1056 894 l 942 839 l 942 -17 q 916 -182 942 -122 q 849 -276 890 -242 q 768 -319 815 -304 q 669 -333 721 -333 q 617 -325 631 -333 q 604 -293 604 -317 l 604 -208 l 611 -203 l 688 -203 q 811 -168 778 -203 q 844 -44 844 -133 l 844 24 l 281 681 l 281 78 l 432 22 l 432 0 l 68 0 z "},"Ð":{"ha":1099,"x_min":72,"x_max":1021,"o":"m 72 0 l 72 22 l 189 79 l 189 439 l 72 439 l 72 511 l 189 511 l 189 838 l 72 894 l 72 917 l 519 917 q 791 863 679 917 q 962 714 903 808 q 1021 500 1021 619 q 983 300 1021 392 q 876 142 944 208 q 713 38 807 75 q 510 0 619 0 l 72 0 m 586 439 l 363 439 l 363 76 l 493 76 q 680 123 603 76 q 798 255 757 169 q 839 457 839 340 q 745 736 839 632 q 472 840 651 840 l 363 840 l 363 511 l 586 511 l 586 439 z "},"Þ":{"ha":924,"x_min":72,"x_max":867,"o":"m 72 0 l 72 22 l 189 79 l 189 838 l 72 894 l 72 917 l 479 917 l 479 894 l 363 838 l 363 743 l 504 743 q 767 684 668 743 q 867 496 867 625 q 815 360 867 419 q 673 267 763 300 q 471 233 583 233 l 363 233 l 363 79 l 479 22 l 479 0 l 72 0 m 442 667 l 363 667 l 363 304 l 451 304 q 624 355 561 304 q 686 483 686 406 q 623 624 686 581 q 442 667 560 667 z "},"Ǆ":{"ha":2022,"x_min":72,"x_max":1903,"o":"m 72 0 l 72 22 l 189 79 l 189 838 l 72 894 l 72 917 l 519 917 q 791 863 679 917 q 962 714 903 808 q 1021 500 1021 619 q 983 300 1021 392 q 876 142 944 208 q 713 38 807 75 q 510 0 619 0 l 72 0 m 472 840 l 363 840 l 363 76 l 493 76 q 680 123 603 76 q 798 255 757 169 q 839 457 839 340 q 745 736 839 632 q 472 840 651 840 m 1200 0 l 1200 40 l 1674 840 l 1336 840 l 1239 646 l 1217 646 l 1217 917 l 1888 917 l 1888 876 l 1413 76 l 1781 76 l 1881 285 l 1903 285 l 1903 0 l 1200 0 m 1533 986 l 1347 1197 l 1371 1197 l 1561 1103 l 1751 1197 l 1775 1197 l 1589 986 l 1533 986 z "},"Ǉ":{"ha":1463,"x_min":72,"x_max":1385,"o":"m 72 0 l 72 22 l 189 79 l 189 838 l 72 894 l 72 917 l 493 917 l 493 894 l 363 838 l 363 76 l 682 76 l 788 326 l 810 326 l 810 0 l 72 0 m 960 -240 q 928 -231 942 -240 q 915 -201 915 -222 q 919 -173 915 -192 q 932 -108 922 -154 l 942 -108 q 976 -117 964 -114 q 1006 -121 989 -121 q 1053 -108 1033 -121 q 1084 -55 1074 -96 q 1094 69 1094 -14 l 1094 838 l 979 894 l 979 917 l 1385 917 l 1385 894 l 1269 838 l 1269 338 q 1250 142 1269 232 q 1199 -18 1231 51 q 1129 -129 1167 -87 q 1039 -215 1075 -189 q 960 -240 1003 -240 z "},"Ǌ":{"ha":1689,"x_min":68,"x_max":1613,"o":"m 68 0 l 68 22 l 183 79 l 183 836 l 69 894 l 69 917 l 308 917 l 844 283 l 844 840 l 694 894 l 694 917 l 1056 917 l 1056 894 l 942 839 l 942 -7 l 869 -7 l 281 685 l 281 78 l 432 22 l 432 0 l 68 0 m 1188 -240 q 1156 -231 1169 -240 q 1143 -201 1143 -222 q 1147 -173 1143 -192 q 1160 -108 1150 -154 l 1169 -108 q 1204 -117 1192 -114 q 1233 -121 1217 -121 q 1281 -108 1261 -121 q 1312 -55 1301 -96 q 1322 69 1322 -14 l 1322 838 l 1207 894 l 1207 917 l 1613 917 l 1613 894 l 1497 838 l 1497 338 q 1478 142 1497 232 q 1426 -18 1458 51 q 1357 -129 1394 -87 q 1267 -215 1303 -189 q 1188 -240 1231 -240 z "},"Ђ":{"ha":1119,"x_min":50,"x_max":1038,"o":"m 219 0 l 219 22 l 364 79 l 364 840 l 176 840 l 72 636 l 50 636 l 50 917 l 889 917 l 889 656 l 867 656 l 763 840 l 539 840 l 539 456 q 649 524 583 497 q 796 551 715 551 q 973 489 908 551 q 1038 279 1038 426 q 1018 115 1038 194 q 967 -28 999 36 q 903 -131 936 -92 q 811 -216 849 -192 q 728 -240 774 -240 q 696 -231 708 -240 q 683 -201 683 -222 q 686 -173 683 -192 q 700 -108 689 -154 l 710 -108 q 744 -117 732 -114 q 774 -121 757 -121 q 820 -108 800 -121 q 851 -55 840 -96 q 863 69 863 -14 l 863 240 q 824 388 863 342 q 693 433 786 433 q 539 386 603 433 l 539 79 l 671 22 l 671 0 l 219 0 z "},"Є":{"ha":996,"x_min":81,"x_max":886,"o":"m 554 -14 q 303 44 410 -14 q 139 205 197 103 q 81 436 81 307 q 121 627 81 538 q 231 785 161 717 q 389 892 300 853 q 576 931 478 931 q 697 922 647 931 q 784 898 746 913 q 861 864 822 883 l 874 611 l 849 611 l 738 806 q 660 848 694 835 q 579 861 625 861 q 426 817 494 861 q 315 695 358 774 q 263 511 272 617 l 549 511 l 622 629 l 644 629 l 644 319 l 622 319 l 549 435 l 261 435 q 308 233 267 317 q 415 103 349 149 q 564 58 482 58 q 672 75 626 58 q 756 115 717 92 l 863 286 l 886 286 l 868 57 q 735 6 810 25 q 554 -14 661 -14 z "},"Ѕ":{"ha":771,"x_min":72,"x_max":700,"o":"m 372 -14 q 217 3 283 -14 q 86 54 151 21 l 72 286 l 97 286 l 182 126 q 363 56 268 56 q 488 94 440 56 q 535 203 535 132 q 510 288 535 256 q 436 348 486 321 q 306 411 386 375 q 156 513 208 458 q 103 661 103 568 q 129 763 103 714 q 199 849 156 811 q 298 908 243 886 q 411 931 353 931 q 541 915 481 931 q 657 869 601 899 l 671 647 l 647 647 l 563 800 q 488 846 522 831 q 408 861 453 861 q 312 822 350 861 q 274 724 274 783 q 315 623 274 661 q 454 539 357 585 q 593 463 539 500 q 674 378 647 425 q 700 261 700 331 q 672 144 700 194 q 595 58 643 93 q 489 4 547 22 q 372 -14 431 -14 z "},"І":{"ha":561,"x_min":78,"x_max":483,"o":"m 78 0 l 78 22 l 193 79 l 193 838 l 78 894 l 78 917 l 483 917 l 483 894 l 368 838 l 368 79 l 483 22 l 483 0 l 78 0 z "},"Ї":{"ha":561,"x_min":71,"x_max":489,"o":"m 78 0 l 78 22 l 193 79 l 193 838 l 78 894 l 78 917 l 483 917 l 483 894 l 368 838 l 368 79 l 483 22 l 483 0 l 78 0 m 147 1015 q 92 1038 114 1015 q 71 1092 71 1060 q 92 1144 71 1122 q 147 1167 114 1167 q 201 1144 179 1167 q 222 1092 222 1122 q 201 1038 222 1060 q 147 1015 179 1015 m 414 1015 q 360 1038 381 1015 q 339 1092 339 1060 q 360 1144 339 1122 q 414 1167 381 1167 q 468 1144 447 1167 q 489 1092 489 1122 q 468 1038 489 1060 q 414 1015 447 1015 z "},"Ј":{"ha":576,"x_min":29,"x_max":499,"o":"m 74 -240 q 42 -231 56 -240 q 29 -201 29 -222 q 33 -173 29 -192 q 46 -108 36 -154 l 56 -108 q 90 -117 78 -114 q 119 -121 103 -121 q 167 -108 147 -121 q 198 -55 188 -96 q 208 69 208 -14 l 208 838 l 93 894 l 93 917 l 499 917 l 499 894 l 383 838 l 383 338 q 364 142 383 232 q 313 -18 344 51 q 243 -129 281 -87 q 153 -215 189 -189 q 74 -240 117 -240 z "},"Љ":{"ha":1357,"x_min":36,"x_max":1318,"o":"m 340 756 q 332 469 340 589 q 308 268 324 350 q 268 132 292 186 q 209 38 242 69 q 144 -3 176 7 q 83 -14 111 -14 q 44 -6 53 -14 q 36 26 36 3 l 36 121 l 42 128 l 56 128 q 207 285 163 128 q 251 754 251 442 l 251 838 l 138 894 l 138 917 l 929 917 l 929 894 l 785 838 l 785 543 l 925 543 q 1131 511 1042 543 q 1269 421 1219 479 q 1318 282 1318 363 q 1269 135 1318 199 q 1131 36 1219 72 q 924 0 1042 0 l 494 0 l 494 22 l 611 79 l 611 840 l 340 840 l 340 756 m 893 467 l 785 467 l 785 76 l 903 76 q 1077 131 1018 76 q 1136 272 1136 186 q 1076 419 1136 372 q 893 467 1017 467 z "},"Њ":{"ha":1494,"x_min":72,"x_max":1456,"o":"m 72 0 l 72 22 l 189 79 l 189 838 l 72 894 l 72 917 l 472 917 l 472 894 l 363 838 l 363 525 l 749 525 l 749 838 l 632 894 l 632 917 l 1067 917 l 1067 894 l 922 838 l 922 525 l 1063 525 q 1269 494 1181 525 q 1406 407 1357 464 q 1456 271 1456 350 q 1406 128 1456 189 q 1268 33 1357 67 q 1061 0 1179 0 l 632 0 l 632 22 l 749 79 l 749 449 l 363 449 l 363 79 l 472 22 l 472 0 l 72 0 m 1031 449 l 922 449 l 922 76 l 1040 76 q 1215 127 1156 76 q 1274 263 1274 178 q 1214 405 1274 361 q 1031 449 1154 449 z "},"Ћ":{"ha":1179,"x_min":50,"x_max":1151,"o":"m 219 0 l 219 22 l 364 79 l 364 840 l 176 840 l 72 636 l 50 636 l 50 917 l 889 917 l 889 650 l 867 650 l 763 840 l 539 840 l 539 456 q 649 524 583 497 q 792 551 714 551 q 974 485 911 551 q 1038 285 1038 419 l 1038 79 l 1151 22 l 1151 0 l 863 0 l 863 240 q 824 386 863 339 q 693 433 786 433 q 539 386 603 433 l 539 79 l 671 22 l 671 0 l 219 0 z "},"Џ":{"ha":1110,"x_min":72,"x_max":1036,"o":"m 472 0 l 72 0 l 72 22 l 188 79 l 188 838 l 72 894 l 72 917 l 471 917 l 471 894 l 363 838 l 363 76 l 746 76 l 746 838 l 639 894 l 639 917 l 1036 917 l 1036 894 l 921 838 l 921 79 l 1036 22 l 1036 0 l 638 0 l 565 -236 l 543 -236 l 472 0 z "},"А":{"ha":1061,"x_min":35,"x_max":1028,"o":"m 35 0 l 35 22 l 121 69 l 481 924 l 578 924 l 933 72 l 1028 22 l 1028 0 l 628 0 l 628 22 l 749 71 l 650 313 l 317 313 l 219 71 l 335 22 l 335 0 l 35 0 m 349 389 l 618 389 l 483 721 l 349 389 z "},"Б":{"ha":953,"x_min":72,"x_max":896,"o":"m 501 0 l 72 0 l 72 22 l 189 79 l 189 838 l 72 894 l 72 917 l 807 917 l 807 650 l 785 650 l 683 840 l 363 840 l 363 533 l 503 533 q 708 503 619 533 q 847 417 797 474 q 896 279 896 360 q 847 133 896 196 q 708 35 797 69 q 501 0 619 0 m 471 463 l 363 463 l 363 76 l 481 76 q 655 131 596 76 q 714 271 714 185 q 654 417 714 371 q 471 463 594 463 z "},"В":{"ha":953,"x_min":72,"x_max":897,"o":"m 72 0 l 72 22 l 189 79 l 189 838 l 72 894 l 72 917 l 479 917 q 651 894 575 917 q 772 826 728 871 q 815 711 815 781 q 765 581 815 640 q 619 497 714 522 q 823 419 749 479 q 897 267 897 360 q 847 130 897 190 q 710 35 797 69 q 511 0 622 0 l 72 0 m 425 840 l 363 840 l 363 508 l 433 508 q 581 551 528 508 q 635 671 635 594 q 425 840 635 840 m 476 438 l 363 438 l 363 76 l 486 76 q 651 127 590 76 q 711 258 711 178 q 650 394 711 350 q 476 438 589 438 z "},"Г":{"ha":844,"x_min":72,"x_max":785,"o":"m 72 0 l 72 22 l 189 79 l 189 838 l 72 894 l 72 917 l 785 917 l 785 676 l 763 676 l 667 840 l 363 840 l 363 79 l 499 22 l 499 0 l 72 0 z "},"Ѓ":{"ha":844,"x_min":72,"x_max":785,"o":"m 72 0 l 72 22 l 189 79 l 189 838 l 72 894 l 72 917 l 785 917 l 785 676 l 763 676 l 667 840 l 363 840 l 363 79 l 499 22 l 499 0 l 72 0 z "},"Ғ":{"ha":844,"x_min":72,"x_max":785,"o":"m 72 0 l 72 22 l 189 79 l 189 439 l 72 439 l 72 511 l 189 511 l 189 838 l 72 894 l 72 917 l 785 917 l 785 676 l 763 676 l 667 840 l 363 840 l 363 511 l 600 511 l 600 439 l 363 439 l 363 79 l 499 22 l 499 0 l 72 0 z "},"Д":{"ha":1015,"x_min":28,"x_max":951,"o":"m 128 894 l 128 917 l 931 917 l 931 894 l 817 838 l 817 76 l 951 76 l 951 -236 l 929 -236 l 806 0 l 172 0 l 50 -236 l 28 -236 l 28 76 l 138 76 q 202 291 179 182 q 234 522 225 400 q 243 789 243 644 l 243 838 l 128 894 m 642 76 l 642 840 l 331 840 l 331 790 q 322 519 331 642 q 292 290 314 397 q 233 76 271 182 l 642 76 z "},"Е":{"ha":929,"x_min":72,"x_max":838,"o":"m 72 0 l 72 22 l 189 79 l 189 838 l 72 894 l 72 917 l 799 917 l 799 676 l 776 676 l 681 840 l 363 840 l 363 511 l 586 511 l 661 629 l 683 629 l 683 319 l 661 319 l 586 435 l 363 435 l 363 76 l 715 76 l 815 271 l 838 271 l 838 0 l 72 0 z "},"Ё":{"ha":929,"x_min":72,"x_max":838,"o":"m 72 0 l 72 22 l 189 79 l 189 838 l 72 894 l 72 917 l 799 917 l 799 676 l 776 676 l 681 840 l 363 840 l 363 511 l 586 511 l 661 629 l 683 629 l 683 319 l 661 319 l 586 435 l 363 435 l 363 76 l 715 76 l 815 271 l 838 271 l 838 0 l 72 0 m 347 1015 q 292 1038 314 1015 q 271 1092 271 1060 q 292 1144 271 1122 q 347 1167 314 1167 q 401 1144 379 1167 q 422 1092 422 1122 q 401 1038 422 1060 q 347 1015 379 1015 m 614 1015 q 560 1038 581 1015 q 539 1092 539 1060 q 560 1144 539 1122 q 614 1167 581 1167 q 668 1144 647 1167 q 689 1092 689 1122 q 668 1038 689 1060 q 614 1015 647 1015 z "},"Ж":{"ha":1471,"x_min":15,"x_max":1456,"o":"m 533 0 l 533 22 l 644 79 l 644 838 l 533 894 l 533 917 l 929 917 l 929 894 l 818 838 l 818 79 l 929 22 l 929 0 l 533 0 m 819 465 l 1183 844 l 1082 894 l 1082 917 l 1403 917 l 1403 894 l 1294 853 l 981 529 l 1365 61 l 1456 22 l 1456 0 l 1194 0 l 819 465 m 643 465 l 268 0 l 15 0 l 15 22 l 114 64 l 483 518 l 154 854 l 51 894 l 51 917 l 381 917 l 381 894 l 279 844 l 643 465 z "},"З":{"ha":901,"x_min":108,"x_max":826,"o":"m 443 931 q 608 906 533 931 q 727 835 683 882 q 771 719 771 789 q 718 581 771 644 q 565 493 665 518 q 757 414 688 474 q 826 267 826 354 q 777 123 826 186 q 640 23 728 60 q 436 -14 551 -14 q 258 6 333 -14 q 126 57 183 25 l 108 286 l 132 286 l 249 110 q 322 76 282 89 q 425 63 363 63 q 585 115 529 63 q 640 254 640 168 q 404 435 640 435 l 292 435 l 292 511 l 385 511 q 535 558 482 511 q 589 683 589 604 q 549 813 589 765 q 421 861 508 861 q 343 851 376 861 q 276 817 310 842 l 161 614 l 136 614 l 149 867 q 272 913 207 896 q 443 931 336 931 z "},"И":{"ha":1160,"x_min":72,"x_max":1086,"o":"m 72 0 l 72 22 l 189 79 l 189 838 l 72 894 l 72 917 l 472 917 l 472 894 l 363 838 l 363 238 l 797 778 l 797 838 l 688 894 l 688 917 l 1086 917 l 1086 894 l 972 838 l 972 79 l 1086 22 l 1086 0 l 688 0 l 688 22 l 797 79 l 797 671 l 363 131 l 363 79 l 472 22 l 472 0 l 72 0 z "},"Й":{"ha":1160,"x_min":72,"x_max":1086,"o":"m 72 0 l 72 22 l 189 79 l 189 838 l 72 894 l 72 917 l 472 917 l 472 894 l 363 838 l 363 238 l 797 778 l 797 838 l 688 894 l 688 917 l 1086 917 l 1086 894 l 972 838 l 972 79 l 1086 22 l 1086 0 l 688 0 l 688 22 l 797 79 l 797 671 l 363 131 l 363 79 l 472 22 l 472 0 l 72 0 m 583 988 q 402 1048 464 988 q 340 1197 340 1108 l 469 1197 q 496 1085 469 1129 q 583 1042 522 1042 q 671 1085 644 1042 q 697 1197 697 1129 l 826 1197 q 765 1048 826 1108 q 583 988 703 988 z "},"Ӣ":{"ha":1160,"x_min":72,"x_max":1086,"o":"m 72 0 l 72 22 l 189 79 l 189 838 l 72 894 l 72 917 l 472 917 l 472 894 l 363 838 l 363 238 l 797 778 l 797 838 l 688 894 l 688 917 l 1086 917 l 1086 894 l 972 838 l 972 79 l 1086 22 l 1086 0 l 688 0 l 688 22 l 797 79 l 797 671 l 363 131 l 363 79 l 472 22 l 472 0 l 72 0 z "},"К":{"ha":1044,"x_min":72,"x_max":1028,"o":"m 72 0 l 72 22 l 189 79 l 189 838 l 72 894 l 72 917 l 479 917 l 479 894 l 363 838 l 363 79 l 479 22 l 479 0 l 72 0 m 364 465 l 747 846 l 644 894 l 644 917 l 958 917 l 958 894 l 867 857 l 528 528 l 935 61 l 1028 22 l 1028 0 l 764 0 l 364 465 z "},"Ќ":{"ha":1044,"x_min":72,"x_max":1028,"o":"m 72 0 l 72 22 l 189 79 l 189 838 l 72 894 l 72 917 l 479 917 l 479 894 l 363 838 l 363 79 l 479 22 l 479 0 l 72 0 m 364 465 l 747 846 l 644 894 l 644 917 l 958 917 l 958 894 l 867 857 l 528 528 l 935 61 l 1028 22 l 1028 0 l 764 0 l 364 465 z "},"Л":{"ha":1004,"x_min":36,"x_max":932,"o":"m 528 0 l 528 22 l 642 79 l 642 840 l 340 840 l 340 756 q 332 469 340 589 q 308 268 324 350 q 268 132 292 186 q 209 38 242 69 q 144 -3 176 7 q 83 -14 111 -14 q 44 -6 53 -14 q 36 26 36 3 l 36 121 l 42 128 l 56 128 q 207 285 163 128 q 251 754 251 442 l 251 838 l 138 894 l 138 917 l 932 917 l 932 894 l 817 838 l 817 79 l 932 22 l 932 0 l 528 0 z "},"М":{"ha":1361,"x_min":68,"x_max":1293,"o":"m 68 0 l 68 22 l 183 79 l 213 838 l 92 894 l 92 917 l 400 917 l 696 231 l 990 917 l 1286 917 l 1286 894 l 1168 847 l 1192 79 l 1293 22 l 1293 0 l 914 0 l 914 22 l 1022 78 l 1008 747 l 686 -7 l 614 -7 l 292 740 l 274 78 l 392 22 l 392 0 l 68 0 z "},"Н":{"ha":1146,"x_min":72,"x_max":1072,"o":"m 72 0 l 72 22 l 189 79 l 189 838 l 72 894 l 72 917 l 472 917 l 472 894 l 363 838 l 363 511 l 783 511 l 783 838 l 674 894 l 674 917 l 1072 917 l 1072 894 l 958 838 l 958 79 l 1072 22 l 1072 0 l 674 0 l 674 22 l 783 79 l 783 435 l 363 435 l 363 79 l 472 22 l 472 0 l 72 0 z "},"О":{"ha":1106,"x_min":81,"x_max":1026,"o":"m 553 -14 q 365 22 451 -14 q 215 120 279 57 q 116 269 151 183 q 81 458 81 356 q 116 647 81 561 q 215 797 151 733 q 365 895 279 860 q 553 931 451 931 q 742 895 656 931 q 892 797 828 860 q 991 647 956 733 q 1026 458 1026 561 q 991 269 1026 356 q 892 120 956 183 q 742 22 828 57 q 553 -14 656 -14 m 578 57 q 715 101 656 57 q 807 226 774 146 q 840 417 840 307 q 799 651 840 551 q 688 806 758 751 q 532 861 618 861 q 395 817 456 861 q 300 693 335 774 q 265 503 265 613 q 307 268 265 368 q 420 113 349 168 q 578 57 492 57 z "},"П":{"ha":1110,"x_min":72,"x_max":1036,"o":"m 72 0 l 72 22 l 189 79 l 189 838 l 72 894 l 72 917 l 1036 917 l 1036 894 l 922 838 l 922 79 l 1036 22 l 1036 0 l 640 0 l 640 22 l 747 79 l 747 840 l 363 840 l 363 79 l 471 22 l 471 0 l 72 0 z "},"Р":{"ha":924,"x_min":72,"x_max":867,"o":"m 72 0 l 72 22 l 189 79 l 189 838 l 72 894 l 72 917 l 504 917 q 767 858 668 917 q 867 669 867 799 q 815 533 867 592 q 673 440 763 474 q 471 407 583 407 l 363 407 l 363 79 l 499 22 l 499 0 l 72 0 m 363 840 l 363 478 l 451 478 q 624 528 561 478 q 686 657 686 579 q 623 797 686 754 q 442 840 560 840 l 363 840 z "},"С":{"ha":996,"x_min":81,"x_max":886,"o":"m 554 -14 q 303 44 410 -14 q 139 205 197 103 q 81 436 81 307 q 121 627 81 538 q 231 785 161 717 q 389 892 300 853 q 576 931 478 931 q 697 922 647 931 q 784 898 746 913 q 861 864 822 883 l 874 611 l 849 611 l 738 806 q 660 848 694 835 q 579 861 625 861 q 417 811 489 861 q 303 671 344 761 q 261 463 261 581 q 301 246 261 336 q 410 107 342 156 q 564 58 479 58 q 672 75 626 58 q 756 115 717 92 l 863 286 l 886 286 l 868 57 q 735 6 810 25 q 554 -14 661 -14 z "},"Т":{"ha":958,"x_min":56,"x_max":903,"o":"m 247 0 l 247 22 l 392 79 l 392 840 l 182 840 l 78 622 l 56 622 l 56 917 l 903 917 l 903 622 l 881 622 l 776 840 l 567 840 l 567 79 l 710 22 l 710 0 l 247 0 z "},"У":{"ha":1008,"x_min":36,"x_max":993,"o":"m 476 76 q 384 1 428 17 q 300 -14 340 -14 q 261 -6 269 -14 q 253 26 253 3 l 253 121 l 260 128 l 282 128 q 394 148 351 128 q 472 217 436 168 l 139 840 l 36 894 l 36 917 l 433 917 l 433 894 l 318 842 l 557 393 l 576 393 l 811 844 l 697 894 l 697 917 l 993 917 l 993 894 l 908 849 l 614 293 q 546 173 583 233 q 476 76 508 113 z "},"Ў":{"ha":1008,"x_min":36,"x_max":993,"o":"m 476 76 q 384 1 428 17 q 300 -14 340 -14 q 261 -6 269 -14 q 253 26 253 3 l 253 121 l 260 128 l 282 128 q 394 148 351 128 q 472 217 436 168 l 139 840 l 36 894 l 36 917 l 433 917 l 433 894 l 318 842 l 557 393 l 576 393 l 811 844 l 697 894 l 697 917 l 993 917 l 993 894 l 908 849 l 614 293 q 546 173 583 233 q 476 76 508 113 m 564 988 q 383 1048 444 988 q 321 1197 321 1108 l 450 1197 q 476 1085 450 1129 q 564 1042 503 1042 q 651 1085 625 1042 q 678 1197 678 1129 l 807 1197 q 745 1048 807 1108 q 564 988 683 988 z "},"Ӯ":{"ha":1008,"x_min":36,"x_max":993,"o":"m 476 76 q 384 1 428 17 q 300 -14 340 -14 q 261 -6 269 -14 q 253 26 253 3 l 253 121 l 260 128 l 282 128 q 394 148 351 128 q 472 217 436 168 l 139 840 l 36 894 l 36 917 l 433 917 l 433 894 l 318 842 l 557 393 l 576 393 l 811 844 l 697 894 l 697 917 l 993 917 l 993 894 l 908 849 l 614 293 q 546 173 583 233 q 476 76 508 113 z "},"Ф":{"ha":1211,"x_min":36,"x_max":1174,"o":"m 404 -28 l 404 -6 l 521 51 l 521 111 q 260 158 368 114 q 94 275 151 201 q 36 444 36 349 q 94 624 36 543 q 260 753 151 704 q 521 806 368 803 l 521 865 l 404 922 l 404 944 l 811 944 l 811 922 l 694 865 l 694 806 q 957 758 850 801 q 1119 640 1064 714 q 1174 472 1174 567 q 1119 294 1174 374 q 957 165 1064 214 q 694 111 850 115 l 694 51 l 811 -6 l 811 -28 l 404 -28 m 521 736 q 299 667 376 736 q 222 489 222 599 q 302 276 222 357 q 521 183 382 196 l 521 736 m 989 431 q 913 642 989 563 q 694 735 838 722 l 694 182 q 919 251 849 182 q 989 431 989 321 z "},"Х":{"ha":1061,"x_min":42,"x_max":1019,"o":"m 42 0 l 42 22 l 149 76 l 439 442 l 150 844 l 60 894 l 60 917 l 472 917 l 472 894 l 363 842 l 363 835 l 564 561 l 782 835 l 782 840 l 675 894 l 675 917 l 986 917 l 986 894 l 897 846 l 614 494 l 921 78 l 1019 22 l 1019 0 l 600 0 l 600 22 l 700 74 l 700 79 l 486 375 l 256 81 l 254 75 l 367 22 l 367 0 l 42 0 z "},"Ц":{"ha":1119,"x_min":72,"x_max":1056,"o":"m 910 0 l 72 0 l 72 22 l 188 79 l 188 838 l 72 894 l 72 917 l 469 917 l 469 894 l 363 838 l 363 76 l 746 76 l 746 838 l 639 894 l 639 917 l 1036 917 l 1036 894 l 921 838 l 921 76 l 1056 76 l 1056 -236 l 1033 -236 l 910 0 z "},"Ч":{"ha":1054,"x_min":19,"x_max":982,"o":"m 561 0 l 561 22 l 693 79 l 693 421 q 585 390 646 403 q 450 376 524 376 q 284 403 354 376 q 176 497 214 429 q 138 685 138 564 l 138 836 l 19 894 l 19 917 l 422 917 l 422 894 l 313 836 l 313 676 q 360 508 313 554 q 519 463 407 463 q 608 469 563 463 q 693 494 653 475 l 693 836 l 582 894 l 582 917 l 982 917 l 982 894 l 867 836 l 867 79 l 982 22 l 982 0 l 561 0 z "},"Ш":{"ha":1506,"x_min":72,"x_max":1432,"o":"m 464 917 l 464 894 l 363 838 l 363 76 l 665 76 l 665 838 l 563 894 l 563 917 l 942 917 l 942 894 l 839 838 l 839 76 l 1142 76 l 1142 838 l 1043 894 l 1043 917 l 1432 917 l 1432 894 l 1317 838 l 1317 79 l 1432 22 l 1432 0 l 72 0 l 72 22 l 188 79 l 188 838 l 72 894 l 72 917 l 464 917 z "},"Щ":{"ha":1515,"x_min":72,"x_max":1451,"o":"m 464 917 l 464 894 l 363 838 l 363 76 l 665 76 l 665 838 l 563 894 l 563 917 l 942 917 l 942 894 l 839 838 l 839 76 l 1142 76 l 1142 838 l 1043 894 l 1043 917 l 1432 917 l 1432 894 l 1317 838 l 1317 76 l 1451 76 l 1451 -236 l 1429 -236 l 1306 0 l 72 0 l 72 22 l 188 79 l 188 838 l 72 894 l 72 917 l 464 917 z "},"Ъ":{"ha":1056,"x_min":38,"x_max":1017,"o":"m 622 0 l 194 0 l 194 22 l 310 79 l 310 840 l 164 840 l 60 622 l 38 622 l 38 917 l 628 917 l 628 894 l 485 838 l 485 543 l 624 543 q 830 511 742 543 q 967 421 918 479 q 1017 282 1017 363 q 967 135 1017 199 q 829 36 918 72 q 622 0 740 0 m 592 467 l 485 467 l 485 76 l 601 76 q 776 131 717 76 q 836 272 836 186 q 776 419 836 372 q 592 467 715 467 z "},"Ы":{"ha":1494,"x_min":72,"x_max":1418,"o":"m 501 0 l 72 0 l 72 22 l 189 79 l 189 838 l 72 894 l 72 917 l 507 917 l 507 894 l 363 838 l 363 543 l 503 543 q 708 511 619 543 q 847 421 797 479 q 896 282 896 363 q 847 135 896 199 q 708 36 797 72 q 501 0 619 0 m 471 467 l 363 467 l 363 76 l 481 76 q 655 131 596 76 q 714 272 714 186 q 654 419 714 372 q 471 467 594 467 m 1013 0 l 1013 22 l 1128 79 l 1128 838 l 1013 894 l 1013 917 l 1418 917 l 1418 894 l 1303 838 l 1303 79 l 1418 22 l 1418 0 l 1013 0 z "},"Ь":{"ha":935,"x_min":72,"x_max":896,"o":"m 501 0 l 72 0 l 72 22 l 189 79 l 189 838 l 72 894 l 72 917 l 507 917 l 507 894 l 363 838 l 363 543 l 503 543 q 708 511 619 543 q 847 421 797 479 q 896 282 896 363 q 847 135 896 199 q 708 36 797 72 q 501 0 619 0 m 471 467 l 363 467 l 363 76 l 481 76 q 655 131 596 76 q 714 272 714 186 q 654 419 714 372 q 471 467 594 467 z "},"Э":{"ha":1006,"x_min":108,"x_max":925,"o":"m 449 58 q 601 102 536 58 q 703 226 667 146 q 739 417 739 307 q 739 436 739 426 l 436 436 l 363 319 l 340 319 l 340 629 l 363 629 l 436 513 l 733 513 q 675 697 718 619 q 567 817 632 775 q 424 860 501 860 q 342 851 378 860 q 271 817 307 842 l 156 614 l 131 614 l 142 867 q 272 913 200 894 q 451 931 344 931 q 640 895 553 931 q 790 797 726 860 q 890 647 854 733 q 925 458 925 561 q 865 215 925 322 q 699 47 806 108 q 451 -14 592 -14 q 265 6 344 -14 q 126 57 185 25 l 108 286 l 132 286 l 239 115 q 328 75 278 92 q 449 58 378 58 z "},"Ю":{"ha":1501,"x_min":72,"x_max":1422,"o":"m 72 0 l 72 22 l 189 79 l 189 838 l 72 894 l 72 917 l 472 917 l 472 894 l 363 838 l 363 511 l 506 511 q 579 728 517 633 q 741 876 642 822 q 963 931 840 931 q 1145 895 1061 931 q 1291 797 1229 860 q 1388 647 1353 733 q 1422 458 1422 561 q 1388 269 1422 356 q 1291 120 1353 183 q 1145 22 1229 57 q 963 -14 1061 -14 q 733 44 835 -14 q 570 203 632 101 q 503 435 508 304 l 363 435 l 363 79 l 472 22 l 472 0 l 72 0 m 988 57 q 1117 101 1061 57 q 1205 226 1174 146 q 1236 417 1236 307 q 1197 651 1236 551 q 1090 806 1157 751 q 942 861 1024 861 q 812 817 869 861 q 722 693 754 774 q 689 503 689 613 q 729 268 689 368 q 838 113 769 168 q 988 57 906 57 z "},"Я":{"ha":1015,"x_min":39,"x_max":943,"o":"m 289 0 l 39 0 l 39 22 l 135 75 l 385 426 q 214 515 269 453 q 158 656 158 578 q 256 849 158 782 q 546 917 353 917 l 943 917 l 943 894 l 828 838 l 828 79 l 943 22 l 943 0 l 544 0 l 544 22 l 653 81 l 653 399 l 553 399 l 289 0 m 571 471 l 653 471 l 653 840 l 578 840 q 398 792 458 840 q 338 658 338 744 q 397 524 338 576 q 571 471 456 471 z "},"Ґ":{"ha":803,"x_min":72,"x_max":785,"o":"m 72 0 l 72 22 l 189 79 l 189 838 l 72 894 l 72 917 l 639 917 l 763 1153 l 785 1153 l 785 840 l 363 840 l 363 79 l 499 22 l 499 0 l 72 0 z "},"Қ":{"ha":1053,"x_min":72,"x_max":1046,"o":"m 72 0 l 72 22 l 189 79 l 189 838 l 72 894 l 72 917 l 479 917 l 479 894 l 363 838 l 363 79 l 479 22 l 479 0 l 72 0 m 364 465 l 747 846 l 644 894 l 644 917 l 958 917 l 958 894 l 867 857 l 528 528 l 922 76 l 1046 76 l 1046 -236 l 1024 -236 l 901 0 l 764 0 l 364 465 z "},"Җ":{"ha":1481,"x_min":15,"x_max":1475,"o":"m 533 0 l 533 22 l 644 79 l 644 838 l 533 894 l 533 917 l 929 917 l 929 894 l 818 838 l 818 79 l 929 22 l 929 0 l 533 0 m 819 465 l 1183 844 l 1082 894 l 1082 917 l 1403 917 l 1403 894 l 1294 853 l 981 529 l 1353 76 l 1475 76 l 1475 -236 l 1453 -236 l 1329 0 l 1194 0 l 819 465 m 643 465 l 268 0 l 15 0 l 15 22 l 114 64 l 483 518 l 154 854 l 51 894 l 51 917 l 381 917 l 381 894 l 279 844 l 643 465 z "},"Ҳ":{"ha":1054,"x_min":42,"x_max":1040,"o":"m 42 0 l 42 22 l 149 76 l 439 442 l 150 844 l 60 894 l 60 917 l 472 917 l 472 894 l 363 842 l 363 835 l 564 561 l 782 835 l 782 840 l 675 894 l 675 917 l 986 917 l 986 894 l 897 846 l 614 494 l 922 76 l 1040 76 l 1040 -236 l 1018 -236 l 894 0 l 600 0 l 600 22 l 700 74 l 700 79 l 486 375 l 256 81 l 254 75 l 367 22 l 367 0 l 42 0 z "},"Ң":{"ha":1157,"x_min":72,"x_max":1093,"o":"m 72 0 l 72 22 l 189 79 l 189 838 l 72 894 l 72 917 l 472 917 l 472 894 l 363 838 l 363 511 l 783 511 l 783 838 l 674 894 l 674 917 l 1072 917 l 1072 894 l 958 838 l 958 76 l 1093 76 l 1093 -236 l 1071 -236 l 947 0 l 674 0 l 674 22 l 783 79 l 783 435 l 363 435 l 363 79 l 472 22 l 472 0 l 72 0 z "},"Ҷ":{"ha":1065,"x_min":19,"x_max":1001,"o":"m 138 685 l 138 836 l 19 894 l 19 917 l 422 917 l 422 894 l 313 836 l 313 676 q 360 508 313 554 q 519 463 407 463 q 608 469 563 463 q 693 494 653 475 l 693 836 l 582 894 l 582 917 l 982 917 l 982 894 l 867 836 l 867 76 l 1001 76 l 1001 -236 l 979 -236 l 856 0 l 561 0 l 561 22 l 693 79 l 693 421 q 585 390 646 403 q 450 376 524 376 q 284 403 354 376 q 176 497 214 429 q 138 685 138 564 z "},"Ү":{"ha":1026,"x_min":36,"x_max":990,"o":"m 307 0 l 307 22 l 432 79 l 432 428 l 126 844 l 36 894 l 36 917 l 428 917 l 428 894 l 324 844 l 324 839 l 568 507 l 789 836 l 789 842 l 683 894 l 683 917 l 990 917 l 990 894 l 901 849 l 607 429 l 607 79 l 731 22 l 731 0 l 307 0 z "},"Ұ":{"ha":1026,"x_min":36,"x_max":990,"o":"m 307 0 l 307 22 l 432 79 l 432 357 l 231 357 l 231 429 l 431 429 l 126 844 l 36 894 l 36 917 l 428 917 l 428 894 l 324 844 l 324 839 l 568 507 l 789 836 l 789 842 l 683 894 l 683 917 l 990 917 l 990 894 l 901 849 l 607 429 l 607 429 l 807 429 l 807 357 l 607 357 l 607 79 l 731 22 l 731 0 l 307 0 z "},"Һ":{"ha":1054,"x_min":72,"x_max":1035,"o":"m 493 917 l 493 894 l 361 838 l 361 496 q 469 527 408 514 q 604 540 531 540 q 770 514 700 540 q 878 420 840 488 q 917 232 917 353 l 917 81 l 1035 22 l 1035 0 l 632 0 l 632 22 l 742 81 l 742 240 q 694 408 742 363 q 535 454 647 454 q 447 448 492 454 q 361 422 401 442 l 361 81 l 472 22 l 472 0 l 72 0 l 72 22 l 188 81 l 188 838 l 72 894 l 72 917 l 493 917 z "},"Ӏ":{"ha":561,"x_min":78,"x_max":483,"o":"m 78 0 l 78 22 l 193 79 l 193 838 l 78 894 l 78 917 l 483 917 l 483 894 l 368 838 l 368 79 l 483 22 l 483 0 l 78 0 z "},"Ә":{"ha":957,"x_min":81,"x_max":878,"o":"m 433 -14 q 176 97 269 -14 q 81 406 82 207 l 90 415 l 699 415 q 699 429 699 421 q 624 688 699 594 q 385 782 550 782 q 231 756 304 782 q 86 683 157 731 l 81 683 l 81 721 q 226 871 128 811 q 454 931 324 931 q 681 877 586 931 q 826 726 775 824 q 878 499 878 629 q 820 233 878 349 q 662 51 763 117 q 433 -14 561 -14 m 461 67 q 624 138 565 67 q 694 344 682 208 l 247 344 q 315 140 260 213 q 461 67 369 67 z "},"Ө":{"ha":1106,"x_min":81,"x_max":1026,"o":"m 553 -14 q 365 22 451 -14 q 215 120 279 57 q 116 269 151 183 q 81 458 81 356 q 116 647 81 561 q 215 797 151 733 q 365 895 279 860 q 553 931 451 931 q 742 895 656 931 q 892 797 828 860 q 991 647 956 733 q 1026 458 1026 561 q 991 269 1026 356 q 892 120 956 183 q 742 22 828 57 q 553 -14 656 -14 m 532 861 q 395 817 456 861 q 300 695 335 774 q 265 510 265 617 l 835 510 q 778 697 821 618 q 672 818 735 775 q 532 861 608 861 m 578 57 q 715 101 656 57 q 807 226 774 146 q 840 417 840 307 q 840 438 840 428 l 268 438 q 322 235 278 321 q 432 103 365 150 q 578 57 499 57 z "},"Ѣ":{"ha":1040,"x_min":32,"x_max":1001,"o":"m 613 0 l 183 0 l 183 22 l 300 79 l 300 682 l 158 682 l 54 524 l 32 524 l 32 758 l 300 758 l 300 838 l 183 894 l 183 917 l 600 917 l 600 894 l 474 838 l 474 758 l 783 758 l 783 524 l 761 524 l 656 682 l 474 682 l 474 478 l 614 478 q 817 450 731 478 q 953 371 904 422 q 1001 249 1001 319 q 953 119 1001 175 q 816 31 904 63 q 613 0 728 0 m 582 401 l 474 401 l 474 76 l 592 76 q 763 122 704 76 q 821 240 821 168 q 762 363 821 324 q 582 401 703 401 z "},"Ѳ":{"ha":1106,"x_min":81,"x_max":1026,"o":"m 553 -14 q 365 22 451 -14 q 215 120 279 57 q 116 269 151 183 q 81 458 81 356 q 116 647 81 561 q 215 797 151 733 q 365 895 279 860 q 553 931 451 931 q 742 895 656 931 q 892 797 828 860 q 991 647 956 733 q 1026 458 1026 561 q 991 269 1026 356 q 892 120 956 183 q 742 22 828 57 q 553 -14 656 -14 m 265 503 q 265 482 265 493 q 410 537 342 528 q 539 535 478 546 q 653 509 600 525 q 752 487 707 493 q 836 500 797 481 q 781 692 824 611 q 673 817 738 772 q 532 861 608 861 q 395 817 456 861 q 300 693 335 774 q 265 503 265 613 m 578 57 q 715 101 656 57 q 807 226 774 146 q 840 417 840 307 q 840 440 840 429 q 708 384 771 393 q 588 387 646 375 q 476 415 529 399 q 371 438 422 432 q 269 424 319 444 q 326 229 282 311 q 435 102 369 147 q 578 57 500 57 z "},"Ѵ":{"ha":1039,"x_min":36,"x_max":1040,"o":"m 726 625 q 782 751 753 689 q 844 854 811 814 q 924 917 888 903 q 993 931 961 931 q 1033 922 1025 931 q 1040 890 1040 914 l 1040 796 l 1035 789 l 1013 789 q 926 774 958 789 q 869 722 893 758 q 819 622 844 685 l 563 -7 l 494 -7 l 133 843 l 36 894 l 36 917 l 433 917 l 433 894 l 317 840 l 568 247 l 576 247 l 726 625 z "},"ȷ":{"ha":450,"x_min":60,"x_max":308,"o":"m 308 19 q 287 -118 308 -58 q 211 -226 265 -178 q 60 -319 157 -275 l 60 -296 q 113 -234 94 -265 q 140 -160 132 -203 q 147 -51 147 -117 l 147 486 l 61 553 l 61 568 l 294 644 l 308 644 l 308 19 z "},"ĸ":{"ha":811,"x_min":53,"x_max":792,"o":"m 53 0 l 53 22 l 143 67 l 143 486 l 57 553 l 57 568 l 290 644 l 304 644 l 304 360 l 518 550 l 518 558 l 450 608 l 450 631 l 732 631 l 732 608 l 643 560 l 438 399 l 703 69 l 792 22 l 792 0 l 557 0 l 510 72 l 304 332 l 304 64 l 397 22 l 397 0 l 53 0 z "},"ẗ":{"ha":518,"x_min":18,"x_max":481,"o":"m 300 -14 q 174 22 225 -14 q 124 124 124 58 l 124 567 l 18 567 l 18 581 l 143 631 l 265 783 l 285 783 l 285 631 l 474 631 l 474 567 l 285 567 l 285 154 q 315 102 285 119 q 389 85 346 85 q 437 88 415 85 q 476 94 458 90 l 481 93 l 481 74 q 413 14 461 42 q 300 -14 364 -14 m 119 921 q 65 942 86 921 q 43 996 43 964 q 65 1049 43 1028 q 119 1071 86 1071 q 173 1049 151 1071 q 194 996 194 1028 q 173 942 194 964 q 119 921 151 921 m 386 921 q 332 942 353 921 q 311 996 311 964 q 332 1049 311 1028 q 386 1071 353 1071 q 440 1049 419 1071 q 461 996 461 1028 q 440 942 461 964 q 386 921 419 921 z "},"a":{"ha":931,"x_min":35,"x_max":897,"o":"m 35 0 l 35 22 l 104 60 l 414 785 l 508 785 l 813 65 l 897 22 l 897 0 l 543 0 l 543 22 l 640 64 l 558 261 l 275 261 l 193 63 l 293 22 l 293 0 l 35 0 m 304 332 l 529 332 l 417 603 l 304 332 z "},"b":{"ha":850,"x_min":72,"x_max":793,"o":"m 72 0 l 72 22 l 174 68 l 174 710 l 72 756 l 72 778 l 421 778 q 641 733 561 778 q 721 600 721 689 q 677 487 721 536 q 557 418 633 438 q 730 352 667 403 q 793 225 793 301 q 751 110 793 161 q 632 29 708 58 q 457 0 556 0 l 72 0 m 368 707 l 342 707 l 342 436 l 372 436 q 502 469 453 436 q 551 572 551 503 q 368 707 551 707 m 413 369 l 342 369 l 342 71 l 421 71 q 563 108 510 71 q 617 219 617 146 q 563 335 617 301 q 413 369 508 369 z "},"c":{"ha":906,"x_min":81,"x_max":796,"o":"m 508 -14 q 287 36 383 -14 q 135 173 190 86 q 81 371 81 260 q 117 542 81 464 q 216 676 153 619 q 360 763 279 732 q 528 793 440 793 q 632 785 589 793 q 708 765 675 778 q 775 735 742 751 l 785 529 l 761 529 l 665 683 q 603 714 635 706 q 532 722 572 722 q 388 679 451 722 q 288 561 325 636 q 251 388 251 486 q 328 144 251 231 q 532 57 406 57 q 603 63 571 57 q 665 85 636 69 l 774 239 l 796 239 l 782 47 q 665 3 733 19 q 508 -14 597 -14 z "},"d":{"ha":976,"x_min":72,"x_max":899,"o":"m 72 0 l 72 22 l 175 68 l 175 710 l 72 756 l 72 778 l 457 778 q 697 733 597 778 q 847 608 796 688 q 899 424 899 528 q 843 202 899 297 q 687 53 788 107 q 449 0 586 0 l 72 0 m 411 707 l 343 707 l 343 71 l 422 71 q 647 158 569 71 q 725 392 725 244 q 645 626 725 544 q 411 707 565 707 z "},"e":{"ha":828,"x_min":72,"x_max":746,"o":"m 72 0 l 72 22 l 174 68 l 174 710 l 72 756 l 72 778 l 711 778 l 711 574 l 689 574 l 608 707 l 342 707 l 342 436 l 533 436 l 589 533 l 610 533 l 610 272 l 589 272 l 533 369 l 342 369 l 342 71 l 639 71 l 724 238 l 746 238 l 746 0 l 72 0 z "},"f":{"ha":789,"x_min":72,"x_max":706,"o":"m 72 0 l 72 22 l 175 68 l 175 710 l 74 756 l 74 778 l 706 778 l 706 574 l 686 574 l 611 707 l 343 707 l 343 436 l 531 436 l 585 533 l 607 533 l 607 272 l 585 272 l 531 369 l 343 369 l 343 68 l 464 22 l 464 0 l 72 0 z "},"g":{"ha":943,"x_min":81,"x_max":890,"o":"m 494 -14 q 284 35 378 -14 q 135 172 190 85 q 81 371 81 258 q 116 541 81 464 q 213 674 151 618 q 355 761 274 731 q 528 792 436 792 q 678 776 621 792 q 786 735 735 760 l 796 532 l 775 532 l 683 678 q 608 717 640 706 q 533 728 575 728 q 381 687 446 728 q 281 573 317 646 q 244 407 244 500 q 281 221 244 300 q 381 99 317 142 q 532 57 446 57 q 588 60 560 57 q 643 72 615 64 l 643 279 l 538 331 l 538 350 l 890 350 l 890 331 l 804 276 l 804 86 q 718 33 769 56 q 608 -1 667 11 q 494 -14 550 -14 z "},"h":{"ha":1036,"x_min":72,"x_max":964,"o":"m 72 0 l 72 22 l 174 68 l 174 710 l 72 756 l 72 778 l 440 778 l 440 756 l 342 710 l 342 438 l 696 438 l 696 710 l 597 756 l 597 778 l 964 778 l 964 756 l 864 710 l 864 68 l 964 22 l 964 0 l 597 0 l 597 22 l 696 68 l 696 367 l 342 367 l 342 68 l 440 22 l 440 0 l 72 0 z "},"i":{"ha":513,"x_min":78,"x_max":435,"o":"m 78 0 l 78 22 l 169 68 l 169 710 l 78 756 l 78 778 l 435 778 l 435 756 l 338 710 l 338 68 l 435 22 l 435 0 l 78 0 z "},"ı":{"ha":513,"x_min":78,"x_max":435,"o":"m 78 0 l 78 22 l 169 68 l 169 710 l 78 756 l 78 778 l 435 778 l 435 756 l 338 710 l 338 68 l 435 22 l 435 0 l 78 0 z "},"j":{"ha":524,"x_min":19,"x_max":446,"o":"m 71 -204 q 35 -196 51 -204 q 19 -164 19 -187 q 24 -140 19 -161 q 33 -86 28 -119 l 43 -86 q 72 -94 60 -92 q 97 -97 83 -97 q 143 -84 125 -97 q 170 -32 161 -71 q 179 85 179 7 l 179 710 l 81 757 l 81 778 l 446 778 l 446 757 l 347 710 l 347 274 q 327 104 347 179 q 278 -24 307 29 q 224 -108 250 -78 q 147 -180 182 -156 q 71 -204 111 -204 z "},"k":{"ha":975,"x_min":74,"x_max":942,"o":"m 74 0 l 74 22 l 176 68 l 176 710 l 74 756 l 74 778 l 444 778 l 444 756 l 343 710 l 343 68 l 444 22 l 444 0 l 74 0 m 689 0 l 343 394 l 664 715 l 578 756 l 578 778 l 861 778 l 861 756 l 779 722 l 500 454 l 849 58 l 942 22 l 942 0 l 689 0 z "},"l":{"ha":817,"x_min":72,"x_max":733,"o":"m 72 0 l 72 22 l 174 68 l 174 710 l 72 756 l 72 778 l 456 778 l 456 756 l 342 710 l 342 71 l 617 71 l 711 285 l 733 285 l 733 0 l 72 0 z "},"m":{"ha":1228,"x_min":68,"x_max":1160,"o":"m 68 0 l 68 22 l 169 68 l 194 710 l 89 756 l 89 778 l 385 778 l 625 238 l 869 778 l 1153 778 l 1153 756 l 1050 719 l 1069 68 l 1160 22 l 1160 0 l 806 0 l 806 22 l 899 67 l 888 635 l 599 -6 l 549 -6 l 267 633 l 253 67 l 356 22 l 356 0 l 68 0 z "},"n":{"ha":1011,"x_min":68,"x_max":943,"o":"m 68 0 l 68 22 l 169 68 l 169 711 l 68 756 l 68 778 l 297 778 l 763 242 l 763 711 l 635 756 l 635 778 l 943 778 l 943 756 l 844 711 l 844 -6 l 764 -6 l 251 581 l 251 71 l 379 22 l 379 0 l 68 0 z "},"o":{"ha":981,"x_min":81,"x_max":900,"o":"m 489 -14 q 278 38 371 -14 q 133 181 186 90 q 81 389 81 272 q 133 597 81 506 q 278 741 186 689 q 489 793 371 793 q 701 741 608 793 q 847 597 793 689 q 900 389 900 506 q 847 181 900 272 q 701 38 793 90 q 489 -14 608 -14 m 510 57 q 669 140 611 57 q 728 354 728 222 q 695 547 728 464 q 605 676 663 629 q 474 724 547 724 q 313 641 372 724 q 253 428 253 558 q 285 235 253 319 q 376 104 318 151 q 510 57 433 57 z "},"p":{"ha":818,"x_min":72,"x_max":763,"o":"m 72 0 l 72 22 l 175 68 l 175 710 l 72 756 l 72 778 l 447 778 q 681 725 599 778 q 763 563 763 672 q 719 441 763 492 q 599 363 675 390 q 425 335 522 335 l 343 335 l 343 68 l 463 22 l 463 0 l 72 0 m 343 707 l 343 403 l 397 403 q 540 443 489 403 q 590 557 590 483 q 538 672 590 638 q 389 707 486 707 l 343 707 z "},"q":{"ha":997,"x_min":81,"x_max":1046,"o":"m 871 -212 q 745 -197 810 -212 q 602 -136 681 -181 q 418 -8 524 -92 q 243 62 319 7 q 124 201 167 117 q 81 389 81 285 q 133 597 81 506 q 278 741 186 689 q 489 793 371 793 q 701 741 608 793 q 847 597 793 689 q 900 389 900 506 q 865 219 900 296 q 769 87 831 142 q 624 6 707 32 q 760 -93 701 -57 q 865 -144 818 -129 q 954 -160 911 -160 q 1008 -156 986 -160 q 1046 -146 1031 -151 l 1046 -175 q 971 -201 1014 -190 q 871 -212 928 -212 m 510 57 q 669 140 611 57 q 728 354 728 222 q 695 547 728 464 q 605 676 663 629 q 474 724 547 724 q 313 641 372 724 q 253 428 253 558 q 285 235 253 319 q 376 104 318 151 q 510 57 433 57 z "},"r":{"ha":864,"x_min":72,"x_max":872,"o":"m 72 0 l 72 22 l 175 68 l 175 710 l 72 756 l 72 778 l 450 778 q 651 726 578 778 q 725 586 725 675 q 567 399 725 456 l 782 65 l 872 22 l 872 0 l 622 0 l 411 354 l 342 354 l 342 69 l 432 22 l 432 0 l 72 0 m 394 711 l 342 711 l 342 421 l 400 421 q 514 460 475 421 q 553 568 553 500 q 394 711 553 711 z "},"s":{"ha":697,"x_min":72,"x_max":626,"o":"m 332 -14 q 199 3 256 -14 q 86 46 142 19 l 72 239 l 94 239 l 178 100 q 252 65 213 76 q 333 54 292 54 q 446 83 406 54 q 486 169 486 113 q 463 238 486 213 q 392 285 440 263 q 268 344 344 308 q 141 433 182 385 q 100 558 100 481 q 138 675 100 622 q 238 760 175 728 q 374 793 300 793 q 487 778 435 793 q 586 740 539 764 l 597 554 l 575 554 l 493 690 q 378 725 443 725 q 281 694 317 725 q 244 611 244 664 q 261 555 244 578 q 315 510 278 532 q 413 460 353 489 q 536 390 489 422 q 605 316 583 357 q 626 217 626 275 q 588 95 626 147 q 483 15 549 43 q 332 -14 417 -14 z "},"t":{"ha":867,"x_min":56,"x_max":813,"o":"m 224 0 l 224 22 l 350 68 l 350 707 l 160 707 l 78 528 l 56 528 l 56 778 l 813 778 l 813 528 l 790 528 l 706 707 l 517 707 l 517 68 l 644 22 l 644 0 l 224 0 z "},"u":{"ha":1036,"x_min":72,"x_max":963,"o":"m 522 -14 q 344 18 422 -14 q 220 122 265 50 q 175 317 175 194 l 175 710 l 72 756 l 72 778 l 446 778 l 446 756 l 343 710 l 343 319 q 371 171 343 225 q 448 93 399 117 q 564 69 497 69 q 671 92 622 69 q 749 162 719 114 q 778 285 778 210 l 778 713 l 663 756 l 663 778 l 963 778 l 963 756 l 861 711 l 861 308 q 769 63 861 139 q 522 -14 678 -14 z "},"v":{"ha":924,"x_min":36,"x_max":888,"o":"m 428 -7 l 118 714 l 36 756 l 36 778 l 394 778 l 394 756 l 299 714 l 510 211 l 518 211 l 729 714 l 629 756 l 629 778 l 888 778 l 888 756 l 817 717 l 503 -7 l 428 -7 z "},"w":{"ha":1272,"x_min":18,"x_max":1254,"o":"m 338 -6 l 111 710 l 18 756 l 18 778 l 389 778 l 389 756 l 286 714 l 428 242 l 436 242 l 653 782 l 732 782 l 940 242 l 947 242 l 1083 713 l 981 756 l 981 778 l 1254 778 l 1254 756 l 1172 715 l 947 -6 l 863 -6 l 646 542 l 638 542 l 421 -6 l 338 -6 z "},"x":{"ha":969,"x_min":36,"x_max":933,"o":"m 36 0 l 36 22 l 138 67 l 397 382 l 147 714 l 57 756 l 57 778 l 442 778 l 442 756 l 347 711 l 347 706 l 521 478 l 704 706 l 704 710 l 613 756 l 613 778 l 897 778 l 897 756 l 810 715 l 564 421 l 832 69 l 933 22 l 933 0 l 544 0 l 544 22 l 632 64 l 632 69 l 442 322 l 239 71 l 239 67 l 335 22 l 335 0 l 36 0 z "},"y":{"ha":917,"x_min":36,"x_max":881,"o":"m 272 0 l 272 22 l 379 68 l 379 368 l 128 708 l 36 756 l 36 778 l 397 778 l 397 756 l 313 714 l 313 708 l 514 439 l 696 707 l 696 711 l 606 756 l 606 778 l 881 778 l 881 756 l 793 714 l 547 365 l 547 68 l 654 22 l 654 0 l 272 0 z "},"z":{"ha":875,"x_min":119,"x_max":756,"o":"m 119 0 l 119 33 l 533 707 l 238 707 l 156 540 l 133 540 l 133 778 l 742 778 l 742 744 l 329 71 l 647 71 l 733 250 l 756 250 l 756 0 l 119 0 z "},"à":{"ha":931,"x_min":35,"x_max":897,"o":"m 35 0 l 35 22 l 104 60 l 414 785 l 508 785 l 813 65 l 897 22 l 897 0 l 543 0 l 543 22 l 640 64 l 558 261 l 275 261 l 193 63 l 293 22 l 293 0 l 35 0 m 304 332 l 529 332 l 417 603 l 304 332 m 450 882 l 271 1035 q 230 1083 240 1061 q 219 1128 219 1104 l 357 1128 l 474 882 l 450 882 z "},"á":{"ha":931,"x_min":35,"x_max":897,"o":"m 35 0 l 35 22 l 104 60 l 414 785 l 508 785 l 813 65 l 897 22 l 897 0 l 543 0 l 543 22 l 640 64 l 558 261 l 275 261 l 193 63 l 293 22 l 293 0 l 35 0 m 304 332 l 529 332 l 417 603 l 304 332 m 453 882 l 571 1128 l 707 1128 q 697 1083 707 1104 q 656 1035 686 1061 l 478 882 l 453 882 z "},"â":{"ha":931,"x_min":35,"x_max":897,"o":"m 35 0 l 35 22 l 104 60 l 414 785 l 508 785 l 813 65 l 897 22 l 897 0 l 543 0 l 543 22 l 640 64 l 558 261 l 275 261 l 193 63 l 293 22 l 293 0 l 35 0 m 304 332 l 529 332 l 417 603 l 304 332 m 247 882 l 433 1128 l 489 1128 l 675 882 l 651 882 l 461 1004 l 271 882 l 247 882 z "},"ã":{"ha":931,"x_min":35,"x_max":897,"o":"m 35 0 l 35 22 l 104 60 l 414 785 l 508 785 l 813 65 l 897 22 l 897 0 l 543 0 l 543 22 l 640 64 l 558 261 l 275 261 l 193 63 l 293 22 l 293 0 l 35 0 m 304 332 l 529 332 l 417 603 l 304 332 m 239 913 q 287 1032 265 993 q 331 1083 308 1071 q 381 1096 353 1096 q 434 1083 408 1096 q 483 1051 460 1069 q 529 1020 507 1033 q 574 1007 551 1007 q 617 1024 599 1007 q 657 1096 635 1042 l 683 1096 q 635 976 657 1015 q 592 925 614 938 q 542 913 569 913 q 488 926 514 913 q 439 957 463 939 q 393 988 415 975 q 349 1001 371 1001 q 306 984 324 1001 q 265 913 288 967 l 239 913 z "},"ä":{"ha":931,"x_min":35,"x_max":897,"o":"m 35 0 l 35 22 l 104 60 l 414 785 l 508 785 l 813 65 l 897 22 l 897 0 l 543 0 l 543 22 l 640 64 l 558 261 l 275 261 l 193 63 l 293 22 l 293 0 l 35 0 m 304 332 l 529 332 l 417 603 l 304 332 m 328 928 q 273 949 294 928 q 251 1003 251 971 q 273 1056 251 1035 q 328 1078 294 1078 q 381 1056 360 1078 q 403 1003 403 1035 q 381 949 403 971 q 328 928 360 928 m 594 928 q 540 949 561 928 q 519 1003 519 971 q 540 1056 519 1035 q 594 1078 561 1078 q 649 1056 628 1078 q 669 1003 669 1035 q 649 949 669 971 q 594 928 628 928 z "},"ā":{"ha":931,"x_min":35,"x_max":897,"o":"m 35 0 l 35 22 l 104 60 l 414 785 l 508 785 l 813 65 l 897 22 l 897 0 l 543 0 l 543 22 l 640 64 l 558 261 l 275 261 l 193 63 l 293 22 l 293 0 l 35 0 m 304 332 l 529 332 l 417 603 l 304 332 m 267 964 l 267 1042 l 656 1042 l 656 964 l 267 964 z "},"ă":{"ha":931,"x_min":35,"x_max":897,"o":"m 35 0 l 35 22 l 104 60 l 414 785 l 508 785 l 813 65 l 897 22 l 897 0 l 543 0 l 543 22 l 640 64 l 558 261 l 275 261 l 193 63 l 293 22 l 293 0 l 35 0 m 304 332 l 529 332 l 417 603 l 304 332 m 461 896 q 319 953 365 896 q 247 1128 274 1011 l 271 1128 q 326 1042 297 1069 q 387 1006 354 1014 q 461 997 419 997 q 535 1006 503 997 q 596 1042 568 1014 q 651 1128 624 1069 l 675 1128 q 599 953 647 1011 q 461 896 551 896 z "},"å":{"ha":931,"x_min":35,"x_max":897,"o":"m 35 0 l 35 22 l 104 60 l 414 785 l 508 785 l 813 65 l 897 22 l 897 0 l 543 0 l 543 22 l 640 64 l 558 261 l 275 261 l 193 63 l 293 22 l 293 0 l 35 0 m 304 332 l 529 332 l 417 603 l 304 332 m 461 1121 q 549 1088 515 1121 q 583 1004 583 1054 q 550 921 583 954 q 461 888 517 888 q 373 920 407 888 q 339 1004 339 953 q 373 1088 339 1054 q 461 1121 407 1121 m 456 1088 q 413 1014 413 1088 q 468 921 413 921 q 511 994 511 921 q 456 1088 511 1088 z "},"ǻ":{"ha":931,"x_min":35,"x_max":897,"o":"m 35 0 l 35 22 l 104 60 l 414 785 l 508 785 l 813 65 l 897 22 l 897 0 l 543 0 l 543 22 l 640 64 l 558 261 l 275 261 l 193 63 l 293 22 l 293 0 l 35 0 m 304 332 l 529 332 l 417 603 l 304 332 m 461 1121 q 549 1088 515 1121 q 583 1004 583 1054 q 550 921 583 954 q 461 888 517 888 q 373 920 407 888 q 339 1004 339 953 q 373 1088 339 1054 q 461 1121 407 1121 m 456 1088 q 413 1014 413 1088 q 468 921 413 921 q 511 994 511 921 q 456 1088 511 1088 m 453 1192 l 571 1438 l 707 1438 q 697 1392 707 1414 q 656 1344 686 1371 l 478 1192 l 453 1192 z "},"ạ":{"ha":931,"x_min":35,"x_max":897,"o":"m 35 0 l 35 22 l 104 60 l 414 785 l 508 785 l 813 65 l 897 22 l 897 0 l 543 0 l 543 22 l 640 64 l 558 261 l 275 261 l 193 63 l 293 22 l 293 0 l 35 0 m 304 332 l 529 332 l 417 603 l 304 332 m 433 -306 q 367 -278 394 -306 q 339 -211 339 -250 q 367 -144 339 -172 q 433 -117 394 -117 q 500 -144 472 -117 q 528 -211 528 -172 q 500 -278 528 -250 q 433 -306 472 -306 z "},"ą":{"ha":931,"x_min":35,"x_max":897,"o":"m 35 0 l 35 22 l 104 60 l 414 785 l 508 785 l 813 65 l 897 22 l 897 0 l 774 0 q 715 -178 715 -97 q 799 -265 715 -265 q 833 -260 815 -265 q 867 -246 850 -256 l 871 -246 l 871 -267 q 822 -315 853 -297 q 749 -333 792 -333 q 649 -300 688 -333 q 611 -210 611 -267 q 644 -109 611 -160 q 731 0 676 -58 l 543 0 l 543 22 l 642 64 l 560 261 l 275 261 l 192 61 l 293 22 l 293 0 l 35 0 m 304 332 l 529 332 l 417 604 l 304 332 z "},"ȁ":{"ha":931,"x_min":35,"x_max":897,"o":"m 35 0 l 35 22 l 104 60 l 414 785 l 508 785 l 813 65 l 897 22 l 897 0 l 543 0 l 543 22 l 640 64 l 558 261 l 275 261 l 193 63 l 293 22 l 293 0 l 35 0 m 304 332 l 529 332 l 417 603 l 304 332 m 360 882 l 210 1040 q 186 1085 188 1063 q 193 1128 185 1107 l 296 1128 l 383 882 l 360 882 m 536 882 l 404 1040 q 383 1086 385 1065 q 388 1128 381 1107 l 490 1128 l 561 882 l 536 882 z "},"ȃ":{"ha":931,"x_min":35,"x_max":897,"o":"m 35 0 l 35 22 l 104 60 l 414 785 l 508 785 l 813 65 l 897 22 l 897 0 l 543 0 l 543 22 l 640 64 l 558 261 l 275 261 l 193 63 l 293 22 l 293 0 l 35 0 m 304 332 l 529 332 l 417 603 l 304 332 m 247 896 q 323 1070 275 1013 q 461 1128 371 1128 q 603 1070 557 1128 q 675 896 649 1013 l 651 896 q 597 982 625 954 q 535 1018 568 1010 q 461 1026 503 1026 q 387 1018 419 1026 q 326 982 354 1010 q 271 896 299 954 l 247 896 z "},"ắ":{"ha":931,"x_min":35,"x_max":897,"o":"m 35 0 l 35 22 l 104 60 l 414 785 l 508 785 l 813 65 l 897 22 l 897 0 l 543 0 l 543 22 l 640 64 l 558 261 l 275 261 l 193 63 l 293 22 l 293 0 l 35 0 m 304 332 l 529 332 l 417 603 l 304 332 z "},"ặ":{"ha":931,"x_min":35,"x_max":897,"o":"m 35 0 l 35 22 l 104 60 l 414 785 l 508 785 l 813 65 l 897 22 l 897 0 l 543 0 l 543 22 l 640 64 l 558 261 l 275 261 l 193 63 l 293 22 l 293 0 l 35 0 m 304 332 l 529 332 l 417 603 l 304 332 m 461 896 q 319 953 365 896 q 247 1128 274 1011 l 271 1128 q 326 1042 297 1069 q 387 1006 354 1014 q 461 997 419 997 q 535 1006 503 997 q 596 1042 568 1014 q 651 1128 624 1069 l 675 1128 q 599 953 647 1011 q 461 896 551 896 m 433 -306 q 367 -278 394 -306 q 339 -211 339 -250 q 367 -144 339 -172 q 433 -117 394 -117 q 500 -144 472 -117 q 528 -211 528 -172 q 500 -278 528 -250 q 433 -306 472 -306 z "},"ằ":{"ha":931,"x_min":35,"x_max":897,"o":"m 35 0 l 35 22 l 104 60 l 414 785 l 508 785 l 813 65 l 897 22 l 897 0 l 543 0 l 543 22 l 640 64 l 558 261 l 275 261 l 193 63 l 293 22 l 293 0 l 35 0 m 304 332 l 529 332 l 417 603 l 304 332 z "},"ẳ":{"ha":931,"x_min":35,"x_max":897,"o":"m 35 0 l 35 22 l 104 60 l 414 785 l 508 785 l 813 65 l 897 22 l 897 0 l 543 0 l 543 22 l 640 64 l 558 261 l 275 261 l 193 63 l 293 22 l 293 0 l 35 0 m 304 332 l 529 332 l 417 603 l 304 332 z "},"ẵ":{"ha":931,"x_min":35,"x_max":897,"o":"m 35 0 l 35 22 l 104 60 l 414 785 l 508 785 l 813 65 l 897 22 l 897 0 l 543 0 l 543 22 l 640 64 l 558 261 l 275 261 l 193 63 l 293 22 l 293 0 l 35 0 m 304 332 l 529 332 l 417 603 l 304 332 z "},"ấ":{"ha":931,"x_min":35,"x_max":897,"o":"m 35 0 l 35 22 l 104 60 l 414 785 l 508 785 l 813 65 l 897 22 l 897 0 l 543 0 l 543 22 l 640 64 l 558 261 l 275 261 l 193 63 l 293 22 l 293 0 l 35 0 m 304 332 l 529 332 l 417 603 l 304 332 m 617 1031 l 674 1229 l 800 1229 q 790 1190 800 1208 q 758 1151 781 1172 l 638 1031 l 617 1031 m 247 882 l 433 1128 l 489 1128 l 675 882 l 651 882 l 461 1004 l 271 882 l 247 882 z "},"ậ":{"ha":931,"x_min":35,"x_max":897,"o":"m 35 0 l 35 22 l 104 60 l 414 785 l 508 785 l 813 65 l 897 22 l 897 0 l 543 0 l 543 22 l 640 64 l 558 261 l 275 261 l 193 63 l 293 22 l 293 0 l 35 0 m 304 332 l 529 332 l 417 603 l 304 332 m 247 882 l 433 1128 l 489 1128 l 675 882 l 651 882 l 461 1004 l 271 882 l 247 882 m 433 -306 q 367 -278 394 -306 q 339 -211 339 -250 q 367 -144 339 -172 q 433 -117 394 -117 q 500 -144 472 -117 q 528 -211 528 -172 q 500 -278 528 -250 q 433 -306 472 -306 z "},"ầ":{"ha":931,"x_min":35,"x_max":897,"o":"m 35 0 l 35 22 l 104 60 l 414 785 l 508 785 l 813 65 l 897 22 l 897 0 l 543 0 l 543 22 l 640 64 l 558 261 l 275 261 l 193 63 l 293 22 l 293 0 l 35 0 m 304 332 l 529 332 l 417 603 l 304 332 m 285 1031 l 164 1151 q 132 1190 142 1172 q 122 1229 122 1208 l 249 1229 l 306 1031 l 285 1031 m 247 882 l 433 1128 l 489 1128 l 675 882 l 651 882 l 461 1004 l 271 882 l 247 882 z "},"ẩ":{"ha":931,"x_min":35,"x_max":897,"o":"m 35 0 l 35 22 l 104 60 l 414 785 l 508 785 l 813 65 l 897 22 l 897 0 l 543 0 l 543 22 l 640 64 l 558 261 l 275 261 l 193 63 l 293 22 l 293 0 l 35 0 m 304 332 l 529 332 l 417 603 l 304 332 z "},"ẫ":{"ha":931,"x_min":35,"x_max":897,"o":"m 35 0 l 35 22 l 104 60 l 414 785 l 508 785 l 813 65 l 897 22 l 897 0 l 543 0 l 543 22 l 640 64 l 558 261 l 275 261 l 193 63 l 293 22 l 293 0 l 35 0 m 304 332 l 529 332 l 417 603 l 304 332 z "},"ả":{"ha":931,"x_min":35,"x_max":897,"o":"m 35 0 l 35 22 l 104 60 l 414 785 l 508 785 l 813 65 l 897 22 l 897 0 l 543 0 l 543 22 l 640 64 l 558 261 l 275 261 l 193 63 l 293 22 l 293 0 l 35 0 m 304 332 l 529 332 l 417 603 l 304 332 m 389 899 l 389 900 q 456 932 433 917 q 479 976 479 947 q 456 1014 479 999 q 375 1039 433 1029 l 393 1128 q 525 1085 488 1119 q 563 1015 563 1051 q 522 929 563 960 q 400 888 481 899 l 389 899 z "},"æ":{"ha":1226,"x_min":35,"x_max":1144,"o":"m 35 0 l 35 22 l 108 60 l 563 778 l 1110 778 l 1110 574 l 1088 574 l 1007 707 l 740 707 l 740 436 l 932 436 l 988 533 l 1008 533 l 1008 272 l 988 272 l 932 369 l 740 369 l 740 71 l 1036 71 l 1122 238 l 1144 238 l 1144 0 l 471 0 l 471 22 l 572 68 l 572 261 l 325 261 l 199 60 l 292 22 l 292 0 l 35 0 m 369 332 l 572 332 l 572 657 l 369 332 z "},"ǽ":{"ha":1226,"x_min":35,"x_max":1144,"o":"m 35 0 l 35 22 l 108 60 l 563 778 l 1110 778 l 1110 574 l 1088 574 l 1007 707 l 740 707 l 740 436 l 932 436 l 988 533 l 1008 533 l 1008 272 l 988 272 l 932 369 l 740 369 l 740 71 l 1036 71 l 1122 238 l 1144 238 l 1144 0 l 471 0 l 471 22 l 572 68 l 572 261 l 325 261 l 199 60 l 292 22 l 292 0 l 35 0 m 369 332 l 572 332 l 572 657 l 369 332 m 667 882 l 785 1128 l 921 1128 q 910 1083 921 1104 q 869 1035 900 1061 l 692 882 l 667 882 z "},"ć":{"ha":906,"x_min":81,"x_max":796,"o":"m 508 -14 q 287 36 383 -14 q 135 173 190 86 q 81 371 81 260 q 117 542 81 464 q 216 676 153 619 q 360 763 279 732 q 528 793 440 793 q 632 785 589 793 q 708 765 675 778 q 775 735 742 751 l 785 529 l 761 529 l 665 683 q 603 714 635 706 q 532 722 572 722 q 388 679 451 722 q 288 561 325 636 q 251 388 251 486 q 328 144 251 231 q 532 57 406 57 q 603 63 571 57 q 665 85 636 69 l 774 239 l 796 239 l 782 47 q 665 3 733 19 q 508 -14 597 -14 m 489 882 l 607 1128 l 743 1128 q 733 1083 743 1104 q 692 1035 722 1061 l 514 882 l 489 882 z "},"ĉ":{"ha":906,"x_min":81,"x_max":796,"o":"m 508 -14 q 287 36 383 -14 q 135 173 190 86 q 81 371 81 260 q 117 542 81 464 q 216 676 153 619 q 360 763 279 732 q 528 793 440 793 q 632 785 589 793 q 708 765 675 778 q 775 735 742 751 l 785 529 l 761 529 l 665 683 q 603 714 635 706 q 532 722 572 722 q 388 679 451 722 q 288 561 325 636 q 251 388 251 486 q 328 144 251 231 q 532 57 406 57 q 603 63 571 57 q 665 85 636 69 l 774 239 l 796 239 l 782 47 q 665 3 733 19 q 508 -14 597 -14 m 282 882 l 468 1128 l 524 1128 l 710 882 l 686 882 l 496 1004 l 306 882 l 282 882 z "},"č":{"ha":906,"x_min":81,"x_max":796,"o":"m 508 -14 q 287 36 383 -14 q 135 173 190 86 q 81 371 81 260 q 117 542 81 464 q 216 676 153 619 q 360 763 279 732 q 528 793 440 793 q 632 785 589 793 q 708 765 675 778 q 775 735 742 751 l 785 529 l 761 529 l 665 683 q 603 714 635 706 q 532 722 572 722 q 388 679 451 722 q 288 561 325 636 q 251 388 251 486 q 328 144 251 231 q 532 57 406 57 q 603 63 571 57 q 665 85 636 69 l 774 239 l 796 239 l 782 47 q 665 3 733 19 q 508 -14 597 -14 m 468 882 l 282 1128 l 306 1128 l 496 1006 l 686 1128 l 710 1128 l 524 882 l 468 882 z "},"ċ":{"ha":906,"x_min":81,"x_max":796,"o":"m 508 -14 q 287 36 383 -14 q 135 173 190 86 q 81 371 81 260 q 117 542 81 464 q 216 676 153 619 q 360 763 279 732 q 528 793 440 793 q 632 785 589 793 q 708 765 675 778 q 775 735 742 751 l 785 529 l 761 529 l 665 683 q 603 714 635 706 q 532 722 572 722 q 388 679 451 722 q 288 561 325 636 q 251 388 251 486 q 328 144 251 231 q 532 57 406 57 q 603 63 571 57 q 665 85 636 69 l 774 239 l 796 239 l 782 47 q 665 3 733 19 q 508 -14 597 -14 m 496 910 q 429 938 457 910 q 401 1004 401 965 q 429 1071 401 1043 q 496 1099 457 1099 q 563 1071 535 1099 q 590 1004 590 1043 q 563 938 590 965 q 496 910 535 910 z "},"ç":{"ha":906,"x_min":81,"x_max":796,"o":"m 500 -333 q 386 -297 424 -333 l 386 -275 l 390 -275 q 472 -290 422 -290 q 530 -276 511 -290 q 549 -237 549 -261 q 520 -187 549 -207 q 411 -143 492 -167 l 471 -12 q 268 47 356 -4 q 131 181 181 97 q 81 371 81 265 q 117 542 81 464 q 216 676 153 619 q 360 763 279 732 q 528 793 440 793 q 632 785 589 793 q 708 765 675 778 q 775 735 742 751 l 785 529 l 761 529 l 665 683 q 603 714 635 706 q 532 722 572 722 q 388 679 451 722 q 288 561 325 636 q 251 388 251 486 q 328 144 251 231 q 532 57 406 57 q 603 63 571 57 q 665 85 636 69 l 774 239 l 796 239 l 782 47 q 670 3 735 19 q 521 -14 606 -12 l 497 -65 q 608 -122 576 -90 q 640 -210 640 -154 q 603 -298 640 -262 q 500 -333 565 -333 z "},"ḉ":{"ha":906,"x_min":81,"x_max":796,"o":"m 489 882 l 606 1128 l 743 1128 q 733 1083 743 1104 q 692 1035 722 1061 l 513 882 l 489 882 m 504 -333 q 390 -297 428 -333 l 390 -275 l 394 -275 q 478 -290 426 -290 q 535 -276 517 -290 q 553 -237 553 -261 q 525 -187 553 -207 q 415 -143 497 -167 l 475 -12 q 271 45 360 -6 q 131 181 182 96 q 81 371 81 265 q 117 542 81 464 q 216 676 153 619 q 360 763 279 732 q 528 793 440 793 q 632 785 589 793 q 708 765 675 778 q 775 735 742 751 l 785 529 l 761 529 l 665 683 q 603 714 635 706 q 532 722 572 722 q 388 679 451 722 q 288 561 325 636 q 251 388 251 486 q 328 144 251 231 q 532 57 406 57 q 603 63 571 57 q 665 85 636 69 l 774 239 l 796 239 l 782 47 q 672 4 735 21 q 526 -14 608 -12 l 501 -67 q 613 -122 581 -90 q 644 -210 644 -154 q 607 -298 644 -262 q 504 -333 569 -333 z "},"ď":{"ha":976,"x_min":72,"x_max":899,"o":"m 72 0 l 72 22 l 175 68 l 175 710 l 72 756 l 72 778 l 457 778 q 697 733 597 778 q 847 608 796 688 q 899 424 899 528 q 843 202 899 297 q 687 53 788 107 q 449 0 586 0 l 72 0 m 411 707 l 343 707 l 343 71 l 422 71 q 647 158 569 71 q 725 392 725 244 q 645 626 725 544 q 411 707 565 707 m 454 882 l 268 1128 l 292 1128 l 482 1006 l 672 1128 l 696 1128 l 510 882 l 454 882 z "},"đ":{"ha":976,"x_min":72,"x_max":899,"o":"m 72 0 l 72 22 l 175 68 l 175 371 l 76 371 l 76 435 l 175 435 l 175 710 l 72 756 l 72 778 l 457 778 q 697 733 597 778 q 847 608 796 688 q 899 424 899 528 q 843 202 899 297 q 687 53 788 107 q 449 0 586 0 l 72 0 m 524 371 l 343 371 l 343 71 l 422 71 q 647 158 569 71 q 725 392 725 244 q 645 626 725 544 q 411 707 565 707 l 343 707 l 343 435 l 524 435 l 524 371 z "},"ḍ":{"ha":976,"x_min":72,"x_max":899,"o":"m 72 0 l 72 22 l 175 68 l 175 710 l 72 756 l 72 778 l 457 778 q 697 733 597 778 q 847 608 796 688 q 899 424 899 528 q 843 202 899 297 q 687 53 788 107 q 449 0 586 0 l 72 0 m 411 707 l 343 707 l 343 71 l 422 71 q 647 158 569 71 q 725 392 725 244 q 645 626 725 544 q 411 707 565 707 m 490 -306 q 424 -278 451 -306 q 396 -211 396 -250 q 424 -144 396 -172 q 490 -117 451 -117 q 557 -144 529 -117 q 585 -211 585 -172 q 557 -278 585 -250 q 490 -306 529 -306 z "},"ḏ":{"ha":976,"x_min":72,"x_max":899,"o":"m 72 0 l 72 22 l 175 68 l 175 710 l 72 756 l 72 778 l 457 778 q 697 733 597 778 q 847 608 796 688 q 899 424 899 528 q 843 202 899 297 q 687 53 788 107 q 449 0 586 0 l 72 0 m 411 707 l 343 707 l 343 71 l 422 71 q 647 158 569 71 q 725 392 725 244 q 645 626 725 544 q 411 707 565 707 m 296 -246 l 296 -168 l 685 -168 l 685 -246 l 296 -246 z "},"è":{"ha":828,"x_min":72,"x_max":746,"o":"m 72 0 l 72 22 l 174 68 l 174 710 l 72 756 l 72 778 l 711 778 l 711 574 l 689 574 l 608 707 l 342 707 l 342 436 l 533 436 l 589 533 l 610 533 l 610 272 l 589 272 l 533 369 l 342 369 l 342 71 l 639 71 l 724 238 l 746 238 l 746 0 l 72 0 m 419 882 l 240 1035 q 199 1083 210 1061 q 189 1128 189 1104 l 326 1128 l 443 882 l 419 882 z "},"é":{"ha":828,"x_min":72,"x_max":746,"o":"m 72 0 l 72 22 l 174 68 l 174 710 l 72 756 l 72 778 l 711 778 l 711 574 l 689 574 l 608 707 l 342 707 l 342 436 l 533 436 l 589 533 l 610 533 l 610 272 l 589 272 l 533 369 l 342 369 l 342 71 l 639 71 l 724 238 l 746 238 l 746 0 l 72 0 m 424 882 l 542 1128 l 678 1128 q 667 1083 678 1104 q 626 1035 657 1061 l 449 882 l 424 882 z "},"ê":{"ha":828,"x_min":72,"x_max":746,"o":"m 72 0 l 72 22 l 174 68 l 174 710 l 72 756 l 72 778 l 711 778 l 711 574 l 689 574 l 608 707 l 342 707 l 342 436 l 533 436 l 589 533 l 610 533 l 610 272 l 589 272 l 533 369 l 342 369 l 342 71 l 639 71 l 724 238 l 746 238 l 746 0 l 72 0 m 218 882 l 404 1128 l 460 1128 l 646 882 l 622 882 l 432 1004 l 242 882 l 218 882 z "},"ě":{"ha":828,"x_min":72,"x_max":746,"o":"m 72 0 l 72 22 l 174 68 l 174 710 l 72 756 l 72 778 l 711 778 l 711 574 l 689 574 l 608 707 l 342 707 l 342 436 l 533 436 l 589 533 l 610 533 l 610 272 l 589 272 l 533 369 l 342 369 l 342 71 l 639 71 l 724 238 l 746 238 l 746 0 l 72 0 m 404 882 l 218 1128 l 242 1128 l 432 1006 l 622 1128 l 646 1128 l 460 882 l 404 882 z "},"ẽ":{"ha":828,"x_min":72,"x_max":746,"o":"m 72 0 l 72 22 l 174 68 l 174 710 l 72 756 l 72 778 l 711 778 l 711 574 l 689 574 l 608 707 l 342 707 l 342 436 l 533 436 l 589 533 l 610 533 l 610 272 l 589 272 l 533 369 l 342 369 l 342 71 l 639 71 l 724 238 l 746 238 l 746 0 l 72 0 m 210 913 q 258 1032 236 993 q 301 1083 279 1071 q 351 1096 324 1096 q 405 1083 379 1096 q 454 1051 431 1069 q 500 1020 478 1033 q 544 1007 522 1007 q 588 1024 569 1007 q 628 1096 606 1042 l 654 1096 q 606 976 628 1015 q 563 925 585 938 q 513 913 540 913 q 459 926 485 913 q 410 957 433 939 q 364 988 386 975 q 319 1001 342 1001 q 276 984 294 1001 q 236 913 258 967 l 210 913 z "},"ë":{"ha":828,"x_min":72,"x_max":746,"o":"m 72 0 l 72 22 l 174 68 l 174 710 l 72 756 l 72 778 l 711 778 l 711 574 l 689 574 l 608 707 l 342 707 l 342 436 l 533 436 l 589 533 l 610 533 l 610 272 l 589 272 l 533 369 l 342 369 l 342 71 l 639 71 l 724 238 l 746 238 l 746 0 l 72 0 m 299 928 q 244 949 265 928 q 222 1003 222 971 q 244 1056 222 1035 q 299 1078 265 1078 q 352 1056 331 1078 q 374 1003 374 1035 q 352 949 374 971 q 299 928 331 928 m 565 928 q 511 949 532 928 q 490 1003 490 971 q 511 1056 490 1035 q 565 1078 532 1078 q 619 1056 599 1078 q 640 1003 640 1035 q 619 949 640 971 q 565 928 599 928 z "},"ē":{"ha":828,"x_min":72,"x_max":746,"o":"m 72 0 l 72 22 l 174 68 l 174 710 l 72 756 l 72 778 l 711 778 l 711 574 l 689 574 l 608 707 l 342 707 l 342 436 l 533 436 l 589 533 l 610 533 l 610 272 l 589 272 l 533 369 l 342 369 l 342 71 l 639 71 l 724 238 l 746 238 l 746 0 l 72 0 m 238 964 l 238 1042 l 626 1042 l 626 964 l 238 964 z "},"ĕ":{"ha":828,"x_min":72,"x_max":746,"o":"m 72 0 l 72 22 l 174 68 l 174 710 l 72 756 l 72 778 l 711 778 l 711 574 l 689 574 l 608 707 l 342 707 l 342 436 l 533 436 l 589 533 l 610 533 l 610 272 l 589 272 l 533 369 l 342 369 l 342 71 l 639 71 l 724 238 l 746 238 l 746 0 l 72 0 m 432 896 q 290 953 336 896 q 218 1128 244 1011 l 242 1128 q 297 1042 268 1069 q 358 1006 325 1014 q 432 997 390 997 q 506 1006 474 997 q 567 1042 539 1014 q 622 1128 594 1069 l 646 1128 q 570 953 618 1011 q 432 896 522 896 z "},"ė":{"ha":828,"x_min":72,"x_max":746,"o":"m 72 0 l 72 22 l 174 68 l 174 710 l 72 756 l 72 778 l 711 778 l 711 574 l 689 574 l 608 707 l 342 707 l 342 436 l 533 436 l 589 533 l 610 533 l 610 272 l 589 272 l 533 369 l 342 369 l 342 71 l 639 71 l 724 238 l 746 238 l 746 0 l 72 0 m 431 910 q 364 938 392 910 q 336 1004 336 965 q 364 1071 336 1043 q 431 1099 392 1099 q 497 1071 469 1099 q 525 1004 525 1043 q 497 938 525 965 q 431 910 469 910 z "},"ę":{"ha":828,"x_min":72,"x_max":746,"o":"m 72 0 l 72 22 l 174 68 l 174 710 l 72 756 l 72 778 l 711 778 l 711 574 l 689 574 l 608 707 l 342 707 l 342 436 l 533 436 l 589 533 l 610 533 l 610 272 l 589 272 l 533 369 l 342 369 l 342 71 l 639 71 l 724 238 l 746 238 l 746 0 l 647 0 q 589 -178 589 -97 q 672 -265 589 -265 q 707 -260 689 -265 q 740 -246 725 -256 l 744 -246 l 744 -267 q 696 -315 726 -297 q 622 -333 665 -333 q 523 -300 561 -333 q 485 -210 485 -267 q 517 -109 485 -160 q 604 0 550 -58 l 72 0 z "},"ẹ":{"ha":828,"x_min":72,"x_max":746,"o":"m 72 0 l 72 22 l 174 68 l 174 710 l 72 756 l 72 778 l 711 778 l 711 574 l 689 574 l 608 707 l 342 707 l 342 436 l 533 436 l 589 533 l 610 533 l 610 272 l 589 272 l 533 369 l 342 369 l 342 71 l 639 71 l 724 238 l 746 238 l 746 0 l 72 0 m 443 -306 q 376 -278 404 -306 q 349 -211 349 -250 q 376 -144 349 -172 q 443 -117 404 -117 q 510 -144 482 -117 q 538 -211 538 -172 q 510 -278 538 -250 q 443 -306 482 -306 z "},"ȅ":{"ha":828,"x_min":72,"x_max":746,"o":"m 72 0 l 72 22 l 174 68 l 174 710 l 72 756 l 72 778 l 711 778 l 711 574 l 689 574 l 608 707 l 342 707 l 342 436 l 533 436 l 589 533 l 610 533 l 610 272 l 589 272 l 533 369 l 342 369 l 342 71 l 639 71 l 724 238 l 746 238 l 746 0 l 72 0 m 331 882 l 181 1040 q 157 1085 158 1063 q 164 1128 156 1107 l 267 1128 l 354 882 l 331 882 m 507 882 l 375 1040 q 353 1086 356 1065 q 358 1128 351 1107 l 461 1128 l 532 882 l 507 882 z "},"ȇ":{"ha":828,"x_min":72,"x_max":746,"o":"m 72 0 l 72 22 l 174 68 l 174 710 l 72 756 l 72 778 l 711 778 l 711 574 l 689 574 l 608 707 l 342 707 l 342 436 l 533 436 l 589 533 l 610 533 l 610 272 l 589 272 l 533 369 l 342 369 l 342 71 l 639 71 l 724 238 l 746 238 l 746 0 l 72 0 m 218 896 q 294 1070 246 1013 q 432 1128 342 1128 q 574 1070 528 1128 q 646 896 619 1013 l 622 896 q 567 982 596 954 q 506 1018 539 1010 q 432 1026 474 1026 q 358 1018 390 1026 q 297 982 325 1010 q 242 896 269 954 l 218 896 z "},"ế":{"ha":828,"x_min":72,"x_max":771,"o":"m 72 0 l 72 22 l 174 68 l 174 710 l 72 756 l 72 778 l 711 778 l 711 574 l 689 574 l 608 707 l 342 707 l 342 436 l 533 436 l 589 533 l 610 533 l 610 272 l 589 272 l 533 369 l 342 369 l 342 71 l 639 71 l 724 238 l 746 238 l 746 0 l 72 0 m 588 1031 l 644 1229 l 771 1229 q 761 1190 771 1208 q 729 1151 751 1172 l 608 1031 l 588 1031 m 218 882 l 404 1128 l 460 1128 l 646 882 l 622 882 l 432 1004 l 242 882 l 218 882 z "},"ệ":{"ha":828,"x_min":72,"x_max":746,"o":"m 72 0 l 72 22 l 174 68 l 174 710 l 72 756 l 72 778 l 711 778 l 711 574 l 689 574 l 608 707 l 342 707 l 342 436 l 533 436 l 589 533 l 610 533 l 610 272 l 589 272 l 533 369 l 342 369 l 342 71 l 639 71 l 724 238 l 746 238 l 746 0 l 72 0 m 218 882 l 404 1128 l 460 1128 l 646 882 l 622 882 l 432 1004 l 242 882 l 218 882 m 443 -306 q 376 -278 404 -306 q 349 -211 349 -250 q 376 -144 349 -172 q 443 -117 404 -117 q 510 -144 482 -117 q 538 -211 538 -172 q 510 -278 538 -250 q 443 -306 482 -306 z "},"ề":{"ha":828,"x_min":72,"x_max":746,"o":"m 72 0 l 72 22 l 174 68 l 174 710 l 72 756 l 72 778 l 711 778 l 711 574 l 689 574 l 608 707 l 342 707 l 342 436 l 533 436 l 589 533 l 610 533 l 610 272 l 589 272 l 533 369 l 342 369 l 342 71 l 639 71 l 724 238 l 746 238 l 746 0 l 72 0 m 256 1031 l 135 1151 q 103 1190 113 1172 q 93 1229 93 1208 l 219 1229 l 276 1031 l 256 1031 m 218 882 l 404 1128 l 460 1128 l 646 882 l 622 882 l 432 1004 l 242 882 l 218 882 z "},"ể":{"ha":828,"x_min":72,"x_max":746,"o":"m 72 0 l 72 22 l 174 68 l 174 710 l 72 756 l 72 778 l 711 778 l 711 574 l 689 574 l 608 707 l 342 707 l 342 436 l 533 436 l 589 533 l 610 533 l 610 272 l 589 272 l 533 369 l 342 369 l 342 71 l 639 71 l 724 238 l 746 238 l 746 0 l 72 0 z "},"ễ":{"ha":828,"x_min":72,"x_max":746,"o":"m 72 0 l 72 22 l 174 68 l 174 710 l 72 756 l 72 778 l 711 778 l 711 574 l 689 574 l 608 707 l 342 707 l 342 436 l 533 436 l 589 533 l 610 533 l 610 272 l 589 272 l 533 369 l 342 369 l 342 71 l 639 71 l 724 238 l 746 238 l 746 0 l 72 0 z "},"ẻ":{"ha":828,"x_min":72,"x_max":746,"o":"m 72 0 l 72 22 l 174 68 l 174 710 l 72 756 l 72 778 l 711 778 l 711 574 l 689 574 l 608 707 l 342 707 l 342 436 l 533 436 l 589 533 l 610 533 l 610 272 l 589 272 l 533 369 l 342 369 l 342 71 l 639 71 l 724 238 l 746 238 l 746 0 l 72 0 m 358 899 l 358 900 q 426 932 403 917 q 449 976 449 947 q 426 1014 449 999 q 344 1039 403 1029 l 363 1128 q 494 1085 457 1119 q 532 1015 532 1051 q 491 929 532 960 q 369 888 450 899 l 358 899 z "},"ḕ":{"ha":828,"x_min":72,"x_max":746,"o":"m 72 0 l 72 22 l 174 68 l 174 710 l 72 756 l 72 778 l 711 778 l 711 574 l 689 574 l 608 707 l 342 707 l 342 436 l 533 436 l 589 533 l 610 533 l 610 272 l 589 272 l 533 369 l 342 369 l 342 71 l 639 71 l 724 238 l 746 238 l 746 0 l 72 0 z "},"ḗ":{"ha":828,"x_min":72,"x_max":746,"o":"m 72 0 l 72 22 l 174 68 l 174 710 l 72 756 l 72 778 l 711 778 l 711 574 l 689 574 l 608 707 l 342 707 l 342 436 l 533 436 l 589 533 l 610 533 l 610 272 l 589 272 l 533 369 l 342 369 l 342 71 l 639 71 l 724 238 l 746 238 l 746 0 l 72 0 z "},"ḝ":{"ha":828,"x_min":72,"x_max":746,"o":"m 432 896 q 290 953 336 896 q 218 1128 244 1011 l 242 1128 q 296 1042 268 1069 q 357 1006 324 1014 q 432 997 390 997 q 505 1006 472 997 q 566 1042 538 1014 q 621 1128 594 1069 l 644 1128 q 569 953 617 1011 q 432 896 522 896 m 72 0 l 72 22 l 174 68 l 174 710 l 72 756 l 72 778 l 711 778 l 711 574 l 689 574 l 608 707 l 342 707 l 342 436 l 533 436 l 589 533 l 610 533 l 610 272 l 589 272 l 533 369 l 342 369 l 342 71 l 639 71 l 724 238 l 746 238 l 746 0 l 469 0 l 439 -67 q 551 -122 519 -90 q 583 -210 583 -154 q 546 -298 583 -262 q 442 -333 508 -333 q 328 -297 365 -333 l 328 -275 l 332 -275 q 371 -287 350 -283 q 415 -290 392 -290 q 474 -276 456 -290 q 492 -237 492 -261 q 463 -187 492 -207 q 353 -143 435 -167 l 419 0 l 72 0 z "},"ĝ":{"ha":943,"x_min":81,"x_max":890,"o":"m 494 -14 q 284 35 378 -14 q 135 172 190 85 q 81 371 81 258 q 116 541 81 464 q 213 674 151 618 q 355 761 274 731 q 528 792 436 792 q 678 776 621 792 q 786 735 735 760 l 796 532 l 775 532 l 683 678 q 608 717 640 706 q 533 728 575 728 q 381 687 446 728 q 281 573 317 646 q 244 407 244 500 q 281 221 244 300 q 381 99 317 142 q 532 57 446 57 q 588 60 560 57 q 643 72 615 64 l 643 279 l 538 331 l 538 350 l 890 350 l 890 331 l 804 276 l 804 86 q 718 33 769 56 q 608 -1 667 11 q 494 -14 550 -14 m 283 882 l 469 1128 l 525 1128 l 711 882 l 688 882 l 497 1004 l 307 882 l 283 882 z "},"ğ":{"ha":943,"x_min":81,"x_max":890,"o":"m 494 -14 q 284 35 378 -14 q 135 172 190 85 q 81 371 81 258 q 116 541 81 464 q 213 674 151 618 q 355 761 274 731 q 528 792 436 792 q 678 776 621 792 q 786 735 735 760 l 796 532 l 775 532 l 683 678 q 608 717 640 706 q 533 728 575 728 q 381 687 446 728 q 281 573 317 646 q 244 407 244 500 q 281 221 244 300 q 381 99 317 142 q 532 57 446 57 q 588 60 560 57 q 643 72 615 64 l 643 279 l 538 331 l 538 350 l 890 350 l 890 331 l 804 276 l 804 86 q 718 33 769 56 q 608 -1 667 11 q 494 -14 550 -14 m 497 896 q 356 953 401 896 q 283 1128 310 1011 l 307 1128 q 362 1042 333 1069 q 423 1006 390 1014 q 497 997 456 997 q 572 1006 539 997 q 632 1042 604 1014 q 688 1128 660 1069 l 711 1128 q 635 953 683 1011 q 497 896 588 896 z "},"ġ":{"ha":943,"x_min":81,"x_max":890,"o":"m 494 -14 q 284 35 378 -14 q 135 172 190 85 q 81 371 81 258 q 116 541 81 464 q 213 674 151 618 q 355 761 274 731 q 528 792 436 792 q 678 776 621 792 q 786 735 735 760 l 796 532 l 775 532 l 683 678 q 608 717 640 706 q 533 728 575 728 q 381 687 446 728 q 281 573 317 646 q 244 407 244 500 q 281 221 244 300 q 381 99 317 142 q 532 57 446 57 q 588 60 560 57 q 643 72 615 64 l 643 279 l 538 331 l 538 350 l 890 350 l 890 331 l 804 276 l 804 86 q 718 33 769 56 q 608 -1 667 11 q 494 -14 550 -14 m 497 910 q 431 938 458 910 q 403 1004 403 965 q 431 1071 403 1043 q 497 1099 458 1099 q 564 1071 536 1099 q 592 1004 592 1043 q 564 938 592 965 q 497 910 536 910 z "},"ģ":{"ha":943,"x_min":81,"x_max":890,"o":"m 494 -14 q 284 35 378 -14 q 135 172 190 85 q 81 371 81 258 q 116 541 81 464 q 213 674 151 618 q 355 761 274 731 q 528 792 436 792 q 678 776 621 792 q 786 735 735 760 l 796 532 l 775 532 l 683 678 q 608 717 640 706 q 533 728 575 728 q 381 687 446 728 q 281 573 317 646 q 244 407 244 500 q 281 221 244 300 q 381 99 317 142 q 532 57 446 57 q 588 60 560 57 q 643 72 615 64 l 643 279 l 538 331 l 538 350 l 890 350 l 890 331 l 804 276 l 804 86 q 718 33 769 56 q 608 -1 667 11 q 494 -14 550 -14 m 531 892 q 422 921 458 892 q 385 1003 385 950 q 428 1088 385 1058 q 539 1118 471 1118 q 563 1117 550 1118 q 586 1113 575 1115 l 586 1089 q 566 1092 576 1090 q 549 1093 556 1093 q 494 1081 514 1093 q 475 1043 475 1068 q 502 1001 475 1013 q 586 989 529 989 l 586 921 q 574 900 586 908 q 531 892 563 892 z "},"ǧ":{"ha":943,"x_min":81,"x_max":890,"o":"m 494 -14 q 284 35 378 -14 q 135 172 190 85 q 81 371 81 258 q 116 541 81 464 q 213 674 151 618 q 355 761 274 731 q 528 792 436 792 q 678 776 621 792 q 786 735 735 760 l 796 532 l 775 532 l 683 678 q 608 717 640 706 q 533 728 575 728 q 381 687 446 728 q 281 573 317 646 q 244 407 244 500 q 281 221 244 300 q 381 99 317 142 q 532 57 446 57 q 588 60 560 57 q 643 72 615 64 l 643 279 l 538 331 l 538 350 l 890 350 l 890 331 l 804 276 l 804 86 q 718 33 769 56 q 608 -1 667 11 q 494 -14 550 -14 m 469 882 l 283 1128 l 307 1128 l 497 1006 l 688 1128 l 711 1128 l 525 882 l 469 882 z "},"ḡ":{"ha":943,"x_min":81,"x_max":890,"o":"m 494 -14 q 284 35 378 -14 q 135 172 190 85 q 81 371 81 258 q 116 541 81 464 q 213 674 151 618 q 355 761 274 731 q 528 792 436 792 q 678 776 621 792 q 786 735 735 760 l 796 532 l 775 532 l 683 678 q 608 717 640 706 q 533 728 575 728 q 381 687 446 728 q 281 573 317 646 q 244 407 244 500 q 281 221 244 300 q 381 99 317 142 q 532 57 446 57 q 588 60 560 57 q 643 72 615 64 l 643 279 l 538 331 l 538 350 l 890 350 l 890 331 l 804 276 l 804 86 q 718 33 769 56 q 608 -1 667 11 q 494 -14 550 -14 m 303 964 l 303 1042 l 692 1042 l 692 964 l 303 964 z "},"ĥ":{"ha":1036,"x_min":72,"x_max":964,"o":"m 72 0 l 72 22 l 174 68 l 174 710 l 72 756 l 72 778 l 440 778 l 440 756 l 342 710 l 342 438 l 696 438 l 696 710 l 597 756 l 597 778 l 964 778 l 964 756 l 864 710 l 864 68 l 964 22 l 964 0 l 597 0 l 597 22 l 696 68 l 696 367 l 342 367 l 342 68 l 440 22 l 440 0 l 72 0 m 306 882 l 492 1128 l 547 1128 l 733 882 l 710 882 l 519 1004 l 329 882 l 306 882 z "},"ħ":{"ha":1036,"x_min":72,"x_max":964,"o":"m 72 0 l 72 22 l 174 68 l 174 554 l 72 554 l 72 619 l 174 619 l 174 710 l 72 756 l 72 778 l 440 778 l 440 756 l 342 710 l 342 619 l 696 619 l 696 710 l 597 756 l 597 778 l 964 778 l 964 756 l 864 710 l 864 619 l 964 619 l 964 554 l 864 554 l 864 68 l 964 22 l 964 0 l 597 0 l 597 22 l 696 68 l 696 367 l 342 367 l 342 68 l 440 22 l 440 0 l 72 0 m 342 438 l 696 438 l 696 554 l 342 554 l 342 438 z "},"ḥ":{"ha":1036,"x_min":72,"x_max":964,"o":"m 72 0 l 72 22 l 174 68 l 174 710 l 72 756 l 72 778 l 440 778 l 440 756 l 342 710 l 342 438 l 696 438 l 696 710 l 597 756 l 597 778 l 964 778 l 964 756 l 864 710 l 864 68 l 964 22 l 964 0 l 597 0 l 597 22 l 696 68 l 696 367 l 342 367 l 342 68 l 440 22 l 440 0 l 72 0 m 519 -306 q 453 -278 481 -306 q 425 -211 425 -250 q 453 -144 425 -172 q 519 -117 481 -117 q 586 -144 558 -117 q 614 -211 614 -172 q 586 -278 614 -250 q 519 -306 558 -306 z "},"ḫ":{"ha":1036,"x_min":72,"x_max":964,"o":"m 72 0 l 72 22 l 174 68 l 174 710 l 72 756 l 72 778 l 440 778 l 440 756 l 342 710 l 342 438 l 696 438 l 696 710 l 597 756 l 597 778 l 964 778 l 964 756 l 864 710 l 864 68 l 964 22 l 964 0 l 597 0 l 597 22 l 696 68 l 696 367 l 342 367 l 342 68 l 440 22 l 440 0 l 72 0 m 519 -333 q 378 -276 424 -333 q 306 -101 332 -218 l 329 -101 q 384 -187 356 -160 q 445 -224 413 -215 q 519 -232 478 -232 q 594 -224 561 -232 q 654 -187 626 -215 q 710 -101 682 -160 l 733 -101 q 658 -276 706 -218 q 519 -333 610 -333 z "},"ì":{"ha":513,"x_min":13,"x_max":435,"o":"m 78 0 l 78 22 l 169 68 l 169 710 l 78 756 l 78 778 l 435 778 l 435 756 l 338 710 l 338 68 l 435 22 l 435 0 l 78 0 m 243 882 l 64 1035 q 23 1083 33 1061 q 13 1128 13 1104 l 150 1128 l 267 882 l 243 882 z "},"í":{"ha":513,"x_min":78,"x_max":501,"o":"m 78 0 l 78 22 l 169 68 l 169 710 l 78 756 l 78 778 l 435 778 l 435 756 l 338 710 l 338 68 l 435 22 l 435 0 l 78 0 m 247 882 l 365 1128 l 501 1128 q 491 1083 501 1104 q 450 1035 481 1061 l 272 882 l 247 882 z "},"î":{"ha":513,"x_min":40,"x_max":468,"o":"m 78 0 l 78 22 l 169 68 l 169 710 l 78 756 l 78 778 l 435 778 l 435 756 l 338 710 l 338 68 l 435 22 l 435 0 l 78 0 m 40 882 l 226 1128 l 282 1128 l 468 882 l 444 882 l 254 1004 l 64 882 l 40 882 z "},"ĩ":{"ha":513,"x_min":32,"x_max":476,"o":"m 78 0 l 78 22 l 169 68 l 169 710 l 78 756 l 78 778 l 435 778 l 435 756 l 338 710 l 338 68 l 435 22 l 435 0 l 78 0 m 32 913 q 80 1032 58 993 q 124 1083 101 1071 q 174 1096 146 1096 q 227 1083 201 1096 q 276 1051 253 1069 q 322 1020 300 1033 q 367 1007 344 1007 q 410 1024 392 1007 q 450 1096 428 1042 l 476 1096 q 428 976 450 1015 q 385 925 407 938 q 335 913 363 913 q 281 926 307 913 q 232 957 256 939 q 186 988 208 975 q 142 1001 164 1001 q 99 984 117 1001 q 58 913 81 967 l 32 913 z "},"ï":{"ha":513,"x_min":44,"x_max":463,"o":"m 78 0 l 78 22 l 169 68 l 169 710 l 78 756 l 78 778 l 435 778 l 435 756 l 338 710 l 338 68 l 435 22 l 435 0 l 78 0 m 121 928 q 66 949 88 928 q 44 1003 44 971 q 66 1056 44 1035 q 121 1078 88 1078 q 174 1056 153 1078 q 196 1003 196 1035 q 174 949 196 971 q 121 928 153 928 m 388 928 q 333 949 354 928 q 313 1003 313 971 q 333 1056 313 1035 q 388 1078 354 1078 q 442 1056 421 1078 q 463 1003 463 1035 q 442 949 463 971 q 388 928 421 928 z "},"ī":{"ha":513,"x_min":60,"x_max":449,"o":"m 78 0 l 78 22 l 169 68 l 169 710 l 78 756 l 78 778 l 435 778 l 435 756 l 338 710 l 338 68 l 435 22 l 435 0 l 78 0 m 60 964 l 60 1042 l 449 1042 l 449 964 l 60 964 z "},"ĭ":{"ha":513,"x_min":40,"x_max":468,"o":"m 78 0 l 78 22 l 169 68 l 169 710 l 78 756 l 78 778 l 435 778 l 435 756 l 338 710 l 338 68 l 435 22 l 435 0 l 78 0 m 254 896 q 113 953 158 896 q 40 1128 67 1011 l 64 1128 q 119 1042 90 1069 q 180 1006 147 1014 q 254 997 213 997 q 328 1006 296 997 q 389 1042 361 1014 q 444 1128 417 1069 l 468 1128 q 392 953 440 1011 q 254 896 344 896 z "},"į":{"ha":513,"x_min":78,"x_max":435,"o":"m 78 0 l 78 22 l 169 68 l 169 710 l 78 756 l 78 778 l 435 778 l 435 756 l 338 710 l 338 68 l 435 22 l 435 0 l 290 0 q 231 -178 231 -97 q 315 -265 231 -265 q 349 -260 331 -265 q 383 -246 367 -256 l 388 -246 l 388 -267 q 265 -333 350 -333 q 165 -300 204 -333 q 126 -210 126 -267 q 160 -109 126 -160 q 246 0 193 -58 l 78 0 z "},"ị":{"ha":513,"x_min":78,"x_max":435,"o":"m 78 0 l 78 22 l 169 68 l 169 710 l 78 756 l 78 778 l 435 778 l 435 756 l 338 710 l 338 68 l 435 22 l 435 0 l 78 0 m 254 -306 q 188 -278 215 -306 q 160 -211 160 -250 q 188 -144 160 -172 q 254 -117 215 -117 q 321 -144 293 -117 q 349 -211 349 -172 q 321 -278 349 -250 q 254 -306 293 -306 z "},"ȉ":{"ha":513,"x_min":-22,"x_max":435,"o":"m 78 0 l 78 22 l 169 68 l 169 710 l 78 756 l 78 778 l 435 778 l 435 756 l 338 710 l 338 68 l 435 22 l 435 0 l 78 0 m 153 882 l 3 1040 q -21 1085 -19 1063 q -14 1128 -22 1107 l 89 1128 l 176 882 l 153 882 m 329 882 l 197 1040 q 176 1086 178 1065 q 181 1128 174 1107 l 283 1128 l 354 882 l 329 882 z "},"ȋ":{"ha":513,"x_min":40,"x_max":468,"o":"m 78 0 l 78 22 l 169 68 l 169 710 l 78 756 l 78 778 l 435 778 l 435 756 l 338 710 l 338 68 l 435 22 l 435 0 l 78 0 m 40 896 q 116 1070 68 1013 q 254 1128 164 1128 q 396 1070 350 1128 q 468 896 442 1013 l 444 896 q 390 982 418 954 q 328 1018 361 1010 q 254 1026 296 1026 q 180 1018 213 1026 q 119 982 147 1010 q 64 896 92 954 l 40 896 z "},"ỉ":{"ha":513,"x_min":78,"x_max":435,"o":"m 78 0 l 78 22 l 169 68 l 169 710 l 78 756 l 78 778 l 435 778 l 435 756 l 338 710 l 338 68 l 435 22 l 435 0 l 78 0 m 182 899 l 182 900 q 249 932 226 917 q 272 976 272 947 q 249 1014 272 999 q 168 1039 226 1029 l 186 1128 q 318 1085 281 1119 q 356 1015 356 1051 q 315 929 356 960 q 193 888 274 899 l 182 899 z "},"ḯ":{"ha":513,"x_min":44,"x_max":494,"o":"m 78 0 l 78 22 l 169 68 l 169 710 l 78 756 l 78 778 l 435 778 l 435 756 l 338 710 l 338 68 l 435 22 l 435 0 l 78 0 z "},"ĳ":{"ha":1036,"x_min":78,"x_max":958,"o":"m 78 0 l 78 22 l 169 68 l 169 710 l 78 756 l 78 778 l 435 778 l 435 756 l 338 710 l 338 68 l 435 22 l 435 0 l 78 0 m 583 -204 q 548 -196 564 -204 q 532 -164 532 -187 q 536 -140 532 -161 q 546 -86 540 -119 l 556 -86 q 584 -94 572 -92 q 610 -97 596 -97 q 656 -84 638 -97 q 683 -32 674 -71 q 692 85 692 7 l 692 710 l 593 757 l 593 778 l 958 778 l 958 757 l 860 710 l 860 274 q 840 104 860 179 q 791 -24 819 29 q 736 -108 763 -78 q 659 -180 694 -156 q 583 -204 624 -204 z "},"ĵ":{"ha":524,"x_min":19,"x_max":468,"o":"m 71 -204 q 35 -196 51 -204 q 19 -164 19 -187 q 24 -140 19 -161 q 33 -86 28 -119 l 43 -86 q 72 -94 60 -92 q 97 -97 83 -97 q 143 -84 125 -97 q 170 -32 161 -71 q 179 85 179 7 l 179 710 l 81 757 l 81 778 l 446 778 l 446 757 l 347 710 l 347 274 q 327 104 347 179 q 278 -24 307 29 q 224 -108 250 -78 q 147 -180 182 -156 q 71 -204 111 -204 m 40 882 l 226 1128 l 282 1128 l 468 882 l 444 882 l 254 1004 l 64 882 l 40 882 z "},"ķ":{"ha":975,"x_min":74,"x_max":942,"o":"m 74 0 l 74 22 l 176 68 l 176 710 l 74 756 l 74 778 l 444 778 l 444 756 l 343 710 l 343 68 l 444 22 l 444 0 l 74 0 m 689 0 l 343 394 l 664 715 l 578 756 l 578 778 l 861 778 l 861 756 l 779 722 l 500 454 l 849 58 l 942 22 l 942 0 l 689 0 m 465 -332 q 441 -331 454 -332 q 418 -328 428 -331 l 418 -303 q 438 -307 428 -306 q 456 -308 449 -308 q 510 -296 490 -308 q 529 -258 529 -283 q 502 -215 529 -226 q 417 -204 475 -204 l 417 -136 q 428 -115 417 -124 q 474 -107 440 -107 q 583 -135 546 -107 q 619 -217 619 -164 q 576 -302 619 -272 q 465 -332 533 -332 z "},"ĺ":{"ha":817,"x_min":72,"x_max":733,"o":"m 72 0 l 72 22 l 174 68 l 174 710 l 72 756 l 72 778 l 456 778 l 456 756 l 342 710 l 342 71 l 617 71 l 711 285 l 733 285 l 733 0 l 72 0 m 251 882 l 369 1128 l 506 1128 q 495 1083 506 1104 q 454 1035 485 1061 l 276 882 l 251 882 z "},"ľ":{"ha":817,"x_min":72,"x_max":733,"o":"m 72 0 l 72 22 l 174 68 l 174 710 l 72 756 l 72 778 l 456 778 l 456 756 l 342 710 l 342 71 l 617 71 l 711 285 l 733 285 l 733 0 l 72 0 m 539 518 l 564 778 l 688 778 q 691 737 692 758 q 672 688 690 715 l 563 518 l 539 518 z "},"ļ":{"ha":817,"x_min":72,"x_max":733,"o":"m 72 0 l 72 22 l 174 68 l 174 710 l 72 756 l 72 778 l 456 778 l 456 756 l 342 710 l 342 71 l 617 71 l 711 285 l 733 285 l 733 0 l 72 0 m 400 -332 q 376 -331 389 -332 q 353 -328 363 -331 l 353 -303 q 373 -307 363 -306 q 390 -308 383 -308 q 444 -296 425 -308 q 464 -258 464 -283 q 437 -215 464 -226 q 351 -204 410 -204 l 351 -136 q 363 -115 351 -124 q 408 -107 375 -107 q 517 -135 481 -107 q 554 -217 554 -164 q 511 -302 554 -272 q 400 -332 468 -332 z "},"ł":{"ha":817,"x_min":72,"x_max":733,"o":"m 72 0 l 72 22 l 174 68 l 174 265 l 72 200 l 72 276 l 174 343 l 174 710 l 72 756 l 72 778 l 456 778 l 456 756 l 342 710 l 342 433 l 513 543 l 513 467 l 342 356 l 342 71 l 617 71 l 711 285 l 733 285 l 733 0 l 72 0 z "},"ŀ":{"ha":817,"x_min":72,"x_max":750,"o":"m 72 0 l 72 22 l 174 68 l 174 710 l 72 756 l 72 778 l 456 778 l 456 756 l 342 710 l 342 71 l 617 71 l 711 285 l 733 285 l 733 0 l 72 0 m 656 322 q 589 350 617 322 q 561 417 561 378 q 589 483 561 456 q 656 511 617 511 q 722 483 694 511 q 750 417 750 456 q 722 350 750 378 q 656 322 694 322 z "},"ḷ":{"ha":817,"x_min":72,"x_max":733,"o":"m 72 0 l 72 22 l 174 68 l 174 710 l 72 756 l 72 778 l 456 778 l 456 756 l 342 710 l 342 71 l 617 71 l 711 285 l 733 285 l 733 0 l 72 0 m 451 -306 q 385 -278 413 -306 q 357 -211 357 -250 q 385 -144 357 -172 q 451 -117 413 -117 q 518 -144 490 -117 q 546 -211 546 -172 q 518 -278 546 -250 q 451 -306 490 -306 z "},"ḻ":{"ha":817,"x_min":72,"x_max":733,"o":"m 72 0 l 72 22 l 174 68 l 174 710 l 72 756 l 72 778 l 456 778 l 456 756 l 342 710 l 342 71 l 617 71 l 711 285 l 733 285 l 733 0 l 72 0 m 257 -246 l 257 -168 l 646 -168 l 646 -246 l 257 -246 z "},"ṃ":{"ha":1228,"x_min":68,"x_max":1160,"o":"m 68 0 l 68 22 l 169 68 l 194 710 l 89 756 l 89 778 l 385 778 l 625 238 l 869 778 l 1153 778 l 1153 756 l 1050 719 l 1069 68 l 1160 22 l 1160 0 l 806 0 l 806 22 l 899 67 l 888 635 l 599 -6 l 549 -6 l 267 633 l 253 67 l 356 22 l 356 0 l 68 0 m 574 -306 q 507 -278 535 -306 q 479 -211 479 -250 q 507 -144 479 -172 q 574 -117 535 -117 q 640 -144 613 -117 q 668 -211 668 -172 q 640 -278 668 -250 q 574 -306 613 -306 z "},"ń":{"ha":1011,"x_min":68,"x_max":943,"o":"m 68 0 l 68 22 l 169 68 l 169 711 l 68 756 l 68 778 l 297 778 l 763 242 l 763 711 l 635 756 l 635 778 l 943 778 l 943 756 l 844 711 l 844 -6 l 764 -6 l 251 581 l 251 71 l 379 22 l 379 0 l 68 0 m 507 882 l 625 1128 l 761 1128 q 751 1083 761 1104 q 710 1035 740 1061 l 532 882 l 507 882 z "},"ň":{"ha":1011,"x_min":68,"x_max":943,"o":"m 68 0 l 68 22 l 169 68 l 169 711 l 68 756 l 68 778 l 297 778 l 763 242 l 763 711 l 635 756 l 635 778 l 943 778 l 943 756 l 844 711 l 844 -6 l 764 -6 l 251 581 l 251 71 l 379 22 l 379 0 l 68 0 m 488 882 l 301 1128 l 325 1128 l 515 1006 l 706 1128 l 729 1128 l 543 882 l 488 882 z "},"ñ":{"ha":1011,"x_min":68,"x_max":943,"o":"m 68 0 l 68 22 l 169 68 l 169 711 l 68 756 l 68 778 l 297 778 l 763 242 l 763 711 l 635 756 l 635 778 l 943 778 l 943 756 l 844 711 l 844 -6 l 764 -6 l 251 581 l 251 71 l 379 22 l 379 0 l 68 0 m 293 913 q 341 1032 319 993 q 385 1083 363 1071 q 435 1096 407 1096 q 488 1083 463 1096 q 538 1051 514 1069 q 583 1020 561 1033 q 628 1007 606 1007 q 671 1024 653 1007 q 711 1096 689 1042 l 738 1096 q 690 976 711 1015 q 646 925 668 938 q 596 913 624 913 q 542 926 568 913 q 493 957 517 939 q 447 988 469 975 q 403 1001 425 1001 q 360 984 378 1001 q 319 913 342 967 l 293 913 z "},"ņ":{"ha":1011,"x_min":68,"x_max":943,"o":"m 68 0 l 68 22 l 169 68 l 169 711 l 68 756 l 68 778 l 297 778 l 763 242 l 763 711 l 635 756 l 635 778 l 943 778 l 943 756 l 844 711 l 844 -6 l 764 -6 l 251 581 l 251 71 l 379 22 l 379 0 l 68 0 m 471 -332 q 447 -331 460 -332 q 424 -328 433 -331 l 424 -303 q 444 -307 433 -306 q 461 -308 454 -308 q 515 -296 496 -308 q 535 -258 535 -283 q 508 -215 535 -226 q 422 -204 481 -204 l 422 -136 q 434 -115 422 -124 q 479 -107 446 -107 q 588 -135 551 -107 q 625 -217 625 -164 q 582 -302 625 -272 q 471 -332 539 -332 z "},"ṅ":{"ha":1011,"x_min":68,"x_max":943,"o":"m 68 0 l 68 22 l 169 68 l 169 711 l 68 756 l 68 778 l 297 778 l 763 242 l 763 711 l 635 756 l 635 778 l 943 778 l 943 756 l 844 711 l 844 -6 l 764 -6 l 251 581 l 251 71 l 379 22 l 379 0 l 68 0 m 515 910 q 449 938 476 910 q 421 1004 421 965 q 449 1071 421 1043 q 515 1099 476 1099 q 582 1071 554 1099 q 610 1004 610 1043 q 582 938 610 965 q 515 910 554 910 z "},"ṇ":{"ha":1011,"x_min":68,"x_max":943,"o":"m 68 0 l 68 22 l 169 68 l 169 711 l 68 756 l 68 778 l 297 778 l 763 242 l 763 711 l 635 756 l 635 778 l 943 778 l 943 756 l 844 711 l 844 -6 l 764 -6 l 251 581 l 251 71 l 379 22 l 379 0 l 68 0 m 522 -306 q 456 -278 483 -306 q 428 -211 428 -250 q 456 -144 428 -172 q 522 -117 483 -117 q 589 -144 561 -117 q 617 -211 617 -172 q 589 -278 617 -250 q 522 -306 561 -306 z "},"ṉ":{"ha":1011,"x_min":68,"x_max":943,"o":"m 68 0 l 68 22 l 169 68 l 169 711 l 68 756 l 68 778 l 297 778 l 763 242 l 763 711 l 635 756 l 635 778 l 943 778 l 943 756 l 844 711 l 844 -6 l 764 -6 l 251 581 l 251 71 l 379 22 l 379 0 l 68 0 m 328 -246 l 328 -168 l 717 -168 l 717 -246 l 328 -246 z "},"ò":{"ha":981,"x_min":81,"x_max":900,"o":"m 489 -14 q 278 38 371 -14 q 133 181 186 90 q 81 389 81 272 q 133 597 81 506 q 278 741 186 689 q 489 793 371 793 q 701 741 608 793 q 847 597 793 689 q 900 389 900 506 q 847 181 900 272 q 701 38 793 90 q 489 -14 608 -14 m 510 57 q 669 140 611 57 q 728 354 728 222 q 695 547 728 464 q 605 676 663 629 q 474 724 547 724 q 313 641 372 724 q 253 428 253 558 q 285 235 253 319 q 376 104 318 151 q 510 57 433 57 m 469 882 l 290 1035 q 249 1083 260 1061 q 239 1128 239 1104 l 376 1128 l 493 882 l 469 882 z "},"ó":{"ha":981,"x_min":81,"x_max":900,"o":"m 489 -14 q 278 38 371 -14 q 133 181 186 90 q 81 389 81 272 q 133 597 81 506 q 278 741 186 689 q 489 793 371 793 q 701 741 608 793 q 847 597 793 689 q 900 389 900 506 q 847 181 900 272 q 701 38 793 90 q 489 -14 608 -14 m 510 57 q 669 140 611 57 q 728 354 728 222 q 695 547 728 464 q 605 676 663 629 q 474 724 547 724 q 313 641 372 724 q 253 428 253 558 q 285 235 253 319 q 376 104 318 151 q 510 57 433 57 m 474 882 l 592 1128 l 728 1128 q 717 1083 728 1104 q 676 1035 707 1061 l 499 882 l 474 882 z "},"ô":{"ha":981,"x_min":81,"x_max":900,"o":"m 489 -14 q 278 38 371 -14 q 133 181 186 90 q 81 389 81 272 q 133 597 81 506 q 278 741 186 689 q 489 793 371 793 q 701 741 608 793 q 847 597 793 689 q 900 389 900 506 q 847 181 900 272 q 701 38 793 90 q 489 -14 608 -14 m 510 57 q 669 140 611 57 q 728 354 728 222 q 695 547 728 464 q 605 676 663 629 q 474 724 547 724 q 313 641 372 724 q 253 428 253 558 q 285 235 253 319 q 376 104 318 151 q 510 57 433 57 m 267 882 l 453 1128 l 508 1128 l 694 882 l 671 882 l 481 1004 l 290 882 l 267 882 z "},"õ":{"ha":981,"x_min":81,"x_max":900,"o":"m 489 -14 q 278 38 371 -14 q 133 181 186 90 q 81 389 81 272 q 133 597 81 506 q 278 741 186 689 q 489 793 371 793 q 701 741 608 793 q 847 597 793 689 q 900 389 900 506 q 847 181 900 272 q 701 38 793 90 q 489 -14 608 -14 m 510 57 q 669 140 611 57 q 728 354 728 222 q 695 547 728 464 q 605 676 663 629 q 474 724 547 724 q 313 641 372 724 q 253 428 253 558 q 285 235 253 319 q 376 104 318 151 q 510 57 433 57 m 258 913 q 306 1032 285 993 q 350 1083 328 1071 q 400 1096 372 1096 q 453 1083 428 1096 q 503 1051 479 1069 q 549 1020 526 1033 q 593 1007 571 1007 q 636 1024 618 1007 q 676 1096 654 1042 l 703 1096 q 655 976 676 1015 q 611 925 633 938 q 561 913 589 913 q 508 926 533 913 q 458 957 482 939 q 413 988 435 975 q 368 1001 390 1001 q 325 984 343 1001 q 285 913 307 967 l 258 913 z "},"ö":{"ha":981,"x_min":81,"x_max":900,"o":"m 489 -14 q 278 38 371 -14 q 133 181 186 90 q 81 389 81 272 q 133 597 81 506 q 278 741 186 689 q 489 793 371 793 q 701 741 608 793 q 847 597 793 689 q 900 389 900 506 q 847 181 900 272 q 701 38 793 90 q 489 -14 608 -14 m 510 57 q 669 140 611 57 q 728 354 728 222 q 695 547 728 464 q 605 676 663 629 q 474 724 547 724 q 313 641 372 724 q 253 428 253 558 q 285 235 253 319 q 376 104 318 151 q 510 57 433 57 m 347 928 q 292 949 314 928 q 271 1003 271 971 q 292 1056 271 1035 q 347 1078 314 1078 q 401 1056 379 1078 q 422 1003 422 1035 q 401 949 422 971 q 347 928 379 928 m 614 928 q 560 949 581 928 q 539 1003 539 971 q 560 1056 539 1035 q 614 1078 581 1078 q 668 1056 647 1078 q 689 1003 689 1035 q 668 949 689 971 q 614 928 647 928 z "},"ō":{"ha":981,"x_min":81,"x_max":900,"o":"m 489 -14 q 278 38 371 -14 q 133 181 186 90 q 81 389 81 272 q 133 597 81 506 q 278 741 186 689 q 489 793 371 793 q 701 741 608 793 q 847 597 793 689 q 900 389 900 506 q 847 181 900 272 q 701 38 793 90 q 489 -14 608 -14 m 510 57 q 669 140 611 57 q 728 354 728 222 q 695 547 728 464 q 605 676 663 629 q 474 724 547 724 q 313 641 372 724 q 253 428 253 558 q 285 235 253 319 q 376 104 318 151 q 510 57 433 57 m 286 964 l 286 1042 l 675 1042 l 675 964 l 286 964 z "}}}
